<svg width="51" height="33" viewBox="0 0 51 33" fill="none" xmlns="http://www.w3.org/2000/svg">
<path d="M50.2969 31.1841C50.2969 31.7876 39.0374 32.272 25.1485 32.272C11.2595 32.272 0 31.7838 0 31.1841C0 30.5844 11.2595 30.0962 25.1485 30.0962C39.0374 30.0962 50.2969 30.5844 50.2969 31.1841Z" fill="#E2CFC1"/>
<path d="M9.74495 17.4678H8.461V31.1799H9.74495V17.4678Z" fill="#BFD5F0"/>
<path d="M9.74494 17.4678H9.10297V31.1799H9.74494V17.4678Z" fill="#9CBAD8"/>
<path d="M28.2161 17.5142H26.9322V31.2263H28.2161V17.5142Z" fill="#BFD5F0"/>
<path d="M28.2161 17.5142H27.5742V31.2263H28.2161V17.5142Z" fill="#9CBAD8"/>
<path d="M34.0247 4.77857C32.6023 3.7022 29.6 3.6061 28.9657 6.00485C28.416 8.09223 28.0854 11.2252 27.2551 13.87C26.7592 15.4538 26.171 18.2331 20.4048 18.8905C19.8551 18.952 17.8484 19.8131 19.4361 21.1201C24.4873 25.2756 29.7576 23.3728 32.4908 21.6275C37.5997 18.36 35.3394 5.77036 34.0247 4.77857Z" fill="#F8D646"/>
<path d="M18.1713 27.3819L17.6293 27.2666L17.2872 28.0508L16.9873 28.3507L15.1537 29.1041L18.0676 29.0464L18.1713 27.3819Z" fill="#FFDA89"/>
<path d="M30.9916 17.91C30.9916 17.91 28.9657 20.451 27.2358 21.0584C27.2358 21.0584 22.8228 21.1776 19.4822 19.6437C19.4822 19.6437 19.14 22.4269 18.6903 26.0481L18.3635 27.8356L17.3295 27.6473C17.3295 27.6473 16.1608 19.267 16.5798 17.8062C17.0027 16.3416 20.6662 16.9336 21.2774 16.9682C21.5465 16.9836 22.4076 16.8644 24.0529 16.7491C26.0134 16.6107 30.9916 17.91 30.9916 17.91Z" fill="#282E76"/>
<path d="M22.2384 28.5005L21.6963 28.3813L21.3542 29.1656L21.0544 29.4693L19.2207 30.2189L22.1346 30.1612L22.2384 28.5005Z" fill="#FFDA89"/>
<path d="M14.7078 9.36466C14.7078 9.36466 13.8582 8.49973 13.5891 8.56124C13.3585 8.61121 12.6473 9.16477 14.4502 9.77984L14.7078 9.36466Z" fill="#F7A66F"/>
<path d="M24.1721 10.0527L20.3125 13.9238L14.2849 9.77979L14.6117 9.26083L19.7436 11.7211L23.3571 8.46508C23.3571 8.46508 24.9486 7.02353 25.2215 8.08836C25.3599 8.62655 24.9524 9.2416 24.1721 10.0527Z" fill="#FFC7CA"/>
<path d="M30.1574 9.2683C30.1574 9.2683 25.2599 7.63069 24.6872 7.69989C24.1144 7.76524 23.7069 9.84492 23.6146 10.5446C23.4801 11.5671 24.1221 12.5666 24.3835 13.766C24.641 14.9653 24.0567 16.749 24.0567 16.749L31.549 18.5673L30.2458 14.7347L30.1574 9.2683Z" fill="#81236D"/>
<path d="M31.549 18.5673C31.549 18.5673 32.4062 21.5619 30.5726 21.5735C28.639 21.585 26.7861 21.5965 22.9381 20.597C22.9381 20.597 22.7459 24.199 22.5998 27.0399L22.3999 28.8466L21.3543 28.7313C21.3543 28.7313 19.5975 20.4587 19.9127 18.9671C20.228 17.4756 24.0298 17.5371 24.641 17.5294C24.8986 17.5256 26.2364 17.4525 27.6049 17.664C29.5116 17.96 31.549 18.5673 31.549 18.5673Z" fill="#19164F"/>
<path d="M27.6894 7.26548L27.897 8.64169C27.897 8.64169 26.1133 9.64886 26.3478 8.99535C26.5707 8.39182 26.7937 7.16553 26.7937 7.16553L27.6894 7.26548Z" fill="#F7A66F"/>
<path d="M27.8624 5.72392C27.9393 6.01223 28.0969 6.56964 27.9047 6.91177C27.7125 7.25774 27.4088 7.8728 26.9783 7.98428C26.5477 8.09192 26.3478 7.69981 26.2979 7.52683C26.221 7.25005 26.2979 5.74699 27.0013 5.45868C27.5318 5.23572 27.8009 5.5048 27.8624 5.72392Z" fill="#F7A66F"/>
<path d="M25.6752 5.71227C25.6752 5.71227 26.9668 6.01981 27.4358 5.9583C27.9086 5.89295 27.7971 6.34272 27.7933 6.39269C27.7856 6.44267 27.6395 7.08079 27.7933 7.1077C27.9509 7.13461 28.2546 6.35425 28.0816 5.78916C27.9086 5.22022 26.0211 5.06261 25.6752 5.71227Z" fill="#2E3B57"/>
<path d="M27.6626 7.33087C27.6626 7.33087 27.1513 7.73067 26.6785 7.61918C26.3786 7.54999 26.2825 7.00411 26.2979 6.88879C26.3133 6.77731 26.0404 7.87674 26.7016 7.98822C27.3627 8.0997 27.6626 7.33087 27.6626 7.33087Z" fill="#2E3B57"/>
<path d="M20.3394 13.2C20.3394 13.2 19.3015 12.5772 19.0554 12.7041C18.8478 12.8117 18.2981 13.5229 20.1971 13.6689L20.3394 13.2Z" fill="#FFC190"/>
<path d="M29.673 11.478L26.9129 16.1986L20.0396 13.7076L20.2241 13.1233L25.8096 14.2112L28.4852 10.1479C28.4852 10.1479 29.6615 8.35268 30.1958 9.31372C30.4649 9.80193 30.2266 10.4977 29.673 11.478Z" fill="#FFC7CA"/>
<path d="M35.2893 16.4688C35.2893 16.4688 31.3298 21.2278 25.9749 21.7468C25.4944 21.7929 22.792 21.9928 25.3753 23.592C25.3791 23.5881 34.1553 24.4108 35.2893 16.4688Z" fill="#F7AF48"/>
<path d="M43.047 21.4197C42.6895 21.2813 44.1541 19.1978 42.5588 18.3521C40.4637 17.2411 42.7702 13.7314 41.8899 13.816C40.5713 13.9467 40.2061 15.9956 40.4445 18.2867C40.7482 21.2121 39.2489 20.4202 39.222 20.4087C38.3686 20.0243 37.9996 20.3972 38.3725 22.9228C38.7454 25.4484 39.7218 27.3974 40.5521 27.2743C40.6021 27.2667 40.6521 27.2513 40.6982 27.2282C40.752 27.2436 40.8058 27.2513 40.8596 27.2551C40.9827 27.259 41.1057 27.2321 41.221 27.1744C42.2666 27.2282 42.332 26.7861 43.2084 24.5219C44.1695 22.054 44.1041 21.8272 43.047 21.4197Z" fill="#78BBAC"/>
<path d="M43.0622 30.8496H39.3449L38.9374 26.5864H43.4659L43.0622 30.8496Z" fill="#DAE2F2"/>
<path d="M23.1687 6.90433C14.6462 -8.58762 5.54322 6.93893 10.8597 6.18932C17.0488 5.3167 22.9842 6.96584 22.9842 6.96584L23.1687 6.90433Z" fill="#248CD4"/>
<path d="M12.8318 4.37221H12.2667V2.65771H12.8241V2.79226H12.4205V3.43423H12.7895V3.57263H12.4205V4.24151H12.8318V4.37221Z" fill="#FFECB4"/>
<path d="M13.6198 2.7908H13.2201V3.44046H13.5891V3.57885H13.2201V4.37074H13.0663V2.65625H13.6198V2.7908Z" fill="#FFECB4"/>
<path d="M14.3849 2.7908H13.9851V3.44046H14.3541V3.57885H13.9851V4.37074H13.8313V2.65625H14.3849V2.7908Z" fill="#FFECB4"/>
<path d="M15.1576 4.37074H14.5925V2.65625H15.1499V2.7908H14.7462V3.43277H15.1153V3.57116H14.7462V4.24004H15.1576V4.37074Z" fill="#FFECB4"/>
<path d="M16.084 4.25157C16.084 4.28617 16.0724 4.31693 16.0494 4.33999C16.0263 4.36306 15.9956 4.37459 15.961 4.37459H15.5189C15.4843 4.37459 15.4535 4.36306 15.4305 4.33999C15.4074 4.31693 15.3959 4.29001 15.3959 4.25157V2.77927C15.3959 2.74467 15.4074 2.71391 15.4305 2.69085C15.4535 2.66778 15.4843 2.65625 15.5189 2.65625H15.961C15.9956 2.65625 16.0263 2.66778 16.0494 2.69085C16.0724 2.71391 16.084 2.74082 16.084 2.77927V3.17905H15.9302V2.79463H15.5496V4.24004H15.9302V3.81718H16.084V4.25157Z" fill="#FFECB4"/>
<path d="M16.9412 2.7908H16.676V4.37074H16.5222V2.7908H16.2531V2.65625H16.9374V2.7908H16.9412Z" fill="#FFECB4"/>
<path d="M17.2795 4.37074H17.1257V2.65625H17.2795V4.37074Z" fill="#FFECB4"/>
<path d="M18.2368 2.65625L17.9408 4.37459H17.7986L17.5026 2.65625H17.6525L17.8639 4.02092L17.8716 4.1324C17.8716 4.1055 17.8754 4.07089 17.8793 4.02092L18.0907 2.65625H18.2368Z" fill="#FFECB4"/>
<path d="M19.0055 4.37074H18.4404V2.65625H18.9978V2.7908H18.5942V3.43277H18.9632V3.57116H18.5942V4.24004H19.0055V4.37074Z" fill="#FFECB4"/>
<path d="M17.7139 14.8467C17.7139 15.1657 17.4525 15.4233 17.1372 15.4233C16.8182 15.4233 16.5568 15.1657 16.5568 14.8467C16.5568 14.5276 16.8182 14.2701 17.1372 14.2701C17.4525 14.2662 17.7139 14.5276 17.7139 14.8467Z" fill="#EAEAEA"/>
<path d="M17.7139 14.8467C17.7139 15.1657 17.4525 15.4233 17.1372 15.4233C16.8182 15.4233 16.5568 15.1657 16.5568 14.8467C16.5568 14.5276 16.8182 14.2701 17.1372 14.2701C17.4525 14.2662 17.7139 14.5276 17.7139 14.8467Z" fill="#EAEAEA"/>
<path d="M25.675 16.3115H20.9429V16.7651H25.675V16.3115Z" fill="#97BADD"/>
<path d="M13.4122 12.2593H19.9973L21.3581 16.7646L14.7769 16.7608L13.4122 12.2593Z" fill="#BFD5F0"/>
<path d="M17.7139 14.8467C17.7139 15.1657 17.4525 15.4233 17.1373 15.4233C16.8182 15.4233 16.5568 15.1657 16.5568 14.8467C16.5568 14.5276 16.8182 14.2701 17.1373 14.2701C17.4525 14.2662 17.7139 14.5276 17.7139 14.8467Z" fill="#EAEAEA"/>
<path d="M12.5551 15.3494H12.5167C12.4667 15.3494 12.4206 15.3647 12.3783 15.3763V14.9111H9.7489V15.4301C9.7489 16.1566 10.3371 16.7448 11.0636 16.7448C11.5249 16.7448 11.9285 16.5065 12.163 16.149C12.2514 16.2451 12.3745 16.3104 12.5167 16.3104H12.5551C12.8204 16.3104 13.0357 16.0951 13.0357 15.8299C13.0357 15.5646 12.8204 15.3494 12.5551 15.3494ZM12.509 16.0951H12.4898C12.3937 16.0951 12.313 16.0413 12.2668 15.9606C12.3168 15.8491 12.3476 15.7261 12.3629 15.6031C12.4014 15.58 12.4437 15.5646 12.4898 15.5646H12.509C12.6551 15.5646 12.7743 15.6838 12.7743 15.8299C12.7743 15.976 12.6551 16.0951 12.509 16.0951Z" fill="#E65895"/>
<path d="M10.8367 14.6001C10.3255 14.4963 9.58738 13.5929 10.1948 12.6165C10.8021 11.6362 10.7714 10.6906 10.6753 10.3408C10.5792 9.98709 11.4287 11.5594 10.9482 12.6895C10.4677 13.8197 11.521 14.7385 10.8367 14.6001Z" fill="#BFD5F0"/>
<path d="M11.5403 14.3848C11.2866 14.3348 10.9253 13.8889 11.2251 13.4045C11.5249 12.9202 11.5096 12.455 11.4634 12.282C11.4173 12.109 11.8363 12.8817 11.598 13.4391C11.3596 13.9965 11.8786 14.454 11.5403 14.3848Z" fill="#BFD5F0"/>
<path d="M17.3064 17.5142H16.0225V31.2263H17.3064V17.5142Z" fill="#BFD5F0"/>
<path d="M17.3063 17.5142H16.6644V31.2263H17.3063V17.5142Z" fill="#9CBAD8"/>
<path d="M36.1889 17.4678H34.9049V31.1799H36.1889V17.4678Z" fill="#BFD5F0"/>
<path d="M36.1889 17.4678H35.5469V31.1799H36.1889V17.4678Z" fill="#9CBAD8"/>
<path d="M31.549 30.8491H23.7415V31.591H31.549V30.8491Z" fill="#C0D6EE"/>
<path d="M31.549 30.8491H27.5742V31.591H31.549V30.8491Z" fill="#9CBAD8"/>
<path d="M36.9731 16.7573H7.54608V17.4685H36.9731V16.7573Z" fill="#2166ED"/>
<path d="M36.9731 16.7573H16.6414V17.4685H36.9731V16.7573Z" fill="#4E90F9"/>
</svg>
