<svg width="60" height="35" viewBox="0 0 60 35" fill="none" xmlns="http://www.w3.org/2000/svg">
<path d="M59.2969 33.2152C59.2969 33.9267 46.0227 34.4978 29.6485 34.4978C13.2743 34.4978 0 33.9222 0 33.2152C0 32.5082 13.2743 31.9326 29.6485 31.9326C46.0227 31.9281 59.2969 32.5037 59.2969 33.2152Z" fill="#E2CFC1"/>
<path d="M53.4416 30.9265C53.4416 32.1048 52.4899 33.0566 51.3115 33.0566H10.7001C9.52632 33.0566 8.57007 32.1048 8.57007 30.9265V2.13005C8.57007 0.956262 9.52179 0 10.7001 0H51.3161C52.4944 0 53.4461 0.95173 53.4461 2.13005V30.9265H53.4416Z" fill="#95C3E8"/>
<path d="M51.3161 0H10.7001C9.52632 0 8.57007 0.95173 8.57007 2.13005V4.0607H53.4416V2.13005C53.4416 0.956262 52.4899 0 51.3161 0Z" fill="#2866C9"/>
<path d="M52.082 30.9265C52.082 32.1048 51.1303 33.0566 49.952 33.0566H9.34056C8.16676 33.0566 7.21051 32.1048 7.21051 30.9265V2.13005C7.21051 0.956262 8.16223 0 9.34056 0H49.9565C51.1348 0 52.0866 0.95173 52.0866 2.13005V30.9265H52.082Z" fill="#B9DDFF"/>
<path d="M15.5946 3.53955H14.9375V30.3601H15.5946V3.53955Z" fill="white"/>
<path d="M25.6602 3.53955H25.0031V30.3601H25.6602V3.53955Z" fill="white"/>
<path d="M34.8512 3.53955H34.1941V30.3601H34.8512V3.53955Z" fill="white"/>
<path d="M44.9168 3.53955H44.2596V30.3601H44.9168V3.53955Z" fill="white"/>
<path d="M49.2947 11.8013H9.35406V12.4584H49.2947V11.8013Z" fill="white"/>
<path d="M49.2947 19.8955H9.35406V20.5572H49.2947V19.8955Z" fill="white"/>
<path d="M49.2947 27.3374H9.35406V27.9946H49.2947V27.3374Z" fill="white"/>
<path d="M13.954 5.10303H8.70142V6.81159H13.954V5.10303Z" fill="white"/>
<path d="M13.9541 7.37354H10.342V8.32978H13.9541V7.37354Z" fill="white"/>
<path d="M43.2764 13.3379H38.0237V15.0465H43.2764V13.3379Z" fill="white"/>
<path d="M33.102 21.4453H26.6982V23.1539H33.102V21.4453Z" fill="white"/>
<path d="M33.102 24.0737H26.6982V25.7823H33.102V24.0737Z" fill="white"/>
<path d="M43.2763 15.6079H39.6642V16.5642H43.2763V15.6079Z" fill="white"/>
<path d="M23.3624 21.4453H16.2517V26.0498H23.3624V21.4453Z" fill="#E65895"/>
<path d="M49.9519 21.4453H46.0861V26.0498H49.9519V21.4453Z" fill="#3094DE"/>
<path d="M49.9565 0H9.34056C8.16676 0 7.21051 0.95173 7.21051 2.13005V4.0607H52.082V2.13005C52.082 0.956262 51.1303 0 49.9565 0Z" fill="#3572E7"/>
<path d="M33.1018 5.10303H26.6483V10.3556H33.1018V5.10303Z" fill="white"/>
<path d="M22.6268 7.3402L26.3113 8.94454L29.3115 4.48956L28.949 4.22217L26.1074 7.28582L22.7582 6.03498C22.7582 6.03498 21.666 5.52286 21.385 6.27971C21.3805 6.27971 21.879 6.99577 22.6268 7.3402Z" fill="#F7A66F"/>
<path d="M28.9128 4.32155C28.9128 4.32155 29.1893 3.47407 29.3842 3.42875C29.5519 3.38796 30.1999 3.51938 29.2165 4.51189L28.9128 4.32155Z" fill="#F7A66F"/>
<path d="M20.9183 31.2056L21.2038 31.2282L21.2582 31.6678L21.3579 31.8627L22.151 32.5063L20.7189 32.044L20.9183 31.2056Z" fill="#31DCEE"/>
<path d="M19.894 30.4355L20.1161 30.6168L19.9166 31.0066L19.894 31.2287L20.2022 32.203L19.264 31.0247L19.894 30.4355Z" fill="#31DCEE"/>
<path d="M19.5269 15.3794L20.329 24.244L20.6191 31.5587H21.3125L22.0013 23.9585L22.867 15.3794H19.5269Z" fill="#282E76"/>
<path d="M25.8581 15.3794L25.6315 23.4691L20.2157 30.8698L19.5269 30.5209L23.2703 23.8407L21.9424 15.8371V15.3794H25.8581Z" fill="#19164F"/>
<path d="M19.5269 15.3798H25.8581L25.1692 10.943V6.50612L22.6449 5.99854L19.5269 6.28858V10.5668V15.3798Z" fill="#3195DF"/>
<path d="M22.2189 3.34739C22.2189 3.34739 23.1434 3.17971 23.2567 4.18582C23.4063 5.48198 22.7854 5.50463 23.2567 6.51527C23.2567 6.51527 21.6343 4.96079 22.1464 3.65557L22.2189 3.34739Z" fill="#2E3B57"/>
<path d="M21.9153 4.80225L21.6343 5.86274C21.6343 5.86274 22.944 6.8054 22.8171 6.27515C22.6948 5.78116 22.6268 4.80225 22.6268 4.80225H21.9153Z" fill="#F7A66F"/>
<path d="M21.9152 3.57848C21.8291 3.79601 21.6569 4.2175 21.7792 4.50755C21.9016 4.79307 22.0874 5.30518 22.4137 5.42755C22.74 5.54991 22.8261 5.18282 22.8987 5.06046C22.9666 4.93809 23.1434 3.73257 22.6177 3.44252C22.2189 3.22498 21.9832 3.41532 21.9152 3.57848Z" fill="#F7A66F"/>
<path d="M22.228 3.34834C22.228 3.34834 21.7159 3.24863 21.376 3.584C20.8865 4.07346 20.6826 5.20646 22.3005 6.58419C22.3005 6.58419 21.3986 4.0372 22.3005 3.65651L22.228 3.34834Z" fill="#2E3B57"/>
<path d="M22.4229 3.71456C22.4229 3.71456 22.1193 4.35356 21.6842 4.48499C21.6842 4.48499 21.3352 3.41997 22.228 3.2976C22.5317 3.25682 23.1344 3.24775 23.0347 4.2176C23.0347 4.2176 22.4637 4.02727 22.4229 3.71456Z" fill="#2E3B57"/>
<path d="M24.5846 8.08772L27.8703 10.4036L31.7089 6.64201L31.4053 6.30664L28.0017 8.7358L24.9744 6.83688C24.9744 6.83688 24.0045 6.11629 23.5785 6.80063C23.5785 6.80063 23.9184 7.60279 24.5846 8.08772Z" fill="#F7A66F"/>
<path d="M31.351 6.40164C31.351 6.40164 31.7906 5.63119 31.9945 5.62213C32.1667 5.6176 32.774 5.87139 31.6138 6.65089L31.351 6.40164Z" fill="#F7A66F"/>
<path d="M23.4471 6.51526C23.4471 6.51526 22.722 7.45792 25.0469 8.51842L25.5635 7.09989C25.5681 7.09989 24.2402 5.93063 23.4471 6.51526Z" fill="#FFC7CA"/>
</svg>
