<svg width="40" height="40" viewBox="0 0 40 40" fill="none" xmlns="http://www.w3.org/2000/svg">
<path d="M20 40.0001C31.0457 40.0001 40 31.0457 40 20.0001C40 8.95436 31.0457 0 20 0C8.9543 0 0 8.95436 0 20.0001C0 31.0457 8.9543 40.0001 20 40.0001Z" fill="#FFA40B"/>
<path d="M21.4177 39.9496C22.0821 39.9023 22.7437 39.8219 23.4001 39.7087C24.057 39.5953 24.7077 39.4492 25.35 39.2709C25.9927 39.0927 26.6261 38.8824 27.2478 38.641C27.8692 38.3992 28.4781 38.1265 29.0723 37.8239C29.6663 37.5215 30.2448 37.1896 30.8057 36.8294C31.3667 36.4694 31.9094 36.0816 32.4317 35.6673C32.9541 35.2527 33.4555 34.8121 33.934 34.3473C34.4122 33.8826 34.8668 33.3943 35.2963 32.8841C35.7262 32.3741 36.1304 31.8428 36.5072 31.2923C36.8837 30.7421 37.2324 30.1733 37.5521 29.5882C37.8717 29.0031 38.1617 28.4023 38.4213 27.7881C38.6808 27.1738 38.9095 26.547 39.1065 25.9098C39.3036 25.2729 39.4687 24.6265 39.6013 23.973C39.6119 23.9063 39.6222 23.8396 39.6322 23.7728L25.6381 9.77867C25.2604 9.401 24.7395 9.16669 24.1667 9.16669C23.021 9.16669 22.0834 10.1044 22.0834 11.25C22.0834 11.3945 22.0988 11.5353 22.1273 11.6716C22.1556 11.8066 22.1961 11.9364 22.2494 12.0606C22.2942 12.1651 22.3515 12.2633 22.4121 12.3584C22.4228 12.3752 22.4303 12.3941 22.4414 12.4105C22.489 12.4806 22.5471 12.5421 22.6026 12.6058C22.6349 12.643 22.6622 12.6849 22.697 12.7197L22.7084 12.7311L20.7862 15.9359C20.6595 15.9051 20.5313 15.8789 20.4004 15.861C20.2695 15.8431 20.136 15.8334 20 15.8334C19.5012 15.8334 19.0298 15.9459 18.6068 16.1459C18.3993 16.244 18.2044 16.3652 18.0225 16.5023L14.5101 12.9899C14.2079 12.6877 13.7911 12.5 13.3334 12.5C12.4178 12.5 11.6667 13.2512 11.6667 14.1667C11.6667 14.2811 11.6786 14.3922 11.7009 14.5003V14.502C11.7681 14.8258 11.9303 15.1171 12.1566 15.3434L16.7709 19.9577C16.8333 20.1975 16.9202 20.4281 17.0297 20.6462L12.2852 23.8086C11.8745 23.5126 11.3757 23.3334 10.8334 23.3334C9.4576 23.3334 8.33337 24.4576 8.33337 25.8334C8.33337 26.5213 8.6144 27.1463 9.06742 27.5993L21.4177 39.9496Z" fill="#FFA40B"/>
<path d="M24.1667 9.16669C23.0211 9.16669 22.0834 10.1044 22.0834 11.25C22.0834 11.8287 22.324 12.3526 22.7084 12.7311L20.7862 15.9359C20.5329 15.874 20.2719 15.8334 20 15.8334C19.0024 15.8334 18.1151 16.2841 17.5033 16.9824L17.0834 16.6667L16.5837 17.334L17.0362 17.6742C16.8076 18.1253 16.6667 18.6279 16.6667 19.1667C16.6667 19.7008 16.8048 20.1979 17.0297 20.6462L12.2852 23.8086C11.8745 23.5126 11.3757 23.3334 10.8334 23.3334C9.4576 23.3334 8.33337 24.4576 8.33337 25.8334C8.33337 27.2092 9.4576 28.3334 10.8334 28.3334C12.2092 28.3334 13.3334 27.2092 13.3334 25.8334C13.3334 25.3054 13.1659 24.8154 12.8842 24.4108L17.4935 21.3379C18.1055 22.0431 18.9967 22.5 20 22.5C20.5368 22.5 21.0377 22.3592 21.4877 22.1322L21.8116 22.5879L22.4903 22.1029L22.1778 21.6683C22.8797 21.0564 23.3334 20.1673 23.3334 19.1667C23.3334 19.1494 23.3288 19.1334 23.3285 19.1162L28.61 18.4115C28.9091 18.8645 29.4206 19.1667 30 19.1667C30.9156 19.1667 31.6667 18.4156 31.6667 17.5C31.6667 16.5845 30.9156 15.8334 30 15.8334C29.0845 15.8334 28.3334 16.5845 28.3334 17.5C28.3334 17.5369 28.3424 17.5712 28.3448 17.6074L23.2015 18.2927C22.9586 17.4076 22.3638 16.6755 21.5723 16.2468L23.4099 13.1852C23.6453 13.2781 23.8994 13.3334 24.1667 13.3334C25.3124 13.3334 26.25 12.3957 26.25 11.25C26.25 10.1044 25.3124 9.16669 24.1667 9.16669ZM24.1667 10C24.862 10 25.4167 10.5548 25.4167 11.25C25.4167 11.9454 24.862 12.5 24.1667 12.5C23.4714 12.5 22.9167 11.9454 22.9167 11.25C22.9167 10.5548 23.4714 10 24.1667 10ZM13.3334 12.5C12.4178 12.5 11.6667 13.2512 11.6667 14.1667C11.6667 15.0823 12.4178 15.8334 13.3334 15.8334C13.6622 15.8334 13.9677 15.7331 14.2269 15.5664L14.5834 15.8334L15.083 15.1677L14.7933 14.9496C14.9205 14.7146 15 14.4509 15 14.1667C15 13.2512 14.2489 12.5 13.3334 12.5ZM13.3334 13.3334C13.7986 13.3334 14.1667 13.7015 14.1667 14.1667C14.1667 14.6319 13.7986 15 13.3334 15C12.8682 15 12.5 14.6319 12.5 14.1667C12.5 13.7015 12.8682 13.3334 13.3334 13.3334ZM15.7504 15.6673L15.2507 16.3347L15.9164 16.8343L16.4161 16.167L15.7504 15.6673ZM20 16.6667C21.3857 16.6667 22.5 17.7811 22.5 19.1667C22.5 20.5524 21.3857 21.6667 20 21.6667C18.6144 21.6667 17.5 20.5524 17.5 19.1667C17.5 17.7811 18.6144 16.6667 20 16.6667ZM30 16.6667C30.4652 16.6667 30.8334 17.0349 30.8334 17.5C30.8334 17.9652 30.4652 18.3334 30 18.3334C29.5349 18.3334 29.1667 17.9652 29.1667 17.5C29.1667 17.0349 29.5349 16.6667 30 16.6667ZM22.9753 22.7816L22.2966 23.2666L22.78 23.9437L23.4587 23.4603L22.9753 22.7816ZM23.9437 24.1374L23.265 24.6224L23.75 25.2995L24.4271 24.8161L23.9437 24.1374ZM10.8334 24.1667C11.7588 24.1667 12.5 24.9079 12.5 25.8334C12.5 26.7588 11.7588 27.5 10.8334 27.5C9.90796 27.5 9.16671 26.7588 9.16671 25.8334C9.16671 24.9079 9.90796 24.1667 10.8334 24.1667ZM24.9122 25.4932L24.2334 25.9782L24.7185 26.6569L25.3955 26.1719L24.9122 25.4932ZM27.0834 26.6667C26.6776 26.6667 26.301 26.7878 25.9799 26.9906L25.8806 26.8506L25.2019 27.334L25.3711 27.57C25.1383 27.9062 25 28.3126 25 28.75C25 29.8957 25.9377 30.8334 27.0834 30.8334C28.229 30.8334 29.1667 29.8957 29.1667 28.75C29.1667 27.6044 28.229 26.6667 27.0834 26.6667ZM27.0834 27.5C27.7787 27.5 28.3334 28.0548 28.3334 28.75C28.3334 29.4454 27.7787 30 27.0834 30C26.3881 30 25.8334 29.4454 25.8334 28.75C25.8334 28.0548 26.3881 27.5 27.0834 27.5Z" fill="white" stroke="white" stroke-width="0.5"/>
</svg>
