<svg width="250" height="190" viewBox="0 0 250 190" fill="none" xmlns="http://www.w3.org/2000/svg">
<g clip-path="url(#clip0_2006_94806)">
<path d="M208.121 13.5442C186.019 -7.66495 154.539 -1.84353 137.243 14.1922C124.605 25.9269 104.697 42.9422 89.284 42.2024C74.0034 41.4626 56.534 30.8657 37.5493 39.0289C18.8146 47.0697 13.6973 73.6667 22.1667 94.0034C30.6667 114.412 61.682 130.998 99.2075 146.468C112.993 152.242 127.813 155.138 142.758 154.978C142.758 154.978 176.728 154.626 189.493 146.458C199.488 140.049 203.769 135.84 214.575 119.529C222.738 107.182 228.207 89.8249 228.82 73.0085C229.59 52.4626 224.631 29.3912 208.121 13.5442Z" fill="#4C5BD4"/>
<path opacity="0.8" d="M208.121 13.5442C186.019 -7.66495 154.539 -1.84353 137.243 14.1922C124.605 25.9269 104.697 42.9422 89.284 42.2024C74.0034 41.4626 56.534 30.8657 37.5493 39.0289C18.8146 47.0697 13.6973 73.6667 22.1667 94.0034C30.6667 114.412 61.682 130.998 99.2075 146.468C112.993 152.242 127.813 155.138 142.758 154.978C142.758 154.978 176.728 154.626 189.493 146.458C199.488 140.049 203.769 135.84 214.575 119.529C222.738 107.182 228.207 89.8249 228.82 73.0085C229.59 52.4626 224.631 29.3912 208.121 13.5442Z" fill="white"/>
<path d="M119.088 173.142C171.823 173.142 214.573 170.599 214.573 167.463C214.573 164.327 171.823 161.785 119.088 161.785C66.3535 161.785 23.6035 164.327 23.6035 167.463C23.6035 170.599 66.3535 173.142 119.088 173.142Z" fill="#4C5BD4"/>
<path opacity="0.6" d="M119.088 173.142C171.823 173.142 214.573 170.599 214.573 167.463C214.573 164.327 171.823 161.785 119.088 161.785C66.3535 161.785 23.6035 164.327 23.6035 167.463C23.6035 170.599 66.3535 173.142 119.088 173.142Z" fill="white"/>
<path d="M41.101 47.1484H200.106C201.522 47.1484 202.879 47.7107 203.88 48.7115C204.881 49.7124 205.443 51.0698 205.443 52.4852V157.281H35.7694V52.4852C35.7694 51.0707 36.331 49.714 37.3307 48.7133C38.3304 47.7126 39.6865 47.1498 41.101 47.1484Z" fill="#4C5BD4" stroke="#263238" stroke-width="0.920603" stroke-miterlimit="10"/>
<path d="M198.56 55.7548H42.6517V143.862H198.56V55.7548Z" fill="white"/>
<g style="mix-blend-mode:multiply" opacity="0.4">
<path d="M198.561 143.864V68.6545L69.5972 143.864H198.561Z" fill="#4C5BD4"/>
</g>
<path d="M198.56 55.7548H42.6517V143.862H198.56V55.7548Z" stroke="#263238" stroke-width="0.690452" stroke-miterlimit="10"/>
<path d="M179.296 151.98H62.6885V157.725H179.296V151.98Z" fill="#4C5BD4" stroke="#263238" stroke-width="0.691688" stroke-miterlimit="10"/>
<path d="M179.296 154.751H62.6885V157.73H179.296V154.751Z" fill="#4C5BD4" stroke="#263238" stroke-width="0.691688" stroke-miterlimit="10"/>
<path d="M22.0458 161.133C22.0458 161.133 23.9641 163.475 29.6988 165.388H212.281C212.281 165.388 216.536 164.322 218.454 161.342L22.0458 161.133Z" fill="#4C5BD4" stroke="#263238" stroke-width="0.920603" stroke-miterlimit="10"/>
<path d="M217.489 156.939H23.0353C22.2745 156.939 21.6577 157.555 21.6577 158.316V160.036C21.6577 160.796 22.2745 161.413 23.0353 161.413H217.489C218.25 161.413 218.867 160.796 218.867 160.036V158.316C218.867 157.555 218.25 156.939 217.489 156.939Z" fill="#4C5BD4" stroke="#263238" stroke-width="0.920603" stroke-miterlimit="10"/>
<path d="M120.57 51.971C121.393 51.971 122.06 51.304 122.06 50.4812C122.06 49.6584 121.393 48.9914 120.57 48.9914C119.747 48.9914 119.08 49.6584 119.08 50.4812C119.08 51.304 119.747 51.971 120.57 51.971Z" fill="#263238"/>
<path d="M100.887 48.9898H63.6425C63.5447 48.9898 63.4478 48.9705 63.3574 48.9331C63.267 48.8957 63.1849 48.8408 63.1158 48.7716C63.0466 48.7024 62.9917 48.6203 62.9543 48.53C62.9168 48.4396 62.8976 48.3427 62.8976 48.2449C62.8976 48.1471 62.9168 48.0502 62.9543 47.9598C62.9917 47.8695 63.0466 47.7873 63.1158 47.7182C63.1849 47.649 63.267 47.5941 63.3574 47.5567C63.4478 47.5193 63.5447 47.5 63.6425 47.5H100.887C101.085 47.5013 101.273 47.5802 101.413 47.7196C101.552 47.8591 101.631 48.0477 101.632 48.2449C101.632 48.4425 101.554 48.6319 101.414 48.7716C101.274 48.9113 101.085 48.9898 100.887 48.9898Z" fill="#4C5BD4" stroke="#263238" stroke-width="0.691688" stroke-miterlimit="10"/>
<path d="M176.852 48.9898H139.607C139.41 48.9898 139.22 48.9113 139.08 48.7716C138.941 48.6319 138.862 48.4425 138.862 48.2449C138.864 48.0477 138.942 47.8591 139.082 47.7196C139.221 47.5802 139.41 47.5013 139.607 47.5H176.852C177.05 47.5 177.239 47.5785 177.379 47.7182C177.518 47.8579 177.597 48.0473 177.597 48.2449C177.597 48.4425 177.518 48.6319 177.379 48.7716C177.239 48.9113 177.05 48.9898 176.852 48.9898Z" fill="#4C5BD4" stroke="#263238" stroke-width="0.691688" stroke-miterlimit="10"/>
<path d="M203.983 78.1429C203.871 78.1429 203.762 78.0984 203.682 78.0192C203.602 77.9399 203.556 77.8322 203.555 77.7194V65.3776C203.556 65.2643 203.602 65.1561 203.682 65.076C203.762 64.9959 203.87 64.9503 203.983 64.949C204.096 64.9503 204.204 64.9961 204.283 65.0763C204.362 65.1566 204.407 65.2648 204.407 65.3776V77.7194C204.407 77.8317 204.362 77.9395 204.283 78.0189C204.203 78.0983 204.096 78.1429 203.983 78.1429Z" fill="#4C5BD4" stroke="#263238" stroke-width="0.691688" stroke-miterlimit="10"/>
<path d="M37.3667 78.1429C37.3111 78.1429 37.256 78.1319 37.2046 78.1107C37.1533 78.0894 37.1066 78.0582 37.0673 78.0189C37.0279 77.9795 36.9968 77.9329 36.9755 77.8815C36.9542 77.8301 36.9432 77.775 36.9432 77.7194V65.3776C36.9432 65.2648 36.9877 65.1566 37.0669 65.0763C37.1462 64.9961 37.2539 64.9503 37.3667 64.949C37.48 64.9503 37.5882 64.9959 37.6683 65.076C37.7484 65.1561 37.7939 65.2643 37.7953 65.3776V77.7194C37.7939 77.8322 37.7482 77.9399 37.668 78.0192C37.5877 78.0984 37.4795 78.1429 37.3667 78.1429Z" fill="#4C5BD4" stroke="#263238" stroke-width="0.691688" stroke-miterlimit="10"/>
<path d="M153.987 81.3782C154.711 80.868 155.492 79.9599 155.517 79.0007C155.527 78.7759 155.489 78.5517 155.407 78.3423C155.325 78.133 155.2 77.9431 155.039 77.785C154.879 77.6269 154.688 77.5041 154.478 77.4244C154.267 77.3446 154.043 77.3098 153.818 77.3221C152.466 77.4446 151.267 79.567 150.981 80.7456C150.981 80.8476 150.777 82.4854 150.803 82.4803C150.828 82.4752 153.129 81.9854 153.987 81.3782Z" fill="#263238"/>
<path d="M142.307 106.962C142.275 106.78 142.204 106.607 142.1 106.454C141.996 106.301 141.86 106.173 141.703 106.076C141.545 105.98 141.368 105.918 141.185 105.895C141.002 105.871 140.815 105.887 140.639 105.942C139.618 106.294 139.042 108.207 139.057 109.197C139.057 109.258 139.154 110.003 139.21 110.38C139.093 110.089 138.981 109.794 138.863 109.487C138.695 109.044 138.532 108.574 138.353 108.115L138.123 107.385C138.042 107.14 137.991 106.875 137.924 106.651C137.833 106.283 137.756 105.901 137.679 105.518C138.509 105.288 139.297 104.93 140.016 104.457C140.572 103.947 141.139 103.197 141.083 102.416C141.076 102.233 141.031 102.053 140.95 101.888C140.869 101.723 140.754 101.577 140.613 101.46C140.472 101.342 140.308 101.256 140.131 101.206C139.954 101.156 139.769 101.144 139.588 101.171C138.501 101.365 137.664 103.171 137.547 104.151C137.547 104.181 137.547 104.39 137.547 104.661C137.486 104.283 137.419 103.911 137.368 103.528C137.215 102.447 137.098 101.339 136.975 100.232C136.95 99.9976 136.919 99.768 136.894 99.5384C137.747 99.2993 138.558 98.9329 139.302 98.4517C139.858 97.9415 140.424 97.1915 140.368 96.4109C140.361 96.2277 140.315 96.0482 140.234 95.8838C140.153 95.7194 140.038 95.5739 139.897 95.4565C139.756 95.3392 139.592 95.2528 139.416 95.2027C139.24 95.1527 139.055 95.1402 138.873 95.166C137.787 95.3599 136.95 97.166 136.833 98.1456C136.833 98.1813 136.833 98.4313 136.833 98.7068C136.756 98.1099 136.674 97.5078 136.572 96.916C136.406 95.9001 136.172 94.8962 135.873 93.9109C136.011 93.8701 137.73 93.3497 138.358 92.8038C138.909 92.2935 139.481 91.5435 139.419 90.7629C139.413 90.5795 139.367 90.3995 139.286 90.2348C139.206 90.07 139.091 89.9241 138.95 89.8066C138.809 89.6892 138.645 89.6028 138.468 89.553C138.291 89.5033 138.106 89.4914 137.924 89.518C136.838 89.7119 136.001 91.518 135.884 92.4976C135.884 92.564 135.853 93.4721 135.858 93.7935C135.856 93.7817 135.856 93.7696 135.858 93.7578C135.537 92.7989 135.133 91.8701 134.649 90.9823C134.222 90.1862 133.749 89.4161 133.231 88.6762C132.756 87.9823 132.282 87.3803 131.853 86.8497C131.623 86.564 131.404 86.3038 131.2 86.0691C131.2 86.0691 130.833 84.7884 130.797 84.7068C130.404 83.8038 129.113 82.2884 128.011 82.4007C127.829 82.4236 127.655 82.4845 127.498 82.5796C127.341 82.6748 127.207 82.8018 127.103 82.9526C126.999 83.1033 126.928 83.2743 126.894 83.4544C126.861 83.6345 126.866 83.8196 126.909 83.9976C127.062 84.7629 127.817 85.3497 128.486 85.6711C129.336 85.9384 130.222 86.0709 131.113 86.064C131.322 86.3191 131.542 86.5742 131.776 86.8905C132.19 87.4313 132.654 88.0435 133.108 88.7425C133.231 88.9313 133.353 89.1354 133.475 89.3293C133.2 89.0435 132.817 88.6507 132.771 88.6201C132.006 87.9976 130.164 87.2476 129.241 87.8497C129.09 87.9545 128.963 88.0899 128.867 88.247C128.772 88.4042 128.711 88.5796 128.688 88.762C128.665 88.9443 128.68 89.1295 128.733 89.3054C128.786 89.4814 128.876 89.6442 128.996 89.7833C129.274 90.058 129.608 90.2698 129.975 90.4044C130.342 90.5391 130.734 90.5935 131.123 90.564C131.889 90.564 133.338 89.8497 133.674 89.6966C133.945 90.1354 134.185 90.5946 134.455 91.0895C134.914 91.9758 135.293 92.9013 135.588 93.8548C135.588 93.9109 135.588 93.9721 135.628 94.0282C135.516 93.8599 134.838 93.0078 134.782 92.9415C134.088 92.2374 132.338 91.2884 131.353 91.7884C131.191 91.8756 131.05 91.996 130.938 92.1416C130.826 92.2872 130.746 92.4547 130.703 92.6334C130.66 92.812 130.655 92.9977 130.689 93.1783C130.723 93.3588 130.794 93.5302 130.899 93.6813C131.317 94.3344 132.236 94.615 132.97 94.6711C133.817 94.7374 135.572 94.0895 135.639 94.0639C135.905 95.0243 136.11 96.0008 136.251 96.9874C136.358 97.717 136.44 98.4568 136.511 99.2068C136.363 98.9925 135.725 98.1864 135.674 98.1354C134.981 97.4313 133.231 96.4874 132.246 96.9823C132.084 97.0695 131.943 97.1898 131.831 97.3354C131.719 97.481 131.639 97.6486 131.596 97.8272C131.553 98.0059 131.548 98.1916 131.582 98.3721C131.616 98.5527 131.687 98.7241 131.792 98.8752C132.21 99.5333 133.128 99.8089 133.863 99.865C134.69 99.9313 136.373 99.3191 136.516 99.268C136.552 99.6048 136.583 99.9466 136.613 100.288C136.715 101.401 136.807 102.513 136.935 103.61C136.981 103.987 137.037 104.36 137.093 104.732C136.858 104.421 136.414 103.865 136.373 103.819C135.679 103.12 133.929 102.171 132.945 102.671C132.783 102.757 132.641 102.877 132.528 103.022C132.416 103.167 132.335 103.334 132.292 103.512C132.249 103.69 132.243 103.876 132.277 104.056C132.31 104.237 132.381 104.408 132.486 104.559C132.909 105.217 133.827 105.493 134.562 105.549C135.437 105.492 136.297 105.301 137.113 104.982C137.21 105.605 137.317 106.217 137.455 106.814C137.521 107.074 137.572 107.324 137.649 107.579C137.725 107.834 137.787 108.089 137.858 108.314C138.021 108.824 138.169 109.268 138.333 109.727C138.414 109.957 138.496 110.171 138.577 110.396C138.389 110.044 138.067 109.493 138.037 109.447C137.46 108.651 135.873 107.447 134.822 107.788C134.65 107.85 134.492 107.948 134.359 108.075C134.227 108.202 134.122 108.355 134.053 108.525C133.984 108.695 133.951 108.877 133.957 109.061C133.963 109.244 134.007 109.424 134.088 109.589C134.404 110.304 135.271 110.717 135.986 110.885C136.7 111.054 138.481 110.737 138.685 110.697C138.889 111.243 139.093 111.773 139.287 112.268C139.914 113.829 140.491 115.105 140.909 115.993C141.327 116.88 141.588 117.38 141.588 117.38C141.636 117.467 141.717 117.532 141.812 117.56C141.907 117.589 142.01 117.579 142.098 117.533C142.184 117.484 142.247 117.404 142.276 117.309C142.304 117.214 142.295 117.112 142.251 117.023C142.251 117.023 141.991 116.544 141.557 115.671C141.123 114.799 140.537 113.554 139.873 112.023C139.685 111.579 139.491 111.11 139.297 110.625C139.496 110.528 141.052 109.778 141.572 109.156C142.093 108.533 142.481 107.722 142.307 106.962Z" fill="#263238"/>
<path d="M133.675 89.4815C133.675 89.4815 135.323 88.461 135.797 87.7417C136.205 87.1243 136.547 86.2111 136.307 85.4968C136.252 85.3221 136.16 85.161 136.039 85.024C135.917 84.887 135.768 84.7771 135.601 84.7016C135.434 84.626 135.253 84.5864 135.069 84.5854C134.886 84.5844 134.705 84.622 134.537 84.6957C133.517 85.1651 133.21 87.1294 133.338 88.109C133.338 88.1906 133.675 89.4917 133.675 89.4815Z" fill="#263238"/>
<path d="M158.787 81.3802C159.64 82.0128 161.976 82.4822 161.976 82.4822C161.976 82.4822 161.823 80.8496 161.798 80.7475C161.527 79.569 160.318 77.4465 158.966 77.3241C158.741 77.311 158.516 77.3452 158.306 77.4247C158.095 77.5041 157.903 77.627 157.743 77.7852C157.583 77.9435 157.458 78.1336 157.376 78.3434C157.294 78.5531 157.257 78.7777 157.267 79.0026C157.277 79.9363 158.058 80.819 158.787 81.3802Z" fill="#263238"/>
<path d="M168.48 104.007C167.128 104.063 165.806 106.119 165.48 107.288C165.48 107.354 165.337 108.124 165.266 108.614C165.266 108.318 165.266 108.038 165.266 107.737C165.266 107.14 165.235 106.543 165.209 105.905C165.209 105.599 165.169 105.288 165.143 104.971C165.118 104.655 165.072 104.328 165.036 104.007C164.939 103.257 164.806 102.507 164.653 101.747C165.164 101.747 167.031 101.691 167.852 101.313C168.674 100.935 169.613 100.221 169.817 99.2722C169.873 99.054 169.883 98.8262 169.846 98.6038C169.808 98.3814 169.724 98.1695 169.599 97.982C169.474 97.7945 169.31 97.6357 169.119 97.516C168.928 97.3963 168.713 97.3184 168.49 97.2875C167.143 97.1294 165.526 98.9661 165.026 100.073C164.995 100.14 164.725 100.971 164.587 101.43C164.49 100.976 164.398 100.522 164.291 100.068C163.97 98.7518 163.602 97.4304 163.245 96.109C163.133 95.7059 163.031 95.2977 162.924 94.8947C163.215 94.8947 165.337 94.8947 166.235 94.4559C167.133 94.0171 167.995 93.3641 168.199 92.4151C168.255 92.1969 168.265 91.9693 168.227 91.7473C168.189 91.5252 168.105 91.3136 167.979 91.1263C167.854 90.939 167.691 90.7802 167.5 90.6603C167.31 90.5404 167.096 90.4621 166.873 90.4304C165.526 90.2773 163.914 92.1141 163.414 93.2161C163.373 93.2977 162.985 94.4967 162.903 94.8079C162.669 93.9151 162.444 93.0273 162.26 92.1396C162.006 90.9466 161.831 89.7382 161.735 88.5222C161.893 88.5222 164.138 88.5222 165.067 88.0835C165.888 87.7059 166.827 86.9916 167.036 86.0426C167.091 85.8241 167.1 85.5964 167.061 85.3743C167.023 85.1523 166.938 84.9408 166.812 84.7536C166.687 84.5664 166.523 84.4078 166.332 84.2879C166.141 84.1681 165.927 84.0897 165.704 84.0579C164.357 83.9049 162.745 85.7416 162.245 86.8437C162.204 86.9304 161.791 88.2212 161.735 88.4559C161.735 88.3896 161.735 88.313 161.735 88.2416C161.667 87.0176 161.708 85.79 161.857 84.5732C161.934 83.8998 162.041 83.2569 162.164 82.6396C162.602 82.6855 164.551 82.859 165.444 82.5579C166.337 82.2569 167.317 81.6702 167.623 80.762C167.701 80.5512 167.735 80.3262 167.721 80.1016C167.707 79.8771 167.646 79.6579 167.543 79.4583C167.439 79.2587 167.294 79.0831 167.118 78.943C166.942 78.8028 166.738 78.7012 166.521 78.6447C165.194 78.3437 163.388 79.9916 162.771 81.0324C162.74 81.0886 162.459 81.7008 162.26 82.1549C162.317 81.8743 162.373 81.5835 162.434 81.3182C162.664 80.2977 162.944 79.4151 163.179 78.6192C163.322 78.1702 163.459 77.762 163.592 77.3845C164.036 77.2059 165.811 76.4763 166.454 75.8079C167.097 75.1396 167.704 74.1549 167.556 73.211C167.53 72.9872 167.457 72.7715 167.341 72.578C167.226 72.3844 167.071 72.2175 166.886 72.0879C166.702 71.9584 166.492 71.8692 166.271 71.8263C166.05 71.7833 165.822 71.7875 165.602 71.8386C164.291 72.1804 163.449 74.4763 163.378 75.6855C163.378 75.7875 163.47 77.4355 163.49 77.4253H163.516C163.383 77.7875 163.24 78.1753 163.092 78.6039C162.832 79.3947 162.541 80.2926 162.291 81.2926C162.008 82.3656 161.789 83.4542 161.633 84.5528C161.455 85.7824 161.387 87.0254 161.429 88.2671V88.313C161.296 87.9406 160.888 86.9049 160.847 86.8335C160.276 85.762 158.541 84.0375 157.209 84.2824C156.911 84.3359 156.637 84.4802 156.424 84.6957C156.212 84.4791 155.937 84.3346 155.638 84.2824C154.306 84.0426 152.577 85.7671 152.005 86.8335C151.965 86.9049 151.551 87.9406 151.419 88.313C151.419 88.313 151.419 88.2824 151.419 88.2671C151.459 87.0253 151.389 85.7823 151.209 84.5528C151.053 83.4548 150.835 82.3663 150.556 81.2926C150.306 80.2722 150.016 79.3947 149.75 78.6039C149.602 78.1753 149.465 77.7875 149.327 77.4253H149.352C149.352 77.4253 149.47 75.7875 149.465 75.6855C149.398 74.4763 148.551 72.1804 147.24 71.8386C147.021 71.7875 146.793 71.7833 146.572 71.8263C146.35 71.8692 146.141 71.9584 145.956 72.0879C145.772 72.2175 145.617 72.3844 145.501 72.578C145.386 72.7715 145.312 72.9872 145.286 73.211C145.138 74.1549 145.76 75.16 146.388 75.8079C147.016 76.4559 148.806 77.2059 149.25 77.3845C149.383 77.762 149.521 78.1702 149.669 78.6192C149.914 79.4151 150.179 80.3182 150.408 81.3182C150.47 81.5835 150.526 81.8743 150.587 82.1549C150.388 81.7008 150.112 81.0886 150.077 81.0324C149.459 80.012 147.653 78.3437 146.332 78.6447C146.114 78.7005 145.91 78.8017 145.733 78.9417C145.557 79.0817 145.412 79.2573 145.308 79.4571C145.204 79.6569 145.143 79.8764 145.13 80.1013C145.116 80.3261 145.15 80.5513 145.23 80.762C145.536 81.6702 146.546 82.2926 147.403 82.5579C148.26 82.8233 150.245 82.6855 150.689 82.6396C150.806 83.2569 150.914 83.8998 150.99 84.5732C151.141 85.7898 151.184 87.0175 151.118 88.2416C151.118 88.313 151.118 88.3896 151.092 88.4559C151.036 88.2212 150.618 86.9253 150.582 86.8437C150.072 85.7416 148.465 83.9049 147.118 84.0579C146.895 84.0896 146.681 84.1679 146.49 84.2879C146.299 84.4078 146.136 84.5666 146.011 84.7539C145.886 84.9411 145.801 85.1527 145.763 85.3748C145.726 85.5969 145.735 85.8244 145.791 86.0426C145.995 86.9763 146.934 87.6906 147.755 88.0835C148.684 88.512 150.929 88.5222 151.087 88.5222C150.986 89.7416 150.807 90.9533 150.551 92.1498C150.362 93.0375 150.138 93.9253 149.903 94.8181C149.822 94.5069 149.434 93.2875 149.393 93.2263C148.883 92.1243 147.276 90.2875 145.929 90.4406C145.706 90.4723 145.492 90.5506 145.301 90.6705C145.111 90.7904 144.947 90.9492 144.822 91.1365C144.697 91.3238 144.613 91.5354 144.575 91.7575C144.537 91.9795 144.546 92.2071 144.602 92.4253C144.806 93.359 145.745 94.0732 146.567 94.4661C147.465 94.8794 149.592 94.9049 149.878 94.9049C149.771 95.3079 149.669 95.7161 149.556 96.1192C149.199 97.4406 148.832 98.762 148.536 100.078C148.424 100.532 148.332 100.987 148.235 101.441C148.097 100.981 147.827 100.15 147.796 100.083C147.286 98.9763 145.679 97.1396 144.332 97.2977C144.109 97.3294 143.895 97.4077 143.704 97.5277C143.514 97.6476 143.35 97.8064 143.225 97.9937C143.1 98.1809 143.016 98.3925 142.978 98.6146C142.94 98.8367 142.949 99.0642 143.005 99.2824C143.209 100.216 144.148 100.925 144.97 101.323C145.791 101.721 147.638 101.752 148.169 101.757C148.016 102.517 147.883 103.288 147.786 104.017C147.75 104.339 147.694 104.67 147.679 104.981C147.664 105.293 147.633 105.609 147.613 105.915C147.587 106.553 147.567 107.15 147.561 107.747C147.561 108.048 147.561 108.328 147.561 108.624C147.49 108.114 147.363 107.364 147.342 107.298C147.016 106.129 145.699 104.073 144.342 104.017C144.117 104.015 143.894 104.061 143.688 104.151C143.482 104.241 143.297 104.373 143.145 104.539C142.993 104.705 142.877 104.901 142.806 105.114C142.734 105.327 142.708 105.553 142.73 105.777C142.791 106.737 143.612 107.578 144.368 108.078C145.123 108.578 147.225 108.961 147.556 109.012C147.556 109.731 147.556 110.425 147.556 111.078C147.612 113.145 147.735 114.859 147.837 116.063C147.939 117.267 148.026 117.951 148.026 117.951C148.055 118.066 148.126 118.167 148.225 118.233C148.325 118.299 148.445 118.325 148.562 118.307C148.68 118.29 148.787 118.229 148.862 118.136C148.938 118.044 148.976 117.927 148.97 117.808C148.97 117.808 148.873 117.145 148.745 115.956C148.618 114.767 148.459 113.073 148.357 111.032C148.332 110.446 148.306 109.818 148.291 109.175C148.628 109.145 150.694 108.935 151.536 108.456C152.378 107.976 153.199 107.216 153.322 106.267C153.358 106.045 153.347 105.818 153.289 105.6C153.232 105.382 153.13 105.179 152.989 105.003C152.848 104.828 152.671 104.684 152.471 104.581C152.271 104.478 152.052 104.418 151.827 104.405C150.47 104.369 149.021 106.339 148.618 107.466C148.592 107.538 148.383 108.435 148.291 108.895C148.291 108.507 148.291 108.124 148.291 107.716C148.291 107.14 148.291 106.522 148.291 105.925C148.291 105.619 148.327 105.308 148.342 104.992C148.357 104.675 148.398 104.369 148.424 104.058C148.475 103.594 148.546 103.124 148.623 102.65C149.23 102.68 150.959 102.731 151.771 102.42C152.582 102.109 153.602 101.446 153.863 100.527C153.933 100.313 153.957 100.087 153.933 99.863C153.91 99.639 153.84 99.4225 153.727 99.2275C153.614 99.0325 153.462 98.8635 153.28 98.7314C153.097 98.5993 152.889 98.5072 152.669 98.461C151.337 98.2161 149.607 99.9457 149.031 101.012L148.806 101.568C148.888 101.109 148.975 100.65 149.077 100.191C149.363 98.8794 149.699 97.5528 150.031 96.2212L150.23 95.3896C150.74 95.4151 152.618 95.4916 153.47 95.1651C154.322 94.8385 155.301 94.1906 155.567 93.2722C155.636 93.0578 155.659 92.8313 155.635 92.6073C155.611 92.3834 155.54 92.1669 155.427 91.9721C155.314 91.7773 155.161 91.6084 154.979 91.4764C154.796 91.3444 154.588 91.2522 154.368 91.2059C153.036 90.961 151.306 92.6906 150.73 93.7569C150.73 93.7977 150.597 94.0783 150.47 94.3998C150.638 93.6753 150.796 92.9508 150.934 92.2263C151.176 90.985 151.332 89.7287 151.403 88.4661C151.689 88.4661 153.817 88.5988 154.74 88.2416C155.388 88.0045 155.966 87.61 156.424 87.0937C156.881 87.61 157.46 88.0045 158.107 88.2416C159.031 88.5988 161.169 88.4814 161.444 88.4661C161.518 89.7285 161.674 90.9846 161.914 92.2263C162.051 92.9508 162.209 93.6753 162.378 94.3998C162.25 94.0783 162.138 93.7977 162.118 93.7569C161.546 92.6906 159.817 90.961 158.48 91.2059C158.259 91.2521 158.051 91.3442 157.869 91.4763C157.687 91.6084 157.534 91.7774 157.421 91.9724C157.309 92.1674 157.238 92.3839 157.215 92.6079C157.192 92.8318 157.216 93.0582 157.286 93.2722C157.551 94.1906 158.536 94.8385 159.378 95.1651C160.22 95.4916 162.118 95.4151 162.618 95.3896C162.684 95.6702 162.75 95.9457 162.822 96.2212C163.148 97.5528 163.485 98.8794 163.776 100.191C163.878 100.65 163.959 101.109 164.046 101.568C163.934 101.288 163.837 101.058 163.817 101.012C163.245 99.9457 161.516 98.2161 160.179 98.461C159.958 98.5072 159.75 98.5993 159.568 98.7314C159.385 98.8635 159.233 99.0325 159.12 99.2275C159.008 99.4225 158.937 99.639 158.914 99.863C158.891 100.087 158.915 100.313 158.985 100.527C159.25 101.446 160.235 102.094 161.077 102.42C161.919 102.747 163.628 102.68 164.23 102.65C164.301 103.124 164.378 103.594 164.424 104.058C164.454 104.369 164.5 104.67 164.51 104.992C164.521 105.313 164.541 105.619 164.556 105.925C164.556 106.522 164.556 107.14 164.556 107.716C164.556 108.124 164.556 108.507 164.556 108.895C164.459 108.435 164.25 107.538 164.225 107.466C163.822 106.323 162.373 104.354 161.016 104.405C160.791 104.418 160.571 104.478 160.371 104.581C160.171 104.684 159.995 104.828 159.854 105.003C159.713 105.179 159.61 105.382 159.553 105.6C159.496 105.818 159.485 106.045 159.521 106.267C159.643 107.216 160.541 108.007 161.306 108.456C162.072 108.905 164.215 109.145 164.551 109.175C164.551 109.818 164.516 110.446 164.485 111.032C164.388 113.073 164.23 114.772 164.102 115.956C163.975 117.14 163.873 117.808 163.873 117.808C163.866 117.927 163.905 118.044 163.98 118.136C164.055 118.229 164.162 118.29 164.28 118.307C164.398 118.325 164.518 118.299 164.617 118.233C164.716 118.167 164.787 118.066 164.817 117.951C164.817 117.951 164.903 117.262 165.01 116.063C165.118 114.864 165.235 113.145 165.286 111.078C165.286 110.425 165.311 109.731 165.311 109.012C165.643 108.961 167.689 108.619 168.505 108.078C169.322 107.538 170.082 106.737 170.138 105.777C170.162 105.549 170.136 105.318 170.062 105.1C169.989 104.882 169.869 104.682 169.712 104.514C169.555 104.347 169.364 104.214 169.151 104.127C168.939 104.039 168.71 103.998 168.48 104.007Z" fill="#263238"/>
<path d="M105.838 91.25H74.5114C72.3502 91.25 70.5981 93.002 70.5981 95.1633V161.296C70.5981 163.457 72.3502 165.209 74.5114 165.209H105.838C107.999 165.209 109.751 163.457 109.751 161.296V95.1633C109.751 93.002 107.999 91.25 105.838 91.25Z" fill="#263238"/>
<path d="M108.012 99.3726H72.3387V157.092H108.012V99.3726Z" fill="white"/>
<g style="mix-blend-mode:multiply" opacity="0.4">
<path d="M108.011 137.693L74.756 157.086H108.011V137.693Z" fill="#4C5BD4"/>
</g>
<path d="M108.012 99.3726H72.3387V157.092H108.012V99.3726Z" stroke="#263238" stroke-width="0.52825" stroke-miterlimit="10"/>
<path d="M94.0535 95.3316H86.2984C86.1631 95.3316 86.0333 95.2778 85.9376 95.1821C85.842 95.0865 85.7882 94.9567 85.7882 94.8214C85.7882 94.6861 85.842 94.5563 85.9376 94.4606C86.0333 94.3649 86.1631 94.3112 86.2984 94.3112H94.0535C94.1888 94.3112 94.3186 94.3649 94.4143 94.4606C94.51 94.5563 94.5637 94.6861 94.5637 94.8214C94.5637 94.9567 94.51 95.0865 94.4143 95.1821C94.3186 95.2778 94.1888 95.3316 94.0535 95.3316Z" fill="#4C5BD4"/>
<path opacity="0.4" d="M94.0535 95.3316H86.2984C86.1631 95.3316 86.0333 95.2778 85.9376 95.1821C85.842 95.0865 85.7882 94.9567 85.7882 94.8214C85.7882 94.6861 85.842 94.5563 85.9376 94.4606C86.0333 94.3649 86.1631 94.3112 86.2984 94.3112H94.0535C94.1888 94.3112 94.3186 94.3649 94.4143 94.4606C94.51 94.5563 94.5637 94.6861 94.5637 94.8214C94.5637 94.9567 94.51 95.0865 94.4143 95.1821C94.3186 95.2778 94.1888 95.3316 94.0535 95.3316Z" fill="white"/>
<path d="M92.2918 160.347C92.2918 159.928 92.1677 159.519 91.935 159.171C91.7023 158.823 91.3717 158.551 90.9848 158.391C90.5979 158.231 90.1721 158.189 89.7614 158.271C89.3507 158.352 88.9734 158.554 88.6773 158.85C88.3812 159.146 88.1795 159.523 88.0978 159.934C88.0161 160.345 88.058 160.771 88.2183 161.157C88.3786 161.544 88.65 161.875 88.9981 162.108C89.3463 162.34 89.7557 162.465 90.1745 162.465C90.736 162.465 91.2746 162.241 91.6717 161.844C92.0688 161.447 92.2918 160.909 92.2918 160.347Z" fill="#4C5BD4" stroke="#263238" stroke-width="0.704333" stroke-miterlimit="10"/>
<path d="M91.2467 159.275H89.1039V161.418H91.2467V159.275Z" fill="#4C5BD4" stroke="#263238" stroke-width="0.52825" stroke-linecap="round" stroke-linejoin="round"/>
<path opacity="0.6" d="M91.2467 159.275H89.1039V161.418H91.2467V159.275Z" fill="white" stroke="#263238" stroke-width="0.52825" stroke-linecap="round" stroke-linejoin="round"/>
<path d="M91.2467 159.275H89.1039V161.418H91.2467V159.275Z" stroke="#263238" stroke-width="0.52825" stroke-linecap="round" stroke-linejoin="round"/>
<path d="M211.826 159.687V114.039C211.826 110.889 209.272 108.335 206.122 108.335H109.759C106.609 108.335 104.055 110.889 104.055 114.039V159.687C104.055 162.838 106.609 165.392 109.759 165.392H206.122C209.272 165.392 211.826 162.838 211.826 159.687Z" fill="#4C5BD4" stroke="#263238" stroke-width="0.868674" stroke-miterlimit="10"/>
<path d="M206.081 162.856V110.871H109.8V162.856H206.081Z" fill="white"/>
<g style="mix-blend-mode:multiply" opacity="0.4">
<path d="M206.081 121.306L134.841 162.852H206.081V121.306Z" fill="#4C5BD4"/>
</g>
<path d="M206.081 162.856V110.871H109.8V162.856H206.081Z" stroke="#263238" stroke-width="0.651505" stroke-miterlimit="10"/>
<path d="M208.671 137.641C208.516 137.641 208.364 137.595 208.234 137.508C208.105 137.422 208.004 137.299 207.945 137.155C207.886 137.011 207.87 136.853 207.901 136.7C207.932 136.547 208.007 136.408 208.118 136.298C208.228 136.188 208.369 136.114 208.521 136.084C208.674 136.054 208.832 136.071 208.976 136.131C209.119 136.191 209.242 136.293 209.327 136.422C209.413 136.552 209.458 136.705 209.457 136.86C209.456 137.068 209.372 137.266 209.225 137.413C209.078 137.559 208.879 137.641 208.671 137.641Z" fill="#263238"/>
<path d="M194.724 108.855H198.168C198.272 108.855 198.357 108.771 198.357 108.667V108.524C198.357 108.42 198.272 108.335 198.168 108.335H194.724C194.62 108.335 194.535 108.42 194.535 108.524V108.667C194.535 108.771 194.62 108.855 194.724 108.855Z" fill="#4C5BD4" stroke="#263238" stroke-width="0.652671" stroke-miterlimit="10"/>
<path d="M182.56 108.851H189.157C189.191 108.851 189.226 108.845 189.258 108.832C189.29 108.819 189.319 108.8 189.344 108.776C189.369 108.752 189.388 108.723 189.402 108.691C189.415 108.659 189.422 108.625 189.422 108.59C189.422 108.556 189.415 108.521 189.402 108.49C189.388 108.458 189.369 108.429 189.344 108.405C189.319 108.38 189.29 108.361 189.258 108.348C189.226 108.336 189.191 108.329 189.157 108.33H182.56C182.491 108.33 182.425 108.358 182.376 108.406C182.327 108.455 182.3 108.521 182.3 108.59C182.3 108.659 182.327 108.726 182.376 108.774C182.425 108.823 182.491 108.851 182.56 108.851Z" fill="#4C5BD4" stroke="#263238" stroke-width="0.652671" stroke-miterlimit="10"/>
<path d="M200.688 166.835C200.688 167.595 196.137 168.212 190.525 168.212C184.913 168.212 180.357 167.6 180.357 166.835C180.357 166.069 184.908 165.452 190.525 165.452C196.143 165.452 200.688 166.069 200.688 166.835Z" fill="#4C5BD4"/>
<path d="M181.775 146.387C181.775 157.999 190.959 167.407 190.959 167.407C190.959 167.407 200.142 157.999 200.142 146.387C200.142 134.774 190.959 125.366 190.959 125.366C190.959 125.366 181.775 134.774 181.775 146.387Z" fill="#263238"/>
<path d="M190.975 167.407V125.366" stroke="white" stroke-width="0.738" stroke-miterlimit="10"/>
<path d="M190.974 140.31L185.821 135.815" stroke="white" stroke-width="0.738" stroke-miterlimit="10"/>
<path d="M191.057 147.258L197.429 138.018" stroke="white" stroke-width="0.738" stroke-miterlimit="10"/>
<path d="M190.974 151.264L183.372 144.478" stroke="white" stroke-width="0.738" stroke-miterlimit="10"/>
<path d="M191.057 156.658L198.577 149.953" stroke="white" stroke-width="0.738" stroke-miterlimit="10"/>
<path d="M191.056 161.314L185.168 156.656" stroke="white" stroke-width="0.738" stroke-miterlimit="10"/>
<path d="M175.402 161.479C179.872 166.52 187.479 167.06 187.479 167.06C187.479 167.06 187.851 159.443 183.397 154.402C178.943 149.361 171.321 148.821 171.321 148.821C171.321 148.821 170.918 156.463 175.402 161.479Z" fill="#263238"/>
<path d="M187.48 167.08L171.306 148.84" stroke="white" stroke-width="0.738" stroke-miterlimit="10"/>
<path d="M177.055 155.325L173.091 155.356" stroke="white" stroke-width="0.738" stroke-miterlimit="10"/>
<path d="M179.766 158.31L178.975 151.851" stroke="white" stroke-width="0.738" stroke-miterlimit="10"/>
<path d="M181.27 160.076L175.361 160.061" stroke="white" stroke-width="0.738" stroke-miterlimit="10"/>
<path d="M183.384 162.386L184.067 156.585" stroke="white" stroke-width="0.738" stroke-miterlimit="10"/>
<path d="M185.174 164.407L180.827 164.652" stroke="white" stroke-width="0.738" stroke-miterlimit="10"/>
<path d="M198.841 154.249C194.147 159.076 194.173 166.708 194.173 166.708C194.173 166.708 201.8 166.509 206.489 161.678C211.178 156.846 211.158 149.234 211.158 149.234C211.158 149.234 203.53 149.417 198.841 154.249Z" fill="#263238"/>
<path d="M194.173 166.709L211.158 149.219" stroke="white" stroke-width="0.738" stroke-miterlimit="10"/>
<path d="M205.122 155.433L204.795 151.484" stroke="white" stroke-width="0.738" stroke-miterlimit="10"/>
<path d="M202.346 158.355L208.729 157.09" stroke="white" stroke-width="0.738" stroke-miterlimit="10"/>
<path d="M200.694 159.989L200.276 154.096" stroke="white" stroke-width="0.738" stroke-miterlimit="10"/>
<path d="M198.55 162.268L204.387 162.513" stroke="white" stroke-width="0.738" stroke-miterlimit="10"/>
<path d="M196.668 164.209L196.102 159.892" stroke="white" stroke-width="0.738" stroke-miterlimit="10"/>
<path d="M54.8002 155.075C54.8002 155.075 91.387 136.014 99.3207 146.529C107.254 157.044 91.3564 165.305 88.2849 167.162C85.2135 169.019 54.137 179.575 54.137 179.575L45.938 170.825L54.8002 155.075Z" fill="#263238"/>
<path d="M69.2299 165.274L83.8166 173.126L97.1482 176.013C97.3753 176.064 97.5897 176.16 97.7782 176.296C97.9667 176.432 98.1253 176.605 98.2443 176.805C98.3633 177.005 98.4402 177.227 98.4702 177.458C98.5002 177.688 98.4826 177.922 98.4187 178.146C98.3452 178.406 98.2098 178.644 98.0241 178.841C97.8384 179.037 97.6079 179.186 97.3523 179.274C94.0411 180.427 81.8523 184.605 80.8166 183.973C79.6176 183.238 64.8778 176.707 64.8778 176.707L69.2299 165.274Z" fill="white"/>
<g opacity="0.6">
<path opacity="0.6" d="M98.419 178.148L79.822 183.443L80.4445 183.765C80.9859 184.042 81.6083 184.116 82.1996 183.974C83.7761 183.602 88.1128 182.443 97.3271 179.301C97.5918 179.21 97.8301 179.056 98.0206 178.851C98.2111 178.646 98.348 178.398 98.419 178.127V178.148Z" fill="white"/>
</g>
<g opacity="0.6">
<path opacity="0.6" d="M76.6035 178.009C76.8288 177.894 77.0888 177.867 77.333 177.933C77.5771 177.999 77.7881 178.154 77.9249 178.366C78.0469 178.588 78.0794 178.848 78.0159 179.092C77.9523 179.337 77.7974 179.548 77.5831 179.683C77.3432 179.802 77.0679 179.828 76.8099 179.756C76.5519 179.685 76.3294 179.52 76.1851 179.295C76.081 179.051 76.076 178.776 76.1713 178.528C76.2665 178.281 76.4545 178.08 76.6953 177.968" fill="white"/>
</g>
<path d="M90.2505 178.234C90.3321 178.173 89.7403 177.443 89.7403 176.357C89.7403 175.27 90.3627 174.556 90.2811 174.489C90.1994 174.423 90.0413 174.586 89.8168 174.908C89.5344 175.337 89.382 175.838 89.378 176.352C89.3661 176.865 89.5044 177.37 89.776 177.806C90.0107 178.132 90.2199 178.265 90.2505 178.234Z" fill="#263238"/>
<path d="M92.7602 178.188C92.8622 178.152 92.6224 177.433 92.7908 176.561C92.9592 175.688 93.4235 175.096 93.3418 175.03C93.2602 174.964 92.6122 175.499 92.4336 176.499C92.2551 177.499 92.6836 178.249 92.7602 178.188Z" fill="#263238"/>
<path d="M86.72 178.901C86.822 178.866 86.4496 177.764 86.5976 176.381C86.7455 174.998 87.3016 173.983 87.2047 173.932C87.1078 173.881 86.3731 174.861 86.2353 176.345C86.0976 177.83 86.6435 178.952 86.72 178.901Z" fill="#263238"/>
<path d="M82.0885 176.882C82.1956 176.882 82.267 175.902 82.7721 174.841C83.2772 173.78 83.9558 173.05 83.8844 172.968C83.8129 172.887 82.966 173.519 82.4405 174.688C81.915 175.856 81.9915 176.897 82.0885 176.882Z" fill="#263238"/>
<path d="M77.7452 174.687C77.8524 174.687 77.781 173.61 78.4034 172.519C79.0259 171.427 79.934 170.901 79.8881 170.809C79.8422 170.718 79.6024 170.84 79.235 171.08C78.7552 171.401 78.3597 171.834 78.082 172.34C77.801 172.845 77.6436 173.41 77.6228 173.988C77.6177 174.427 77.6993 174.692 77.7452 174.687Z" fill="#263238"/>
<path d="M77.5624 172.126C77.5624 172.126 77.394 171.973 77.0165 171.82C76.4791 171.608 75.905 171.506 75.3277 171.519C74.9042 171.491 74.4831 171.602 74.1287 171.835C74.0215 171.925 73.9438 172.045 73.9056 172.18C73.8674 172.314 73.8705 172.457 73.9144 172.59C74.0217 172.843 74.2177 173.048 74.4655 173.167C74.9783 173.385 75.5512 173.418 76.0857 173.26C76.6201 173.101 77.0828 172.762 77.394 172.299C77.6935 171.836 77.8481 171.294 77.8382 170.742C77.8282 170.191 77.654 169.655 77.3379 169.202C77.2587 169.088 77.1557 168.993 77.0359 168.922C76.916 168.852 76.7823 168.808 76.644 168.794C76.5033 168.796 76.3666 168.842 76.2531 168.925C76.1396 169.008 76.0551 169.125 76.0114 169.259C75.9031 169.661 75.9031 170.085 76.0114 170.488C76.1252 171.052 76.3395 171.592 76.644 172.08C76.8634 172.422 77.0216 172.59 77.042 172.59C76.6794 171.923 76.418 171.206 76.2665 170.463C76.1773 170.111 76.1773 169.743 76.2665 169.391C76.2877 169.317 76.3326 169.252 76.3943 169.206C76.4561 169.16 76.5313 169.135 76.6083 169.136C76.699 169.151 76.7853 169.186 76.8618 169.237C76.9383 169.288 77.0032 169.354 77.0522 169.432C77.3103 169.832 77.4476 170.298 77.4476 170.774C77.4476 171.25 77.3103 171.716 77.0522 172.116C76.7876 172.505 76.3989 172.793 75.9495 172.933C75.5001 173.073 75.0165 173.056 74.5777 172.886C74.403 172.809 74.2604 172.674 74.1746 172.503C74.1474 172.431 74.1436 172.351 74.1637 172.276C74.1838 172.201 74.2269 172.134 74.2869 172.085C74.5886 171.885 74.9452 171.783 75.3073 171.794C76.0728 171.769 76.8365 171.882 77.5624 172.126Z" fill="#263238"/>
<path d="M74.4595 167.141C74.4595 167.141 39.985 146.253 35.3268 143.672C31.3217 141.442 18.6687 136.529 14.2095 148.646C9.75029 160.764 33.7605 178.667 33.7605 178.667L54.138 179.58L60.9391 176.983L68.6636 179.361L74.4595 167.141Z" fill="#263238"/>
<path d="M50.2199 179.998L34.7658 185.993L23.9086 194.243C23.7233 194.384 23.5108 194.486 23.2845 194.542C23.0582 194.597 22.8229 194.606 22.5932 194.566C22.3635 194.527 22.1444 194.441 21.9494 194.314C21.7544 194.186 21.5877 194.02 21.4597 193.825C21.3135 193.601 21.2225 193.345 21.1941 193.079C21.1657 192.813 21.2008 192.544 21.2964 192.294C22.5719 189.034 27.327 177.055 28.4801 176.682C29.8168 176.248 44.3627 169.299 44.3627 169.299L50.2199 179.998Z" fill="white"/>
<g opacity="0.6">
<path opacity="0.6" d="M21.4594 193.8L29.5156 176.213L28.8676 176.479C28.3056 176.709 27.8443 177.132 27.5666 177.672C26.8268 179.116 24.8676 183.152 21.2758 192.208C21.1735 192.468 21.1368 192.749 21.1688 193.027C21.2009 193.305 21.3006 193.57 21.4594 193.8Z" fill="white"/>
</g>
<g opacity="0.6">
<path opacity="0.6" d="M35.75 177.321C35.6904 177.567 35.5415 177.782 35.3321 177.924C35.1228 178.066 34.8681 178.126 34.6173 178.091C34.3702 178.04 34.152 177.897 34.0077 177.69C33.8633 177.483 33.804 177.228 33.8418 176.979C33.9072 176.719 34.0663 176.492 34.2885 176.343C34.5108 176.193 34.7805 176.13 35.0459 176.168C35.2994 176.247 35.5122 176.421 35.6389 176.655C35.7656 176.888 35.7963 177.162 35.7245 177.418" fill="white"/>
</g>
<path d="M26.7042 187.525C26.7042 187.632 27.643 187.642 28.4491 188.377C29.2552 189.111 29.4134 190.02 29.5155 189.999C29.6175 189.979 29.5971 189.754 29.5155 189.377C29.3724 188.884 29.0919 188.443 28.707 188.104C28.3221 187.765 27.8486 187.543 27.342 187.463C26.9389 187.423 26.7042 187.494 26.7042 187.525Z" fill="#263238"/>
<path d="M25.1181 189.473C25.0824 189.575 25.7814 189.861 26.3324 190.56C26.8834 191.259 27.0416 191.989 27.1436 191.973C27.2457 191.958 27.261 191.116 26.6334 190.33C26.0059 189.545 25.1181 189.376 25.1181 189.473Z" fill="#263238"/>
<path d="M28.4949 184.422C28.4541 184.524 29.5153 184.958 30.4898 185.953C31.4643 186.948 31.8521 188.045 31.9541 187.994C32.0561 187.943 31.7908 186.759 30.75 185.688C29.7092 184.616 28.5051 184.331 28.4949 184.422Z" fill="#263238"/>
<path d="M33.0407 182.212C32.9641 182.289 33.6682 182.988 34.1631 184.074C34.658 185.161 34.7549 186.141 34.8621 186.115C34.9692 186.09 35.0356 185.059 34.4947 183.901C33.9539 182.743 33.0917 182.131 33.0407 182.212Z" fill="#263238"/>
<path d="M37.5305 180.346C37.4641 180.427 38.3264 181.065 38.755 182.254C39.1836 183.443 38.9744 184.473 39.0815 184.494C39.1886 184.514 39.2448 184.259 39.306 183.82C39.3726 183.247 39.299 182.665 39.0917 182.126C38.8929 181.583 38.5676 181.095 38.1427 180.703C37.8111 180.412 37.556 180.305 37.5305 180.346Z" fill="#263238"/>
<path d="M39.597 181.871C39.8068 181.844 40.0076 181.769 40.1837 181.652C40.6942 181.382 41.1453 181.013 41.5103 180.565C41.8082 180.263 41.9967 179.87 42.046 179.448C42.0509 179.307 42.0117 179.169 41.934 179.052C41.8562 178.935 41.7437 178.845 41.6123 178.795C41.3521 178.712 41.0704 178.728 40.8215 178.841C40.3215 179.088 39.9234 179.502 39.6953 180.012C39.4672 180.521 39.4234 181.094 39.5715 181.632C39.7305 182.16 40.0428 182.629 40.4688 182.98C40.8948 183.33 41.4153 183.546 41.9643 183.601C42.1027 183.614 42.2423 183.597 42.3735 183.551C42.5047 183.506 42.6244 183.432 42.7246 183.336C42.8141 183.228 42.8676 183.094 42.8776 182.954C42.8877 182.814 42.8538 182.675 42.7807 182.555C42.5447 182.212 42.2204 181.938 41.8419 181.764C41.3376 181.486 40.7885 181.298 40.2194 181.208C40.0125 181.165 39.7988 181.165 39.5919 181.208C40.334 181.367 41.049 181.634 41.7143 181.999C42.0361 182.167 42.3113 182.413 42.5154 182.713C42.5579 182.777 42.5779 182.853 42.5724 182.93C42.5669 183.007 42.536 183.079 42.4848 183.137C42.4147 183.195 42.3331 183.239 42.2452 183.264C42.1574 183.29 42.0652 183.297 41.9746 183.285C41.5044 183.22 41.0626 183.022 40.701 182.715C40.3394 182.408 40.0732 182.003 39.9337 181.55C39.8103 181.096 39.8439 180.613 40.0292 180.181C40.2144 179.748 40.5404 179.391 40.9541 179.167C41.1249 179.082 41.3208 179.062 41.5052 179.111C41.5785 179.137 41.6418 179.186 41.6858 179.25C41.7299 179.314 41.7523 179.39 41.7501 179.468C41.707 179.823 41.5556 180.156 41.3164 180.422C40.8331 181.003 40.251 181.493 39.597 181.871Z" fill="#263238"/>
<path d="M43.4847 183.855C43.9184 183.631 61.3725 176.524 61.3725 176.524L44.0256 167.932L33.5868 173.345L43.4847 183.855Z" fill="#263238"/>
<path d="M21.9288 162.85L22.1686 162.922L22.8574 163.151L25.4952 164.065L35.189 167.468L67.1533 178.748L68.6839 179.223L68.5258 179.294L74.3472 167.116L74.3982 167.274L54.2911 154.978L48.5054 151.406L46.9748 150.447L46.5819 150.192C46.4952 150.136 46.4492 150.105 46.4543 150.1L46.5921 150.177L47.0003 150.412L48.5564 151.335L54.3829 154.84L74.536 167.054L74.6329 167.116L74.587 167.218L68.7809 179.412L68.7299 179.514L68.6227 179.478L67.0921 179.003C66.2911 178.774 65.5258 178.493 64.7554 178.213L62.4594 177.396L57.9543 175.789L49.4799 172.764L35.1278 167.662L25.4595 164.177L22.837 163.218L22.1584 162.963C22.0796 162.93 22.0029 162.893 21.9288 162.85Z" fill="#455A64"/>
<path d="M43.4853 183.856C43.2567 183.664 43.0403 183.458 42.8373 183.239L41.1434 181.489C39.72 180.004 37.7659 177.917 35.6179 175.647L33.4598 173.336L33.3424 173.208L33.4955 173.132L38.7914 170.581L40.322 169.856C40.5046 169.764 40.6939 169.685 40.8883 169.621C40.7296 169.743 40.5586 169.847 40.3781 169.933L38.8934 170.688L33.6383 173.341L33.674 173.137L35.8424 175.443C37.9904 177.734 39.924 179.82 41.3118 181.341L42.9445 183.147C43.1461 183.366 43.3271 183.604 43.4853 183.856Z" fill="#455A64"/>
<path d="M78.6881 150.019C78.7187 150.086 74.4228 151.953 69.0963 154.182C63.7697 156.412 59.433 158.172 59.4024 158.106C59.3718 158.04 63.6677 156.172 68.9942 153.938C74.3207 151.703 78.6881 149.948 78.6881 150.019Z" fill="#455A64"/>
<path d="M52.1584 97.4476C51.7962 97.4476 39.2094 97.3302 36.6686 99.871C34.1278 102.412 28.8523 141.325 28.8523 141.325C31.5666 141.835 33.3319 142.856 34.9747 143.662L56.3676 156.136L65.6278 151.325C65.9287 151.159 66.189 150.928 66.39 150.649C66.5909 150.37 66.7275 150.05 66.79 149.712C66.8524 149.373 66.8392 149.026 66.7511 148.693C66.6631 148.361 66.5025 148.052 66.2809 147.789L78.6023 103.254C76.7781 101.869 74.7553 100.769 72.6023 99.9884C68.9951 98.6618 52.1584 97.4476 52.1584 97.4476Z" fill="#455A64"/>
<path d="M74.4588 101.58C74.4588 101.58 78.2445 102.417 79.6935 104.753C83.0915 110.228 93.5302 129.672 95.2853 134.345C97.1425 139.279 95.1476 142.085 93.8057 144.167C92.3619 146.406 84.4282 146.401 80.8313 142.559C79.3007 140.906 70.6986 133.116 70.6986 133.116L74.4588 101.58Z" fill="#455A64"/>
<path d="M78.7654 108.799C78.728 108.93 78.6802 109.058 78.6226 109.182L78.1583 110.263C77.7756 111.207 77.2399 112.58 76.6277 114.294C75.393 117.728 73.8828 122.529 72.2808 127.855C70.6787 133.182 69.2859 138.003 68.2501 141.523C67.7399 143.273 67.3012 144.687 66.9899 145.656L66.6226 146.773C66.5871 146.905 66.5393 147.033 66.4797 147.156C66.4999 147.021 66.5306 146.888 66.5716 146.758C66.6532 146.476 66.7603 146.098 66.893 145.625C67.1787 144.605 67.5767 143.207 68.0716 141.472C69.0614 137.962 70.4287 133.115 72.0257 127.779C73.6226 122.442 75.1685 117.651 76.4491 114.233C77.0869 112.518 77.6532 111.171 78.0665 110.222L78.5767 109.161C78.6273 109.034 78.6906 108.913 78.7654 108.799Z" fill="#263238"/>
<path d="M37.2709 99.427C37.2709 99.427 33.2964 101.687 31.8424 102.998C30.3883 104.31 15.3679 125.743 13.4444 132.422C12.3271 136.289 16.5873 144.289 21.1791 143.901C27.1842 143.391 49.7148 134.754 49.7148 134.754L44.6587 123.748L31.9036 125.789L41.1638 116.483L37.7097 99.177" fill="#455A64"/>
<path d="M90.709 132.049C90.6293 132.012 90.554 131.966 90.4845 131.912L89.862 131.483L87.6018 129.871C85.7039 128.493 83.0916 126.57 80.2141 124.432L78.2906 122.998L78.4692 122.973C76.6375 125.366 75.0049 127.452 73.8161 128.927C73.2215 129.746 72.5574 130.512 71.8314 131.218L73.6835 128.82L78.2753 122.815L78.3518 122.713L78.4539 122.789L80.3824 124.218C83.26 126.355 85.8518 128.299 87.7243 129.723L89.9131 131.401L90.5049 131.871C90.5794 131.922 90.6479 131.982 90.709 132.049Z" fill="#263238"/>
<path d="M55.0509 119.856L44.9489 124.381L48.9795 133.142L55.2958 128.973L55.0509 119.856Z" fill="#FFC3BC"/>
<path d="M64.5976 120.714L71.3578 116.122C71.5953 115.959 71.882 115.883 72.169 115.907L81.0058 116.663C81.1785 116.677 81.3392 116.757 81.455 116.886C81.5707 117.015 81.6327 117.183 81.6282 117.356C81.6378 117.531 81.6095 117.705 81.5452 117.867C81.4809 118.029 81.3821 118.175 81.2558 118.295L66.9037 128.28L56.1895 126.581L64.5976 120.714Z" fill="#E0E0E0"/>
<path d="M55.0516 119.856C55.0516 119.856 58.6996 117.152 59.5567 117.004C60.4139 116.856 64.2659 116.871 64.2659 116.871L67.5108 118.723L65.5006 120.085C64.1077 119.779 63.7098 119.238 63.7098 119.238L61.4649 119.386L55.0516 119.856Z" fill="#FFC3BC"/>
<path d="M59.1536 118.682L64.9138 120.687L73.1995 121.855C73.2143 122.318 73.0512 122.769 72.7438 123.115C72.4363 123.462 72.0079 123.677 71.5465 123.717C70.5261 123.825 68.8016 123.942 68.8016 123.942C68.8016 123.942 68.3781 125.472 67.0873 125.804C66.7915 126.385 66.3655 126.89 65.8424 127.279C65.7629 127.328 65.6771 127.365 65.5873 127.391C64.7914 127.62 63.2047 129.779 62.1434 130.069C61.0822 130.36 55.2863 128.993 55.2863 128.993L55.0414 119.881L59.1536 118.682Z" fill="#FFC3BC"/>
<path d="M60.8322 123.387C60.8322 123.361 61.2913 123.484 62.0209 123.632C62.9792 123.822 63.949 123.948 64.924 124.009C65.8956 124.077 66.8707 124.077 67.8424 124.009C68.5924 123.958 69.0515 123.892 69.0566 123.918C68.9526 123.955 68.8448 123.98 68.7352 123.994C68.5311 124.035 68.225 124.081 67.8526 124.122C66.8762 124.222 65.893 124.239 64.9138 124.173C63.9322 124.114 62.9575 123.971 62.0005 123.744C61.6332 123.657 61.3373 123.576 61.1383 123.509C61.032 123.48 60.9293 123.439 60.8322 123.387Z" fill="#8E4842"/>
<path d="M61.9636 125.747C61.9878 125.94 61.9686 126.135 61.9074 126.319C61.8553 126.529 61.7478 126.721 61.5962 126.875C61.4941 126.965 61.3752 127.033 61.2464 127.076C61.1177 127.119 60.9816 127.135 60.8462 127.125C60.5861 127.104 60.3329 127.031 60.1013 126.911C59.8922 126.804 59.7187 126.691 59.5656 126.61C59.2697 126.431 59.0554 126.365 59.0554 126.339C59.2466 126.351 59.4322 126.409 59.5962 126.508C59.9757 126.74 60.3969 126.896 60.836 126.967C60.951 126.978 61.067 126.966 61.1773 126.931C61.2876 126.897 61.3901 126.842 61.4789 126.768C61.6191 126.635 61.7228 126.468 61.7799 126.283C61.8307 126.101 61.892 125.922 61.9636 125.747Z" fill="#8E4842"/>
<path d="M66.2256 126.3C66.0227 126.381 65.81 126.436 65.5929 126.463C65.0865 126.553 64.5755 126.616 64.0623 126.652C63.5406 126.681 63.0177 126.681 62.496 126.652C62.2778 126.656 62.0601 126.632 61.848 126.58C61.848 126.529 62.8378 126.58 64.0521 126.473C65.2664 126.366 66.2154 126.269 66.2256 126.3Z" fill="#8E4842"/>
<path d="M61.8528 128.709C61.5774 128.926 61.2506 129.069 60.9038 129.124C60.557 129.178 60.202 129.143 59.8732 129.02C59.8732 128.969 60.3324 129.056 60.8936 128.969C61.4548 128.882 61.8528 128.668 61.8528 128.709Z" fill="#8E4842"/>
<path d="M63.929 128.605C63.929 128.646 63.6586 128.717 63.3117 128.768C63.1003 128.818 62.8802 128.818 62.6688 128.768C62.8604 128.665 63.0738 128.609 63.2913 128.605C63.6382 128.564 63.9239 128.559 63.929 128.605Z" fill="#8E4842"/>
<path d="M64.9132 120.687C63.988 120.468 63.0846 120.166 62.2142 119.784C61.4795 119.498 60.8214 119.228 60.352 119.013C60.0901 118.916 59.8415 118.786 59.6122 118.626C59.8787 118.703 60.1395 118.798 60.3928 118.911L62.2704 119.636L64.1428 120.365C64.6326 120.534 64.9132 120.646 64.9132 120.687Z" fill="#8E4842"/>
<path d="M73.3784 122.728C73.3784 122.728 72.7406 122.508 73.4294 121.503C74.1181 120.498 76.0467 121.718 76.0467 121.718L78.511 123.182C78.511 123.182 79.062 124.463 78.3784 124.804L77.8682 125.427C77.8682 125.427 78.8324 126.401 78.4447 127.253C78.3242 127.499 78.1306 127.702 77.8903 127.834C77.6501 127.965 77.375 128.019 77.1029 127.988C77.1029 127.988 77.2151 129.713 76.6539 130.376C76.3935 130.736 76.0139 130.993 75.5824 131.1C75.4023 131.557 75.115 131.964 74.7447 132.286C74.3744 132.608 73.932 132.837 73.4549 132.952C71.8018 133.376 70.9345 133.406 70.4855 132.707C70.1829 132.211 69.9381 131.683 69.7559 131.131C69.7559 131.131 66.21 129.269 66.1335 128.325C66.0569 127.381 66.2202 127.304 66.2202 127.304C66.1414 127.084 66.1072 126.85 66.1194 126.616C66.1317 126.382 66.1902 126.153 66.2916 125.942C66.6488 125.366 68.0569 125.871 68.0569 125.871L72.5824 126.932C72.5824 126.932 68.96 125.233 68.5314 124.677C68.1028 124.121 68.562 123.437 70.0161 123.61C71.4702 123.784 75.863 124.605 75.863 124.605C75.7502 124.373 75.5732 124.179 75.3528 124.044C75.062 123.922 74.1539 123.396 74.1539 123.396L73.3784 122.728Z" fill="#FFC3BC"/>
<path d="M74.459 129.601C74.459 129.641 72.6121 129.172 70.3774 128.555C68.1427 127.937 66.2958 127.396 66.3213 127.356C66.3468 127.315 68.1682 127.784 70.4029 128.402C72.6376 129.019 74.4693 129.56 74.459 129.601Z" fill="#8E4842"/>
<path d="M72.3019 132.065C71.8486 132.011 71.4043 131.898 70.9805 131.728C70.6736 131.628 70.3722 131.512 70.0774 131.381C69.9849 131.341 69.8961 131.294 69.8121 131.238C69.7895 131.222 69.7689 131.203 69.7509 131.182C69.7509 131.182 69.7509 131.136 69.7509 131.146C69.7509 131.157 70.3121 131.34 71.0213 131.575C71.4631 131.696 71.892 131.86 72.3019 132.065Z" fill="#8E4842"/>
<path d="M76.1786 127.61C76.1786 127.651 75.2857 127.472 74.1939 127.294C73.102 127.115 72.2092 126.998 72.2143 126.952C72.8875 126.942 73.5598 127.005 74.2194 127.141C74.888 127.223 75.5452 127.381 76.1786 127.61Z" fill="#8E4842"/>
<path d="M77.2875 125.28C77.2569 125.321 76.8997 125.065 76.3997 124.887C75.8997 124.708 75.4661 124.662 75.4661 124.616C75.8008 124.556 76.146 124.598 76.4559 124.739C76.7807 124.832 77.0703 125.021 77.2875 125.28Z" fill="#8E4842"/>
<path d="M81.2412 117.484H81.0779L80.6034 117.427C80.1953 117.371 79.583 117.295 78.8738 117.213C77.4095 117.045 75.3789 116.866 73.1289 116.815C72.598 116.743 72.0575 116.806 71.5575 116.999C71.3352 117.127 71.1206 117.269 70.9147 117.422L70.3024 117.856L68.1851 119.351L66.7514 120.346L66.3534 120.611C66.2667 120.672 66.2157 120.698 66.2106 120.693C66.2509 120.655 66.2935 120.619 66.3381 120.586L66.7157 120.3L68.1238 119.279L70.2208 117.749L70.8279 117.31C71.0393 117.152 71.259 117.006 71.4861 116.871C71.7374 116.742 72.0149 116.672 72.2973 116.667C72.5779 116.667 72.8534 116.667 73.134 116.667C75.0571 116.715 76.9764 116.863 78.884 117.111C79.6187 117.208 80.2106 117.305 80.6136 117.376L81.083 117.463C81.1365 117.462 81.1899 117.468 81.2412 117.484Z" fill="#263238"/>
<path d="M75.7049 118.269C75.6566 118.205 75.5914 118.156 75.5165 118.127C75.4416 118.098 75.3602 118.091 75.2814 118.106H75.21C75.0757 118.129 74.9534 118.198 74.863 118.3C74.8096 118.365 74.7804 118.447 74.7804 118.532C74.7804 118.616 74.8096 118.698 74.863 118.764C74.9309 118.83 75.0189 118.871 75.113 118.881C75.2022 118.899 75.2941 118.896 75.3823 118.874C75.4704 118.852 75.5526 118.811 75.6232 118.754C75.6849 118.691 75.7258 118.611 75.7404 118.524C75.755 118.438 75.7426 118.349 75.7049 118.269Z" fill="white"/>
<path d="M55.6182 69.2082L54.6386 68.698C54.2026 68.3962 53.668 68.2721 53.1437 68.351C52.659 68.4888 52.3222 68.9531 51.8222 69.0041C51.2406 69.0704 50.761 68.5449 50.1794 68.5755C49.5977 68.6061 49.1947 69.0857 48.6488 69.0857C48.2406 69.0857 47.8069 68.7949 47.4549 68.9939C47.3835 69.0347 47.3222 69.0908 47.2559 69.1367C47.0407 69.2359 46.8044 69.2808 46.5678 69.2675C46.3312 69.2541 46.1015 69.183 45.8988 69.0602C45.4926 68.8124 45.0074 68.7285 44.5416 68.8255C44.2696 68.9625 44.0296 69.1555 43.8375 69.3918C43.7371 69.509 43.6102 69.6006 43.4674 69.6592C43.3246 69.7177 43.1699 69.7415 43.0161 69.7286C42.8477 69.6929 42.71 69.5857 42.5416 69.5449C42.0314 69.4122 41.5773 69.9735 41.0416 70.1163C40.5059 70.2592 39.9702 70.0041 39.511 70.2286C39.3423 70.3153 39.2109 70.4605 39.1414 70.637C39.0719 70.8135 39.0691 71.0093 39.1335 71.1878C39.2154 71.3633 39.3393 71.5161 39.494 71.6326C39.6488 71.7491 39.8298 71.8259 40.0212 71.8561C40.4219 71.9268 40.8339 71.897 41.2202 71.7694C41.5267 71.6417 41.8529 71.5675 42.1845 71.55C42.9447 71.5755 43.5416 72.3612 44.2865 72.198C44.6299 72.0704 44.9428 71.8722 45.2049 71.6163C45.6361 71.3063 46.1534 71.1387 46.6845 71.1367C47.0336 71.1826 47.3882 71.1636 47.7304 71.0806C48.1335 70.9174 48.3631 70.4939 48.7814 70.3816C49.1998 70.2694 49.6794 70.5398 50.1437 70.4939C50.4447 70.4684 50.7253 70.3 51.0314 70.2847C51.4651 70.2592 51.858 70.5398 52.2916 70.5041C52.7253 70.4684 53.108 70.101 53.5518 70.1367C53.7256 70.1675 53.8964 70.2136 54.062 70.2745C54.1469 70.3043 54.2377 70.313 54.3266 70.2996C54.4156 70.2863 54.4999 70.2514 54.5722 70.198C54.6692 70.1061 54.6998 69.9582 54.8171 69.8918C54.9105 69.8525 55.0136 69.8418 55.1131 69.8612L56.5518 70.0092L55.6182 69.2082Z" fill="#263238"/>
<path d="M57.1641 69.1566C56.6794 68.7995 56.0315 68.427 55.4855 68.7281C55.2866 68.8352 55.1386 69.0138 54.9396 69.1107C54.4805 69.325 53.9192 69.0444 53.4396 69.177C53.0264 69.2944 52.7509 69.6873 52.3682 69.8658C51.7509 70.1719 50.8376 69.9934 50.4601 70.5342C50.2509 70.8301 50.2152 71.3046 49.8529 71.3862C49.7219 71.3994 49.5895 71.3837 49.4651 71.3403C49.024 71.2323 48.5651 71.2184 48.1182 71.2995C47.8629 71.3335 47.6214 71.4358 47.4192 71.5954C47.0519 71.9271 47.0417 72.4934 46.6896 72.8403C46.1794 73.3505 45.2253 73.1107 44.5519 73.4424C44.2503 73.6326 43.9742 73.8607 43.7305 74.1209C43.1924 74.5351 42.6107 74.8893 41.9958 75.1771C41.3784 75.4613 40.8495 75.9073 40.4651 76.4679C40.2862 76.7357 40.2075 77.0581 40.2429 77.3782C40.2784 77.6984 40.4258 77.9957 40.659 78.2179C40.777 78.3211 40.9265 78.3813 41.083 78.3887C41.2396 78.3961 41.3941 78.3503 41.5213 78.2587C41.5978 78.1873 41.6488 78.0852 41.7203 78.0036C41.8972 77.8645 42.1001 77.7621 42.3172 77.7026C42.5264 77.6209 42.7458 77.4628 42.7458 77.2485C42.7458 77.1158 42.6692 76.9577 42.7764 76.8658C42.8237 76.8353 42.8783 76.8177 42.9345 76.8148C43.4754 76.7587 44.1386 76.7842 44.4294 76.3454C44.526 76.1381 44.5996 75.9208 44.6488 75.6975C44.7248 75.5142 44.8445 75.3524 44.9975 75.2261C45.1504 75.0998 45.332 75.0129 45.5264 74.973C45.858 74.8964 46.2304 74.9475 46.4958 74.7434C46.7611 74.5393 46.807 74.075 47.0774 73.8199C47.5315 73.3913 48.4294 73.7026 48.8376 73.2383C48.9396 73.1209 48.9958 72.973 49.1233 72.8862C49.4907 72.6464 49.9345 73.1413 50.3682 73.0597C50.8019 72.9781 50.8784 72.5495 51.1386 72.3046C51.5257 72.0461 51.9509 71.8498 52.3988 71.723C52.9345 71.4628 53.3223 70.9577 53.8886 70.7893C54.3988 70.6413 54.9804 70.7434 55.3427 70.3964C55.4804 70.2638 55.5774 70.075 55.7662 70.0138C55.8772 69.9908 55.9918 69.9908 56.1029 70.0138C56.6633 70.0871 57.2322 69.9723 57.7202 69.6872L57.1641 69.1566Z" fill="#263238"/>
<path d="M56.3375 70.4524C55.7213 70.3462 55.0889 70.3829 54.4891 70.5598C53.8893 70.7368 53.3382 71.0491 52.8783 71.4728C52.6879 71.6751 52.4677 71.8472 52.2253 71.983C51.8118 72.1053 51.38 72.1537 50.9498 72.1259C50.4723 72.1786 50.02 72.3671 49.6465 72.6692C49.273 72.9712 48.994 73.3741 48.8426 73.83C48.6488 74.4167 48.5773 75.1871 48.011 75.3912C47.9039 75.4187 47.7997 75.4563 47.6998 75.5034C47.3222 75.7381 47.5824 76.3402 47.5773 76.8045C47.5773 77.5698 46.7202 78.0953 46.6896 78.8453C46.6974 79.1268 46.7653 79.4033 46.8886 79.6565C47.1845 80.3878 47.5093 81.1021 47.863 81.7994C48.0212 82.1106 48.2304 82.4575 48.5671 82.5034C49.0773 82.5698 49.3528 81.9932 49.4957 81.483C49.6377 81.1437 49.6486 80.7637 49.5263 80.4167C49.3834 80.1463 49.0926 79.9881 48.9651 79.7075C48.7661 79.2636 49.0875 78.7688 49.3171 78.3453C49.7802 77.4854 49.9196 76.488 49.71 75.5341C50.2202 75.4371 50.4906 74.7126 51.0212 74.6106C51.1703 74.6023 51.3186 74.5835 51.4651 74.5545C51.8171 74.4116 51.8579 73.8759 52.1692 73.6565C52.4804 73.4371 53.1896 73.6055 53.363 73.1718C53.4141 73.0341 53.3885 72.8708 53.4753 72.7586C53.5468 72.6756 53.647 72.6227 53.7559 72.6106L55.0416 72.2892C55.2914 72.2487 55.5268 72.1451 55.7253 71.9881C56.0569 71.6718 56.1079 71.0698 56.5263 70.9065L56.3375 70.4524Z" fill="#263238"/>
<path d="M57.6997 67.8966C57.6487 67.1415 57.5059 66.2333 56.8375 65.9272C56.4446 65.7435 55.965 65.8404 55.5773 65.6415C54.8324 65.269 54.7712 64.0649 54.0467 63.6823C53.3222 63.2996 52.3528 63.8915 51.7712 63.3302C51.4701 63.0394 51.4293 62.5547 51.1844 62.2129C51.0194 62.0302 50.8167 61.8854 50.5904 61.7885C50.364 61.6916 50.1193 61.6449 49.8732 61.6517C49.3859 61.6725 48.8988 61.6069 48.4344 61.4578C47.6691 61.121 47.1793 60.1721 46.3579 60.1057C45.6589 60.0547 45.113 60.667 44.6742 61.2282C44.5529 61.3613 44.467 61.5227 44.4242 61.6976C44.4174 61.8561 44.4566 62.0133 44.5372 62.15C44.6178 62.2867 44.7363 62.3972 44.8783 62.468C45.4344 62.7945 46.1487 62.7435 46.664 63.1261C46.8387 63.2886 47.0245 63.4386 47.2201 63.5751C47.5161 63.7333 47.8885 63.6976 48.1742 63.8761C48.7303 64.218 48.7201 65.1517 49.2763 65.4986C49.8324 65.8455 50.4804 65.4374 51.0824 65.5751C51.8987 65.769 52.3477 66.9068 53.1844 66.9374C53.5501 66.8824 53.9115 66.8023 54.2661 66.6976C54.5053 66.6827 54.7436 66.7399 54.95 66.8617C55.1565 66.9836 55.3216 67.1646 55.4242 67.3812C55.5569 67.667 55.5773 68.0037 55.7355 68.2792C55.8396 68.4469 55.9805 68.5888 56.1476 68.694C56.3147 68.7992 56.5035 68.8649 56.6997 68.8863C57.0852 68.9254 57.4744 68.903 57.8528 68.82L57.6997 67.8966Z" fill="#263238"/>
<path d="M57.0673 70.2483C56.5571 69.284 55.9295 68.2534 54.8836 67.8044C54.3313 67.6501 53.7894 67.461 53.2611 67.238C52.8428 66.9931 52.5468 66.6003 52.154 66.3197C51.2407 65.6717 49.9805 65.7125 48.8581 65.8911C47.7356 66.0697 46.5775 66.3503 45.4754 66.0799C44.4856 65.835 43.6234 65.1666 42.6081 65.1054C42.0537 65.1069 41.5034 65.2018 40.9805 65.386L39.1336 65.8962C38.9324 65.934 38.7514 66.0426 38.6234 66.2023C38.4244 66.534 38.8122 66.9166 39.1795 67.0697C39.7826 67.3202 40.4452 67.3911 41.0877 67.2738C41.5816 67.1129 42.0989 67.0353 42.6183 67.0442C42.964 67.1348 43.3046 67.2438 43.6387 67.3707C44.0758 67.4473 44.523 67.4473 44.9601 67.3707L47.0009 67.1564C47.5219 67.0555 48.0607 67.1014 48.5571 67.2891C48.9244 67.4676 49.2152 67.7993 49.6234 67.8503C50.0315 67.9013 50.5111 67.5646 50.9652 67.6309C51.506 67.7176 51.7764 68.3197 52.2713 68.5493C52.853 68.8197 53.6183 68.5034 54.1795 68.8146C54.5622 69.0238 54.7254 69.4523 54.9703 69.8044C55.1747 70.0998 55.4411 70.347 55.7509 70.5289C56.165 70.7458 56.6059 70.9071 57.0621 71.0085L57.0673 70.2483Z" fill="#263238"/>
<path d="M58.1475 65.9629C57.9026 65.6261 57.5301 65.2843 57.6373 64.8761C57.6883 64.6772 57.8516 64.5139 57.8873 64.3098C57.9485 63.9425 57.5761 63.6568 57.4383 63.2894C57.3006 62.9221 57.4383 62.371 57.2036 61.9935C56.9689 61.6159 56.4281 61.5394 55.9791 61.4272C55.7297 61.3844 55.4947 61.2805 55.2952 61.1247C55.0958 60.9689 54.9381 60.766 54.8363 60.5343C54.7828 60.197 54.7622 59.8552 54.775 59.5139C54.6954 59.0775 54.4676 58.6819 54.1303 58.3937C53.7929 58.1056 53.3665 57.9427 52.923 57.9323C52.6647 57.953 52.4048 57.9235 52.1577 57.8455C51.724 57.6414 51.6475 57.0853 51.3771 56.6721C51.2109 56.3881 50.9624 56.1615 50.6644 56.022C50.3665 55.8826 50.0332 55.8371 49.7087 55.8914C49.4026 55.9527 49.0659 56.2741 49.2444 56.5292C49.3159 56.6312 49.4485 56.6721 49.5455 56.7537C49.8924 57.0496 49.6424 57.6465 49.8465 58.0496C50.0506 58.4527 50.7036 58.5598 50.9026 58.9884C51.0557 59.32 50.8771 59.7333 51.0199 60.07C51.1985 60.4833 51.7342 60.5802 52.1832 60.5802C52.6322 60.5802 53.1679 60.7027 53.3363 61.0904C53.3883 61.2801 53.4174 61.4754 53.423 61.6721C53.4525 61.8431 53.5206 62.0051 53.6223 62.1457C53.724 62.2863 53.8566 62.4018 54.0097 62.4833C54.4434 62.7027 55.0301 62.6619 55.3108 63.0751C55.5914 63.4884 55.1832 64.1976 55.4434 64.6823C55.6322 65.0343 56.0863 65.1261 56.4281 65.3404C56.5103 65.3847 56.5737 65.4572 56.6067 65.5445C56.6164 65.6389 56.5949 65.7339 56.5455 65.8149C56.2751 66.3659 55.9332 66.9986 56.1934 67.5496C56.3178 67.7644 56.4763 67.9574 56.6628 68.121C57.2199 68.6931 57.6266 69.3942 57.8465 70.1619L58.321 68.0853C58.4811 67.7475 58.5493 67.3734 58.5189 67.0008C58.4884 66.6282 58.3603 66.2702 58.1475 65.9629Z" fill="#263238"/>
<path d="M60.7813 58.9533C60.8748 58.6566 60.8663 58.3372 60.7572 58.046C60.6481 57.7547 60.4446 57.5084 60.1792 57.3462C60.0424 57.2747 59.892 57.233 59.7379 57.2236C59.5838 57.2143 59.4294 57.2376 59.2849 57.292C59.1405 57.3465 59.0091 57.4308 58.8995 57.5394C58.7898 57.6481 58.7043 57.7787 58.6486 57.9227C58.4445 58.6012 59.016 59.3972 58.6486 60.0094C58.5238 60.1564 58.4191 60.3194 58.3374 60.4941C58.2098 60.9431 58.7711 61.3206 58.7762 61.79C58.7813 62.2594 58.1282 62.591 57.9955 63.091C57.8629 63.591 58.419 64.2696 58.2098 64.8257C58.1371 64.9757 58.0463 65.1162 57.9394 65.2441C57.3425 66.1217 57.6486 67.2849 57.9751 68.3053L59.3272 68.1064C59.0772 67.1676 60.3986 66.2288 59.9496 65.3717C59.7353 64.9635 59.1486 64.6676 59.2813 64.2237C59.3268 64.1083 59.3963 64.004 59.4853 63.9176L60.7455 62.54C60.9523 62.357 61.0938 62.1117 61.1486 61.841C61.2047 61.2441 60.4598 60.8564 60.3629 60.2594C60.3221 59.79 60.6435 59.3768 60.7813 58.9533Z" fill="#263238"/>
<path d="M61.2444 66.6053C61.1168 66.1614 60.5403 66.0288 60.0862 66.0951C58.8311 66.289 57.9127 67.34 57.1117 68.3196C56.1976 69.3767 55.3685 70.5043 54.6321 71.692C54.458 71.9504 54.3398 72.2424 54.2852 72.5492C54.2589 72.7027 54.2743 72.8604 54.33 73.0058C54.3857 73.1513 54.4794 73.279 54.6015 73.3757C54.6643 73.4196 54.7355 73.4498 54.8107 73.4643C54.8859 73.4788 54.9633 73.4774 55.0378 73.4601C55.1124 73.4428 55.1825 73.41 55.2436 73.3638C55.3047 73.3176 55.3553 73.2591 55.3923 73.192L55.7648 73.1002C56.9865 71.0308 58.6061 69.2239 60.5301 67.7839C60.9229 67.4778 61.377 67.0645 61.2444 66.6053Z" fill="#4C5BD4"/>
<path d="M54.3418 85.7992C53.9732 83.3239 53.8179 80.8215 53.8775 78.3196C53.9436 75.81 54.6308 73.3558 55.8775 71.1768C56.0765 70.8502 57.6377 68.7278 58 68.8349C58.2602 68.9115 57.153 70.9625 57.2449 71.2176C58.0918 73.6615 57.9234 76.3706 57.2449 78.8706C56.5442 81.2857 55.5756 83.6148 54.3571 85.8145" fill="#263238"/>
<path d="M65.4596 102.095C65.8168 100.365 66.1025 99.0028 66.1178 99.0028C66.1331 99.0028 72.1841 99.564 73.7249 93.7426C74.4698 90.9314 75.526 85.0181 76.4239 79.6559C76.8944 76.8723 76.2986 74.0137 74.7554 71.6497C73.2123 69.2858 70.835 67.5901 68.0974 66.9008L67.5311 66.7579C61.3678 65.5895 56.929 70.1661 55.929 76.3599L51.7402 97.9109L61.3423 108.003L65.4596 102.095Z" fill="#FFC3BC"/>
<path d="M66.1175 99.0023C63.4229 98.3177 60.9811 96.8746 59.0818 94.8442C59.0818 94.8442 59.8675 99.5585 65.8216 100.497L66.1175 99.0023Z" fill="#8E4842"/>
<path d="M73.4451 84.2894C73.3929 84.5084 73.2566 84.6981 73.0657 84.8174C72.8747 84.9368 72.6445 84.9762 72.4247 84.9271C72.3165 84.9088 72.2131 84.8689 72.1205 84.8099C72.028 84.7509 71.9482 84.6739 71.8859 84.5836C71.8236 84.4932 71.78 84.3913 71.7578 84.2838C71.7355 84.1763 71.735 84.0654 71.7564 83.9578C71.8098 83.7394 71.9463 83.5506 72.1369 83.4315C72.3275 83.3123 72.5571 83.2723 72.7768 83.32C72.8853 83.3377 72.9891 83.3771 73.0821 83.436C73.175 83.4948 73.255 83.5718 73.3175 83.6623C73.3799 83.7528 73.4234 83.8551 73.4453 83.9628C73.4673 84.0706 73.4672 84.1817 73.4451 84.2894Z" fill="#263238"/>
<path d="M74.5678 81.7642C74.4403 81.8458 73.925 81.2234 73.0372 80.9989C72.1494 80.7744 71.3688 81.0601 71.2974 80.9223C71.2668 80.8611 71.4199 80.6927 71.7566 80.555C72.2145 80.387 72.7127 80.3621 73.1851 80.4835C73.6521 80.5988 74.0702 80.8597 74.379 81.2285C74.6086 81.5091 74.6341 81.7285 74.5678 81.7642Z" fill="#263238"/>
<path d="M65.3074 82.7232C65.2551 82.9425 65.1191 83.1325 64.9283 83.2527C64.7376 83.3728 64.5074 83.4135 64.287 83.366C64.1788 83.3477 64.0754 83.3078 63.9828 83.2488C63.8903 83.1898 63.8105 83.1128 63.7482 83.0225C63.6859 82.9321 63.6423 82.8301 63.6201 82.7227C63.5978 82.6152 63.5973 82.5043 63.6187 82.3967C63.6709 82.1776 63.8072 81.9879 63.9982 81.8686C64.1891 81.7493 64.4193 81.7099 64.6391 81.7589C64.7471 81.7766 64.8504 81.8159 64.9429 81.8744C65.0355 81.9329 65.1153 82.0094 65.1776 82.0994C65.24 82.1894 65.2836 82.2909 65.3059 82.3981C65.3282 82.5052 65.3287 82.6158 65.3074 82.7232Z" fill="#263238"/>
<path d="M65.6899 79.918C65.5573 79.9996 65.042 79.3772 64.1593 79.1527C63.2766 78.9282 62.4909 79.2139 62.4195 79.0761C62.3838 79.02 62.5369 78.8465 62.8787 78.7139C63.3338 78.5414 63.8312 78.5147 64.3022 78.6374C64.7702 78.7499 65.1892 79.0113 65.4961 79.3823C65.7103 79.6629 65.7511 79.8721 65.6899 79.918Z" fill="#263238"/>
<path d="M67.1731 87.6205C67.6856 87.5902 68.1998 87.6245 68.7037 87.7225C68.9384 87.7583 69.168 87.7685 69.2445 87.6205C69.3188 87.3865 69.3188 87.1352 69.2445 86.9011C69.168 86.294 69.0915 85.6562 69.0047 84.9878C68.6884 82.2685 68.5252 80.0542 68.6323 80.044C68.7394 80.0338 69.0864 82.2276 69.4027 84.947C69.4792 85.6154 69.5456 86.2531 69.6119 86.8654C69.6864 87.1779 69.6484 87.5066 69.5047 87.794C69.4506 87.8653 69.3814 87.9238 69.302 87.9653C69.2226 88.0068 69.135 88.0301 69.0456 88.0338C68.9097 88.0389 68.7738 88.0234 68.6425 87.9878C68.1393 87.9273 67.6456 87.8039 67.1731 87.6205Z" fill="#263238"/>
<path d="M64.4035 87.5801C64.5514 87.6056 64.3065 88.6005 64.9698 89.4832C65.6331 90.3658 66.6943 90.5342 66.6637 90.6719C66.6331 90.8097 66.3882 90.8046 65.9443 90.7076C65.3726 90.5694 64.8672 90.2355 64.5157 89.7638C64.1782 89.312 64.03 88.7465 64.1025 88.1872C64.1433 87.7689 64.3117 87.5546 64.4035 87.5801Z" fill="#263238"/>
<path d="M66.5564 76.2643C66.4033 76.4888 65.536 76.147 64.4544 76.0092C63.3727 75.8715 62.4442 75.9429 62.3625 75.6878C62.3268 75.5705 62.5309 75.3766 62.934 75.2286C63.4643 75.0518 64.0282 74.9994 64.5821 75.0755C65.1359 75.1515 65.6648 75.3541 66.1278 75.6674C66.4748 75.9174 66.6227 76.1572 66.5564 76.2643Z" fill="#263238"/>
<path d="M74.9499 78.688C74.7407 78.8513 74.1744 78.489 73.4193 78.29C72.6642 78.091 72.0111 78.0808 71.9193 77.8308C71.8836 77.7135 72.0315 77.5349 72.358 77.4074C72.7862 77.2709 73.2451 77.264 73.6772 77.3874C74.1092 77.5109 74.4952 77.7592 74.7866 78.1013C75.0111 78.3768 75.0417 78.6064 74.9499 78.688Z" fill="#263238"/>
<path d="M55.3221 80.8309C55.2303 80.7646 51.6078 78.637 50.7303 82.6574C49.8527 86.6778 54.0772 86.7391 54.1078 86.6166C54.1385 86.4942 55.3221 80.8309 55.3221 80.8309Z" fill="#FFC3BC"/>
<path d="M53.2097 84.8248C53.2097 84.8248 53.1281 84.8605 53.0005 84.886C52.8236 84.9184 52.6411 84.8819 52.4903 84.784C52.0974 84.534 51.8883 83.7636 52.026 83.0544C52.0886 82.7073 52.23 82.3791 52.4393 82.0952C52.5037 81.9775 52.596 81.8773 52.708 81.8035C52.8201 81.7297 52.9485 81.6844 53.0821 81.6717C53.1673 81.6672 53.2514 81.6928 53.3195 81.7441C53.3877 81.7955 53.4355 81.8692 53.4546 81.9523C53.4852 82.0748 53.4546 82.1513 53.4546 82.1615C53.4546 82.1717 53.5566 82.1156 53.5617 81.9421C53.5611 81.8381 53.5251 81.7374 53.4597 81.6564C53.414 81.6022 53.358 81.5576 53.2949 81.5252C53.2319 81.4928 53.163 81.4733 53.0923 81.4677C52.9203 81.4657 52.7507 81.5072 52.599 81.5884C52.4474 81.6695 52.3187 81.7877 52.225 81.9319C51.9714 82.2411 51.7964 82.6069 51.7148 82.9983C51.5668 83.8146 51.8168 84.6666 52.3627 84.9626C52.4643 85.0161 52.5763 85.0466 52.691 85.0519C52.8056 85.0572 52.92 85.0371 53.026 84.9932C53.1791 84.9217 53.2199 84.835 53.2097 84.8248Z" fill="#8E4842"/>
<path d="M75.21 72.4332C75.9396 72.2087 74.4192 69.6883 72.9702 68.6271C70.7763 67.0251 67.2151 65.5659 64.8477 65.7444C62.0008 65.9434 59.4855 66.8159 57.6284 68.9842C55.8075 71.2059 54.6101 73.8718 54.159 76.7087C53.9474 77.5589 53.9668 78.4502 54.2151 79.2904C54.5926 80.3108 55.5569 81.0863 55.2355 82.3057C55.1739 82.5249 55.1566 82.7542 55.1847 82.9802C55.2127 83.2063 55.2855 83.4244 55.3988 83.622C55.9702 84.5608 57.0263 84.0097 57.5978 83.3567C58.812 81.9638 59.3018 80.1016 59.7559 78.3057C60.1517 77.0506 60.3362 75.7385 60.3018 74.423C60.2457 73.7087 60.062 73.0046 60.0416 72.2904C60.0121 71.9328 60.0601 71.573 60.1825 71.2358C60.3049 70.8985 60.4988 70.5917 60.7508 70.3363C60.8749 70.2396 61.0062 70.1526 61.1437 70.0761C61.808 69.7019 62.5601 69.5118 63.3224 69.5252C64.0848 69.5387 64.8297 69.7552 65.4804 70.1526C67.5824 71.4281 71.21 73.4332 72.3835 72.8771C74.0723 72.071 74.5722 71.423 74.5722 71.423L75.21 72.4332Z" fill="#263238"/>
<path d="M32.3167 141.065C32.42 141.006 32.5295 140.958 32.6433 140.923L33.5973 140.55L37.1994 139.203L49.6688 134.611L49.5974 134.785C48.5769 132.535 47.4341 130.086 46.2606 127.55L44.5412 123.8L44.679 123.871L32.1892 125.79C29.9158 126.429 27.7433 127.384 25.7351 128.627C25.0208 129.065 24.4851 129.443 24.1178 129.698L23.7096 129.994C23.6659 130.033 23.6159 130.064 23.5616 130.086L23.6892 129.968L24.082 129.652C24.4341 129.377 24.9647 128.984 25.6739 128.53C27.6727 127.243 29.8487 126.254 32.1331 125.596L44.6178 123.647H44.7147L44.7606 123.734C45.3167 124.953 45.8984 126.208 46.4851 127.484C47.6484 130.035 48.7759 132.468 49.8065 134.724L49.8678 134.846L49.7351 134.897L37.23 139.387L33.6076 140.667L32.6382 140.999L32.3167 141.065Z" fill="#263238"/>
<path d="M39.7912 118.137C39.4906 118.586 39.149 119.006 38.7708 119.392C38.1075 120.142 37.179 121.162 36.1228 122.27C35.0667 123.377 34.082 124.351 33.3422 125.02C33.0512 125.292 32.7408 125.542 32.4136 125.77C32.2861 125.841 32.1994 125.912 32.0871 125.892C32.0746 125.878 32.0676 125.86 32.0676 125.841C32.0676 125.822 32.0746 125.804 32.0871 125.79V125.764C32.0871 125.764 32.0871 125.831 32.1177 125.841C32.2089 125.807 32.2922 125.755 32.3626 125.688C32.5718 125.514 32.8728 125.234 33.2198 124.887C33.929 124.183 34.8881 123.188 35.9392 122.086L38.6432 119.264C38.9947 118.858 39.3786 118.481 39.7912 118.137Z" fill="#263238"/>
<path d="M42.2203 113.096C42.1641 113.096 42.3274 112.295 42.3274 111.004C42.3258 110.252 42.2609 109.501 42.1335 108.76C41.8245 106.936 41.1549 105.193 40.1641 103.632C39.7574 102.996 39.3001 102.394 38.7968 101.831C37.9295 100.877 37.2662 100.397 37.3172 100.356C37.4859 100.443 37.6435 100.549 37.7866 100.673C37.9658 100.803 38.1362 100.944 38.2968 101.096C38.5198 101.287 38.7327 101.49 38.9345 101.703C39.4661 102.257 39.946 102.858 40.3682 103.499C40.8787 104.288 41.3094 105.125 41.6539 105.999C41.9825 106.88 42.2251 107.791 42.3784 108.719C42.4947 109.476 42.5408 110.243 42.5162 111.01C42.5095 111.303 42.4874 111.596 42.4499 111.887C42.4335 112.109 42.4011 112.328 42.3529 112.545C42.3311 112.734 42.2866 112.919 42.2203 113.096Z" fill="#263238"/>
<path d="M55.2196 151.141C55.2196 151.095 55.8625 151.141 56.8931 151.141C59.5843 151.079 62.211 150.304 64.5053 148.896C65.3829 148.386 65.8829 147.957 65.9135 147.993C65.9441 148.029 65.8114 148.121 65.592 148.315C65.2788 148.581 64.95 148.828 64.6073 149.054C63.4716 149.808 62.2301 150.389 60.9237 150.779C59.6153 151.163 58.2566 151.349 56.8931 151.33C56.4818 151.327 56.0711 151.298 55.6635 151.243C55.5115 151.23 55.362 151.196 55.2196 151.141Z" fill="#263238"/>
<path d="M62.8121 139.877C62.7168 140.035 62.6019 140.181 62.4703 140.31C62.2407 140.581 61.8938 140.958 61.4499 141.422C60.5774 142.346 59.3274 143.586 57.8785 144.877C56.4295 146.167 55.0672 147.28 54.0519 148.045C53.5417 148.428 53.1285 148.734 52.8326 148.933C52.69 149.05 52.5321 149.148 52.3632 149.223C52.4837 149.083 52.6207 148.958 52.7713 148.851L53.9346 147.897C54.9142 147.096 56.2611 145.973 57.705 144.683C59.1489 143.392 60.4091 142.178 61.3173 141.29L62.3887 140.239C62.6489 139.994 62.7968 139.861 62.8121 139.877Z" fill="#263238"/>
<path d="M174.261 18.2662H143.715C142.438 18.2662 141.213 18.7736 140.31 19.6769C139.406 20.5801 138.899 21.8052 138.899 23.0825V30.6846C138.899 31.9619 139.406 33.187 140.31 34.0902C141.213 34.9935 142.438 35.5009 143.715 35.5009H144.032V39.8427L148.924 35.5009H174.261C175.539 35.5009 176.764 34.9935 177.667 34.0902C178.57 33.187 179.078 31.9619 179.078 30.6846V23.0825C179.078 21.8052 178.57 20.5801 177.667 19.6769C176.764 18.7736 175.539 18.2662 174.261 18.2662Z" fill="white"/>
<path d="M174.261 18.266H174.527C174.763 18.2692 174.998 18.2914 175.231 18.3323C175.384 18.3629 175.557 18.4088 175.741 18.4548C175.943 18.5191 176.14 18.5958 176.333 18.6844C176.818 18.9042 177.263 19.2044 177.649 19.5721C178.135 20.0337 178.522 20.5891 178.787 21.2048C179.081 21.9471 179.212 22.7441 179.17 23.5415C179.17 25.2405 179.17 27.1792 179.17 29.3323C179.17 29.8731 179.17 30.419 179.17 30.9905C179.112 31.9162 178.795 32.8069 178.253 33.5598C177.711 34.3127 176.968 34.8971 176.108 35.2456C175.491 35.4895 174.833 35.6125 174.17 35.6078H172.154H167.94H148.935L149.022 35.5721L144.134 39.919L143.909 40.1129V35.4751L144.042 35.6078C143.087 35.6518 142.139 35.4311 141.302 34.9701C140.481 34.5034 139.808 33.8158 139.358 32.9854C139.145 32.5722 138.985 32.1332 138.884 31.6792C138.8 31.2302 138.765 30.7736 138.777 30.317C138.777 29.4241 138.777 28.5364 138.777 27.6639V23.7711C138.777 23.3476 138.777 22.9241 138.812 22.4905C138.913 21.6486 139.227 20.8465 139.726 20.1605C140.224 19.4746 140.89 18.9278 141.659 18.5721C142.402 18.237 143.213 18.0815 144.027 18.118H150.751H158.664L170.088 18.1588H173.18H173.986C174.17 18.1588 174.261 18.1588 174.261 18.1588H173.986H173.18H170.088L158.664 18.2048H150.751H144.022C143.243 18.1663 142.466 18.315 141.756 18.6384C141.025 18.9759 140.393 19.4956 139.92 20.1479C139.447 20.8001 139.15 21.5628 139.057 22.3629C139.024 22.7804 139.014 23.1994 139.027 23.618V30.1639C139.014 30.6034 139.049 31.0429 139.129 31.4752C139.227 31.9042 139.38 32.3191 139.583 32.7098C140.008 33.4964 140.646 34.1472 141.425 34.5874C142.222 35.0247 143.124 35.233 144.032 35.1894H144.164V39.669L143.94 39.5721L148.833 35.2303L148.869 35.1945H148.92H167.925H172.139C173.501 35.1537 174.858 35.3629 176.017 34.8578C176.844 34.5258 177.56 33.9661 178.082 33.2437C178.604 32.5213 178.91 31.6657 178.966 30.7762C178.996 30.2252 178.966 29.6639 178.966 29.1282C178.966 26.9752 178.966 25.0466 178.966 23.3374C179.013 22.5558 178.893 21.773 178.613 21.0415C178.36 20.4373 177.987 19.8906 177.517 19.4344C177.143 19.0686 176.71 18.7684 176.236 18.5466C176.048 18.4575 175.856 18.3792 175.659 18.3119L175.149 18.1792C174.852 18.1934 174.556 18.2224 174.261 18.266Z" fill="#263238"/>
<path d="M148.313 26.5827L149.293 27.0929L148.737 28.0113L147.716 27.4092L147.747 28.5113H146.655L146.681 27.4092L145.66 28.0113L145.114 27.0929L146.089 26.5827L145.114 26.047L145.66 25.1235L146.681 25.7409L146.655 24.6235H147.747L147.716 25.7409L148.737 25.1235L149.293 26.047L148.313 26.5827Z" fill="#E0E0E0"/>
<path d="M152.853 26.5827L153.833 27.0929L153.277 28.0113L152.256 27.4092L152.287 28.5113H151.195V27.4092L150.175 28.0113L149.629 27.0929L150.603 26.5827L149.629 26.047L150.175 25.1235L151.195 25.7409V24.6235H152.287L152.256 25.7409L153.277 25.1235L153.833 26.047L152.853 26.5827Z" fill="#E0E0E0"/>
<path d="M157.394 26.5827L158.373 27.0929L157.817 28.0113L156.797 27.4092L156.822 28.5113H155.73L155.756 27.4092L154.735 28.0113L154.189 27.0929L155.164 26.5827L154.189 26.047L154.735 25.1235L155.756 25.7409L155.73 24.6235H156.822L156.797 25.7409L157.817 25.1235L158.373 26.047L157.394 26.5827Z" fill="#E0E0E0"/>
<path d="M161.935 26.5827L162.915 27.0929L162.358 28.0113L161.338 27.4092L161.364 28.5113H160.272L160.297 27.4092L159.277 28.0113L158.731 27.0929L159.711 26.5827L158.731 26.047L159.277 25.1235L160.297 25.7409L160.272 24.6235H161.364L161.338 25.7409L162.358 25.1235L162.915 26.047L161.935 26.5827Z" fill="#E0E0E0"/>
<path d="M166.475 26.5827L167.455 27.0929L166.899 28.0113L165.878 27.4092L165.904 28.5113H164.832L164.858 27.4092L163.837 28.0113L163.292 27.0929L164.271 26.5827L163.302 26.047L163.848 25.1235L164.868 25.7409L164.842 24.6235H165.934L165.909 25.7409L166.929 25.1235L167.485 26.047L166.475 26.5827Z" fill="#E0E0E0"/>
<path d="M171.017 26.5816L171.996 27.0918L171.466 28.0561L170.445 27.454V28.5561H169.353L169.379 27.454L168.404 28.0561L167.859 27.1377L168.838 26.6275L167.859 26.0918L168.404 25.1683L169.425 25.7857L169.399 24.6683H170.445V25.7857L171.466 25.1683L172.022 26.0918L171.017 26.5816Z" fill="#E0E0E0"/>
</g>
<defs>
<clipPath id="clip0_2006_94806">
<rect width="250" height="190" fill="white"/>
</clipPath>
</defs>
</svg>
