<svg width="100" height="100" viewBox="0 0 100 100" fill="none" xmlns="http://www.w3.org/2000/svg">
<circle cx="50" cy="50" r="50" fill="#F8F9FF"/>
<g clip-path="url(#clip0_356_78938)">
<path d="M76.4493 67.4629H23.5508C21.151 67.4629 19.2056 65.5176 19.2056 63.1177V23.6262C19.2056 21.2264 21.151 19.281 23.5508 19.281H76.4493C78.8491 19.281 80.7945 21.2264 80.7945 23.6262V63.1177C80.7945 65.5174 78.849 67.4629 76.4493 67.4629Z" fill="#CCEEFF"/>
<path d="M76.4494 19.281H49.9932V67.4629H76.4494C78.8492 67.4629 80.7946 65.5176 80.7946 63.1177V23.6262C80.7946 21.2264 78.8491 19.281 76.4494 19.281Z" fill="#FF405C"/>
<path d="M19.2056 43.3718V63.1176C19.2056 65.5174 21.151 67.4628 23.5508 67.4628H76.4491C78.849 67.4628 80.7944 65.5174 80.7944 63.1176V43.3718H19.2056Z" fill="white"/>
<path d="M49.9932 43.3718V67.4628H76.4494C78.8492 67.4628 80.7946 65.5174 80.7946 63.1176V43.3718H49.9932Z" fill="#00215A"/>
<path d="M39.3916 80.7305L41.4748 67.4629H58.4499L60.3196 80.729L39.3916 80.7305Z" fill="#004DB6"/>
<path d="M49.9932 80.7305L60.3195 80.7297L58.4499 67.4636H49.9932V80.7305Z" fill="#192B80"/>
<path d="M65.1546 82.6352H34.8456C33.7875 82.6352 32.9297 81.7774 32.9297 80.7193C32.9297 79.6613 33.7875 78.8035 34.8456 78.8035H65.1546C66.2127 78.8035 67.0705 79.6613 67.0705 80.7193C67.0705 81.7774 66.2127 82.6352 65.1546 82.6352Z" fill="#0089FF"/>
<path d="M65.1546 78.8035H49.9932V82.6352H65.1546C66.2127 82.6352 67.0705 81.7774 67.0705 80.7193C67.0705 79.6613 66.2127 78.8035 65.1546 78.8035Z" fill="#295FCC"/>
<path d="M64.9462 58.3258C67.3891 58.3258 69.3695 56.3454 69.3695 53.9025C69.3695 51.4596 67.3891 49.4792 64.9462 49.4792C62.5033 49.4792 60.5229 51.4596 60.5229 53.9025C60.5229 56.3454 62.5033 58.3258 64.9462 58.3258Z" fill="#FFA64D"/>
<path d="M64.9463 49.4792V58.3258C67.3892 58.3258 69.3696 56.3454 69.3696 53.9025C69.3696 51.4596 67.3892 49.4792 64.9463 49.4792Z" fill="#FF9933"/>
<path d="M67.8178 59.0098H62.014L62.0138 59.0107C59.5638 59.0299 57.5835 61.0212 57.5835 63.4758V64.4785C57.5835 65.1244 58.107 65.6479 58.753 65.6479H71.1144C71.7603 65.6479 72.2838 65.1244 72.2838 64.4785V63.4758C72.2838 61.0093 70.2843 59.0098 67.8178 59.0098Z" fill="#7AFFE4"/>
<path d="M67.8176 59.0098H64.9463V65.6479H71.1142C71.7601 65.6479 72.2836 65.1244 72.2836 64.4785V63.4758C72.2836 61.0093 70.2841 59.0098 67.8176 59.0098Z" fill="#00ECCE"/>
<path d="M35.1323 58.3258C37.5752 58.3258 39.5555 56.3454 39.5555 53.9025C39.5555 51.4596 37.5752 49.4792 35.1323 49.4792C32.6893 49.4792 30.709 51.4596 30.709 53.9025C30.709 56.3454 32.6893 58.3258 35.1323 58.3258Z" fill="#FFCC99"/>
<path d="M35.1323 49.4792V58.3258C37.5752 58.3258 39.5556 56.3454 39.5556 53.9025C39.5556 51.4596 37.5752 49.4792 35.1323 49.4792Z" fill="#FFB366"/>
<path d="M38.0033 59.0098H32.1996L32.1993 59.0107C29.7493 59.0299 27.769 61.0212 27.769 63.4758V64.4785C27.769 65.1244 28.2926 65.6479 28.9385 65.6479H41.2999C41.9458 65.6479 42.4694 65.1244 42.4694 64.4785V63.4758C42.4694 61.0093 40.4698 59.0098 38.0033 59.0098Z" fill="#FF9100"/>
<path d="M38.0031 59.0098H35.1318V65.6479H41.2997C41.9456 65.6479 42.4692 65.1244 42.4692 64.4785V63.4758C42.4692 61.0093 40.4696 59.0098 38.0031 59.0098Z" fill="#FF641A"/>
<path d="M64.9462 36.0477C67.3891 36.0477 69.3695 34.0673 69.3695 31.6244C69.3695 29.1815 67.3891 27.2012 64.9462 27.2012C62.5033 27.2012 60.5229 29.1815 60.5229 31.6244C60.5229 34.0673 62.5033 36.0477 64.9462 36.0477Z" fill="#FFA64D"/>
<path d="M64.9463 27.2012V36.0477C67.3892 36.0477 69.3696 34.0673 69.3696 31.6244C69.3696 29.1816 67.3892 27.2012 64.9463 27.2012Z" fill="#FF9933"/>
<path d="M67.8178 36.7319H62.014L62.0138 36.7328C59.5638 36.7521 57.5835 38.7434 57.5835 41.198V42.2006C57.5835 42.8465 58.107 43.3701 58.753 43.3701H71.1144C71.7603 43.3701 72.2838 42.8465 72.2838 42.2006V41.198C72.2838 38.7315 70.2843 36.7319 67.8178 36.7319Z" fill="#FFDA2D"/>
<path d="M67.8176 36.7319H64.9463V43.3701H71.1142C71.7601 43.3701 72.2836 42.8465 72.2836 42.2006V41.198C72.2836 38.7315 70.2841 36.7319 67.8176 36.7319Z" fill="#FDBF00"/>
<path d="M35.1323 36.0477C37.5752 36.0477 39.5555 34.0673 39.5555 31.6244C39.5555 29.1815 37.5752 27.2012 35.1323 27.2012C32.6893 27.2012 30.709 29.1815 30.709 31.6244C30.709 34.0673 32.6893 36.0477 35.1323 36.0477Z" fill="#FFCC99"/>
<path d="M35.1323 27.2012V36.0477C37.5752 36.0477 39.5556 34.0673 39.5556 31.6244C39.5556 29.1816 37.5752 27.2012 35.1323 27.2012Z" fill="#FFB366"/>
<path d="M38.0033 36.7319H32.1996L32.1993 36.7328C29.7493 36.7521 27.769 38.7434 27.769 41.198V42.2006C27.769 42.8465 28.2926 43.3701 28.9385 43.3701H41.2999C41.9458 43.3701 42.4694 42.8465 42.4694 42.2006V41.198C42.4694 38.7315 40.4698 36.7319 38.0033 36.7319Z" fill="#FF405C"/>
<path d="M38.0031 36.7319H35.1318V43.3701H41.2997C41.9456 43.3701 42.4692 42.8465 42.4692 42.2006V41.198C42.4692 38.7315 40.4696 36.7319 38.0031 36.7319Z" fill="#C1126B"/>
<path d="M76.9554 69.3789H23.0444C19.866 69.3789 17.2896 66.8025 17.2896 63.6241V23.1199C17.2896 19.9417 19.866 17.3652 23.0444 17.3652H76.9556C80.1338 17.3652 82.7102 19.9417 82.7102 23.1199V63.6243C82.7101 66.8025 80.1336 69.3789 76.9554 69.3789ZM23.0444 21.197C21.9823 21.197 21.1213 22.0579 21.1213 23.1199V63.6241C21.1213 64.6862 21.9823 65.5472 23.0444 65.5472H76.9554C78.0175 65.5472 78.8785 64.6862 78.8785 63.6241V23.1199C78.8785 22.0579 78.0175 21.1969 76.9554 21.1969H23.0444V21.197Z" fill="#0089FF"/>
<path d="M77.4382 17.365H49.9932V21.1968H77.4382C78.2337 21.1968 78.8786 21.8416 78.8786 22.6371V63.5035C78.8786 64.632 77.9637 65.5469 76.8351 65.5469H49.9932V69.3787H77.4382C80.35 69.3787 82.7103 67.0183 82.7103 64.1066V22.6371C82.7103 19.7254 80.35 17.365 77.4382 17.365Z" fill="#295FCC"/>
</g>
<defs>
<clipPath id="clip0_356_78938">
<rect width="65.4206" height="65.4206" fill="white" transform="translate(17.2896 17.2898)"/>
</clipPath>
</defs>
</svg>
