<svg width="15" height="18" viewBox="0 0 15 18" fill="none" xmlns="http://www.w3.org/2000/svg">
<path d="M4.18751 14.25H2.59377C1.70002 14.25 1.25 13.8 1.25 12.9062V5.59377C1.25 4.70002 1.70002 4.25 2.59377 4.25H5.28126C6.17501 4.25 6.62498 4.70002 6.62498 5.59377V6.75" stroke="#0E7DC2" stroke-miterlimit="10" stroke-linecap="round" stroke-linejoin="round"/>
<path d="M10.8562 8.26249V15.2375C10.8562 16.2438 10.3563 16.75 9.35001 16.75H5.69999C4.69374 16.75 4.1875 16.2438 4.1875 15.2375V8.26249C4.1875 7.25624 4.69374 6.75 5.69999 6.75H9.35001C10.3563 6.75 10.8562 7.25624 10.8562 8.26249Z" stroke="#0E7DC2" stroke-miterlimit="10" stroke-linecap="round" stroke-linejoin="round"/>
<path d="M8.375 6.75V5.59377C8.375 4.70002 8.82498 4.25 9.71873 4.25H12.4062C13.3 4.25 13.75 4.70002 13.75 5.59377V12.9062C13.75 13.8 13.3 14.25 12.4062 14.25H10.8562" stroke="#0E7DC2" stroke-miterlimit="10" stroke-linecap="round" stroke-linejoin="round"/>
<path d="M6.25 9.875H8.75" stroke="#0E7DC2" stroke-miterlimit="10" stroke-linecap="round" stroke-linejoin="round"/>
<path d="M6.25 11.75H8.75" stroke="#0E7DC2" stroke-miterlimit="10" stroke-linecap="round" stroke-linejoin="round"/>
<path d="M7.5 16.75V14.875" stroke="#0E7DC2" stroke-miterlimit="10" stroke-linecap="round" stroke-linejoin="round"/>
</svg>
