<svg width="335" height="191" viewBox="0 0 335 191" fill="none" xmlns="http://www.w3.org/2000/svg">
<path d="M25.6756 190.458C25.6756 190.458 -14.0812 142.59 5.34859 93.311C18.0134 61.1891 65.521 43.588 92.3316 61.1891C103.75 68.6858 140.387 61.4419 159.948 30.4058C197.96 -29.9048 330.623 6.72228 306.471 99.3202C294.782 144.13 342.042 145.76 317.961 190.552L25.6756 190.458Z" fill="#D2E7F9"/>
<path d="M55.1032 111.676C55.1032 111.676 51.0936 107.001 54.8561 104.031C54.8561 104.031 57.6044 102.368 59.8457 102.503C59.8457 102.503 56.6706 107.825 57.6978 108.354C58.725 108.883 60.8079 102.169 60.8079 102.169C60.8079 102.169 67.0622 101.563 69.0741 102.529C69.0741 102.529 63.7276 106.902 64.8541 107.162C65.9806 107.422 71.7551 103.131 71.7551 103.131C71.7551 103.131 77.5756 104.121 77.2647 107.67C76.9538 111.219 74.949 112.315 74.0672 112.221C73.1854 112.127 68.0292 110.159 67.9169 110.881C67.8046 111.603 70.9087 113.963 73.0825 114.073C73.0825 114.073 68.9784 118.597 66.2513 117.291C63.5243 115.985 63.2914 113.917 61.5916 113.14C59.8918 112.364 58.4402 112.367 59.1423 113.158C59.8445 113.95 62.9214 114.719 63.8931 116.438C64.8647 118.157 65.7371 119.316 62.9155 118.892C60.0939 118.468 55.5074 116.404 55.3053 114.041C55.1032 111.676 55.1032 111.676 55.1032 111.676Z" fill="white"/>
<path d="M74.4042 107.767C74.4042 107.767 58.5952 107.158 55.1033 111.676C55.1033 111.676 54.3314 113.988 51.9554 116.093L51.5854 117.102C51.5854 117.102 54.3255 114.214 55.3054 114.041C55.3043 114.04 53.7723 108.441 74.4042 107.767Z" fill="#C8DBF4"/>
<path d="M51.9554 116.093C51.9554 116.093 48.5616 118.601 48.3264 123.083L48.9423 123.138C48.9423 123.138 50.0262 118.504 51.9849 116.692C53.9436 114.88 51.9554 116.093 51.9554 116.093Z" fill="#C8DBF4"/>
<path d="M41.085 105.796C41.085 105.796 47.4635 102.226 44.487 97.3813C44.487 97.3813 42.1063 94.4062 39.5542 93.6418C39.5542 93.6418 40.9148 100.867 39.5542 101.037C38.1936 101.207 38.6192 92.8762 38.6192 92.8762C38.6192 92.8762 31.9003 89.6459 29.2642 89.9011C29.2642 89.9011 33.4311 96.956 32.0705 96.7858C30.7099 96.6157 26.0324 89.4758 26.0324 89.4758C26.0324 89.4758 19.1445 88.2009 18.0381 92.2807C16.9328 96.3605 18.7189 98.401 19.7391 98.6562C20.7592 98.9114 27.3079 98.8263 27.1377 99.6758C26.9675 100.525 22.5453 101.886 20.0795 101.121C20.0795 101.121 22.8007 107.835 26.3729 107.496C29.9451 107.156 31.0504 104.947 33.2608 104.776C35.4725 104.606 37.0872 105.202 35.982 105.796C34.8767 106.392 31.1343 105.991 29.3482 107.509C27.562 109.026 26.1164 109.962 29.4333 110.641C32.7502 111.322 38.7031 110.897 39.8935 108.347C41.085 105.796 41.085 105.796 41.085 105.796Z" fill="white"/>
<path d="M21.1848 93.5567C21.1848 93.5567 39.0436 99.3367 41.0851 105.797C41.0851 105.797 40.9999 108.687 42.7861 112.003V113.277C42.7861 113.277 40.9148 108.942 39.8947 108.347C39.8935 108.347 43.8913 102.737 21.1848 93.5567Z" fill="#C8DBF4"/>
<path d="M42.7849 112.001C42.7849 112.001 45.5392 116.182 43.9694 121.27L43.2613 121.08C43.2613 121.08 43.9493 115.475 42.5083 112.656C41.0674 109.838 42.7849 112.001 42.7849 112.001Z" fill="#C8DBF4"/>
<path d="M51.2321 100.873C51.2321 100.873 42.824 96.1667 46.7484 89.7794C46.7484 89.7794 49.8869 85.858 53.2499 84.849C53.2499 84.849 51.4567 94.3732 53.2499 94.5977C55.0431 94.8222 54.4828 83.8411 54.4828 83.8411C54.4828 83.8411 63.3389 79.5829 66.8142 79.9197C66.8142 79.9197 61.3211 89.2194 63.1143 88.9961C64.9075 88.7716 71.0732 79.3596 71.0732 79.3596C71.0732 79.3596 80.1539 77.6783 81.6102 83.0578C83.0677 88.4361 80.713 91.1252 79.3678 91.4619C78.0226 91.7975 69.3911 91.6864 69.6145 92.8065C69.8391 93.9266 75.6679 95.7201 78.9186 94.7111C78.9186 94.7111 75.331 103.563 70.6228 103.115C65.9146 102.667 64.4571 99.7538 61.5421 99.5293C58.6271 99.3048 56.497 100.089 57.9545 100.874C59.412 101.658 64.3448 101.131 66.6983 103.132C69.0519 105.132 70.9585 106.364 66.586 107.261C62.2135 108.158 54.3669 107.597 52.7971 104.235C51.2321 100.873 51.2321 100.873 51.2321 100.873Z" fill="white"/>
<path d="M77.4635 84.7379C77.4635 84.7379 53.9224 92.3575 51.232 100.873C51.232 100.873 51.3443 104.682 48.9896 109.052V110.734C48.9896 110.734 51.4554 105.019 52.8006 104.235C52.8018 104.234 47.5321 96.839 77.4635 84.7379Z" fill="#D4E4F8"/>
<path d="M48.9897 109.052C48.9897 109.052 45.3595 114.563 47.4293 121.27L48.3632 121.02C48.3632 121.02 47.4565 113.632 49.3561 109.916C51.2557 106.2 48.9897 109.052 48.9897 109.052Z" fill="#D4E4F8"/>
<path d="M50.9483 135.817C60.0444 135.817 67.417 128.447 67.417 119.355H34.4796C34.4796 128.447 41.8534 135.817 50.9483 135.817Z" fill="#D4E4F8"/>
<path d="M67.6452 136.655H34.2516C34.2516 135.534 35.1618 134.624 36.2836 134.624H65.6132C66.735 134.624 67.6452 135.533 67.6452 136.655Z" fill="#D4E4F8"/>
<path d="M67.7929 119.355H33.9382V119.86H67.7929V119.355Z" fill="#9FC1F4"/>
<path d="M135.93 190.115L136.012 190.114C136.677 190.102 137.191 189.557 137.129 188.932L132.689 144.617L128.815 144.962L135.19 189.516C135.24 189.865 135.558 190.122 135.93 190.115Z" fill="#0E7DC2"/>
<path d="M93.1839 190.115L93.1023 190.114C92.4368 190.102 91.9226 189.557 91.9853 188.932L96.4252 144.617L100.299 144.962L93.9239 189.516C93.8742 189.865 93.5551 190.122 93.1839 190.115Z" fill="#0E7DC2"/>
<path d="M167.249 190.115L167.331 190.114C167.996 190.102 168.511 189.557 168.448 188.932L164.008 144.617L160.134 144.962L166.509 189.516C166.559 189.865 166.877 190.122 167.249 190.115Z" fill="#0E7DC2"/>
<path d="M94.5054 138.172L86.6257 99.2753C85.6139 94.0093 89.9805 89.1934 95.6485 89.3234L110.846 89.6707C116.089 89.7901 120.647 93.298 122.105 98.3324L133.633 138.172H94.5054Z" fill="#0E7DC2"/>
<path d="M99.2728 138.172L91.3931 99.2753C90.3812 94.0093 94.7478 89.1934 100.416 89.3234L115.614 89.6707C120.856 89.7901 125.414 93.298 126.872 98.3324L138.401 138.172H99.2728Z" fill="#0E7DC2"/>
<path d="M96.7017 145.266H156.829C158.037 145.266 159.025 144.278 159.025 143.071V140.367C159.025 139.16 158.037 138.172 156.829 138.172H94.5054V143.071C94.5054 144.278 95.4936 145.266 96.7017 145.266Z" fill="#0E7DC2"/>
<path d="M124.918 145.266H163.248C164.221 145.266 165.017 144.47 165.017 143.497V139.94C165.017 138.967 164.221 138.171 163.248 138.171H124.918C123.945 138.171 123.148 138.967 123.148 139.94V143.497C123.148 144.47 123.945 145.266 124.918 145.266Z" fill="#0E7DC2"/>
<path d="M76.565 137.665V138.992C76.565 139.456 76.4149 139.836 76.2305 139.836H27.7831C27.5999 139.836 27.4486 139.456 27.4486 138.992V137.665C27.4486 137.201 27.5987 136.822 27.7831 136.822H76.2317C76.4137 136.822 76.565 137.201 76.565 137.665Z" fill="#9ABFE2"/>
<path d="M76.5651 137.665V138.992C76.5651 139.456 76.4268 139.836 76.259 139.836H37.7954C37.6264 139.836 37.4893 139.456 37.4893 138.992V137.665C37.4893 137.201 37.6276 136.822 37.7954 136.822H76.2578C76.4268 136.822 76.5651 137.201 76.5651 137.665Z" fill="#BAD4F4"/>
<path d="M64.3022 139.837H29.9073V189.946H64.3022V139.837Z" fill="#C8DBF4"/>
<path d="M73.9409 139.837H39.546V189.946H73.9409V139.837Z" fill="#DFEBFD"/>
<path d="M72.0934 187.179H41.3949V141.252H72.0934V187.179ZM41.7271 186.847H71.7624V141.583H41.7271V186.847Z" fill="#B7D3F3"/>
<path d="M71.9278 156.445H41.5603V156.776H71.9278V156.445Z" fill="#B7D3F3"/>
<path d="M71.9278 171.934H41.5603V172.265H71.9278V171.934Z" fill="#B7D3F3"/>
<path d="M59.8564 144.214H54.2214C53.9483 144.214 53.7238 143.991 53.7238 143.717C53.7238 143.444 53.9472 143.219 54.2214 143.219H59.8564C60.1294 143.219 60.354 143.443 60.354 143.717C60.3528 143.99 60.1294 144.214 59.8564 144.214Z" fill="#B7D3F3"/>
<path d="M59.8564 159.36H54.2214C53.9483 159.36 53.7238 159.137 53.7238 158.863C53.7238 158.59 53.9472 158.365 54.2214 158.365H59.8564C60.1294 158.365 60.354 158.589 60.354 158.863C60.3528 159.137 60.1294 159.36 59.8564 159.36Z" fill="#B7D3F3"/>
<path d="M59.8564 175.15H54.2214C53.9483 175.15 53.7238 174.927 53.7238 174.653C53.7238 174.38 53.9472 174.155 54.2214 174.155H59.8564C60.1294 174.155 60.354 174.378 60.354 174.653C60.3528 174.927 60.1294 175.15 59.8564 175.15Z" fill="#B7D3F3"/>
<path d="M211.59 49.7402H189.789C188.788 49.7402 187.97 48.9214 187.97 47.9218V26.8884C187.97 25.8877 188.789 25.0701 189.789 25.0701H211.59C212.591 25.0701 213.409 25.8889 213.409 26.8884V47.9206C213.411 48.9214 212.591 49.7402 211.59 49.7402Z" fill="#C0D8FB"/>
<path d="M210.646 48.6709H190.734C189.82 48.6709 189.072 47.923 189.072 47.0097V27.8005C189.072 26.8872 189.82 26.1393 190.734 26.1393H210.646C211.559 26.1393 212.308 26.8872 212.308 27.8005V47.0108C212.308 47.9242 211.559 48.6709 210.646 48.6709Z" fill="white"/>
<path d="M200.689 28.9171C200.98 28.9171 201.216 28.6811 201.216 28.3901C201.216 28.0991 200.98 27.8632 200.689 27.8632C200.398 27.8632 200.162 28.0991 200.162 28.3901C200.162 28.6811 200.398 28.9171 200.689 28.9171Z" fill="#B7D3F3"/>
<path d="M204.415 29.1345C204.557 28.8804 204.877 28.7883 205.131 28.9301C205.385 29.0719 205.478 29.392 205.336 29.6461C205.194 29.9001 204.874 29.9923 204.62 29.8505C204.365 29.7099 204.273 29.3897 204.415 29.1345Z" fill="#B7D3F3"/>
<path d="M208.058 32.028C208.303 31.8709 208.629 31.9406 208.786 32.1852C208.943 32.4297 208.874 32.7558 208.629 32.913C208.384 33.0701 208.058 33.0004 207.901 32.7558C207.744 32.5113 207.813 32.1852 208.058 32.028Z" fill="#B7D3F3"/>
<path d="M209.863 36.506C210.154 36.506 210.39 36.7423 210.39 37.0329C210.39 37.3236 210.154 37.5599 209.863 37.5599C209.572 37.5599 209.336 37.3236 209.336 37.0329C209.336 36.7411 209.571 36.506 209.863 36.506Z" fill="#B7D3F3"/>
<path d="M208.941 41.7023C209.147 41.9079 209.147 42.241 208.941 42.4466C208.735 42.6522 208.402 42.6522 208.196 42.4466C207.991 42.241 207.991 41.9079 208.196 41.7023C208.402 41.4967 208.735 41.4967 208.941 41.7023Z" fill="#B7D3F3"/>
<path d="M205.632 45.0188C205.838 45.2244 205.838 45.5576 205.632 45.7632C205.427 45.9687 205.093 45.9687 204.888 45.7632C204.682 45.5576 204.682 45.2244 204.888 45.0188C205.092 44.8132 205.427 44.8132 205.632 45.0188Z" fill="#B7D3F3"/>
<path d="M200.163 46.7273C200.163 46.4366 200.4 46.2003 200.69 46.2003C200.981 46.2003 201.217 46.4366 201.217 46.7273C201.217 47.0179 200.981 47.2542 200.69 47.2542C200.398 47.2542 200.163 47.0191 200.163 46.7273Z" fill="#B7D3F3"/>
<path d="M196.948 29.1345C196.806 28.8805 196.486 28.7883 196.231 28.9301C195.977 29.0719 195.885 29.3921 196.027 29.6461C196.169 29.9001 196.489 29.9923 196.743 29.8505C196.997 29.7099 197.088 29.3897 196.948 29.1345Z" fill="#B7D3F3"/>
<path d="M193.305 32.028C193.06 31.8709 192.734 31.9406 192.576 32.1852C192.419 32.4297 192.489 32.7558 192.734 32.913C192.978 33.0701 193.305 33.0004 193.462 32.7558C193.619 32.5113 193.549 32.1852 193.305 32.028Z" fill="#B7D3F3"/>
<path d="M191.5 36.506C191.209 36.506 190.972 36.7423 190.972 37.0329C190.972 37.3236 191.209 37.5599 191.5 37.5599C191.79 37.5599 192.027 37.3236 192.027 37.0329C192.027 36.7411 191.79 36.506 191.5 36.506Z" fill="#B7D3F3"/>
<path d="M192.422 41.7023C192.216 41.9079 192.216 42.2411 192.422 42.4466C192.627 42.6522 192.961 42.6522 193.166 42.4466C193.372 42.2411 193.372 41.9079 193.166 41.7023C192.961 41.4967 192.627 41.4967 192.422 41.7023Z" fill="#B7D3F3"/>
<path d="M196.103 45.9179C196.394 45.9179 196.63 45.682 196.63 45.391C196.63 45.1 196.394 44.864 196.103 44.864C195.811 44.864 195.575 45.1 195.575 45.391C195.575 45.682 195.811 45.9179 196.103 45.9179Z" fill="#B7D3F3"/>
<path d="M200.547 37.0317C200.547 36.7411 200.784 36.5048 201.074 36.5048C201.365 36.5048 201.602 36.7411 201.602 37.0317C201.602 37.3224 201.365 37.5587 201.074 37.5587C200.784 37.5587 200.547 37.3236 200.547 37.0317Z" fill="#B7D3F3"/>
<path d="M201.146 30.4519H201.002V37.0329H201.146V30.4519Z" fill="#B7D3F3"/>
<path d="M204.368 34.1087L200.878 36.8476L201.144 37.1868L204.635 34.448L204.368 34.1087Z" fill="#B7D3F3"/>
<path d="M146.886 130.031C143.633 135.69 139.541 137.874 139.541 137.874H122.521C122.521 137.874 149.367 125.715 146.886 130.031Z" fill="#2C8CE1"/>
<path d="M167.878 186.25C167.694 188.036 170.178 188.496 173.059 188.671C175.94 188.846 175.063 189.426 179.005 190.184C182.947 190.941 184.542 189.878 184.834 189.347C185.094 188.877 183.265 188.117 181.317 187.259C181.071 187.152 180.827 187.042 180.581 186.932C178.388 185.941 177.174 183.952 175.476 182.103C173.869 180.352 172.383 174.784 172.383 174.784L167.028 173.581C167.028 173.581 168.482 178.594 168.982 180.733C169.277 181.991 168.807 183.389 168.392 184.452C168.169 185.03 167.943 185.622 167.878 186.25Z" fill="#FFB27D"/>
<path d="M173.059 188.671C175.94 188.846 175.063 189.426 179.005 190.184C182.947 190.941 184.542 189.878 184.834 189.347C185.094 188.877 183.265 188.117 181.317 187.259L181.286 187.292C181.286 187.292 178.499 188.206 175.303 187.3C172.697 186.562 170.188 184.974 168.392 184.451C168.169 185.03 167.943 185.622 167.879 186.25C167.695 188.036 170.178 188.496 173.059 188.671Z" fill="#2C8CE1"/>
<path d="M159.764 124.235C156.882 122.212 137.82 118.607 128.093 117.564L117.341 108.235C117.341 108.235 108.189 121.783 108.116 132.149C108.082 136.982 110.309 137.462 110.31 137.463C110.31 137.463 144.777 137.718 146.289 137.874C148.762 138.129 152.024 144.288 152.839 149.896C153.654 155.505 168.027 178.316 168.027 178.316C168.027 178.316 171.025 179.277 172.41 179.195C173.901 179.108 174.591 178.609 174.591 178.609C174.591 178.609 166.263 128.797 159.764 124.235Z" fill="#2C8CE1"/>
<path d="M158.963 186.25C158.778 188.036 161.263 188.496 164.144 188.671C167.025 188.846 166.147 189.426 170.09 190.184C174.032 190.941 175.626 189.878 175.918 189.347C176.179 188.877 174.35 188.117 172.402 187.259C172.157 187.152 171.911 187.042 171.665 186.932C169.473 185.941 168.259 183.952 166.561 182.103C164.954 180.352 163.468 174.784 163.468 174.784L158.112 173.581C158.112 173.581 159.566 178.594 160.066 180.733C160.36 181.991 159.891 183.389 159.476 184.452C159.252 185.03 159.028 185.622 158.963 186.25Z" fill="#FFB27D"/>
<path d="M164.144 188.671C167.025 188.846 166.147 189.426 170.09 190.184C174.032 190.941 175.627 189.878 175.918 189.347C176.179 188.877 174.35 188.117 172.402 187.259L172.371 187.292C172.371 187.292 169.584 188.206 166.387 187.3C163.782 186.562 161.273 184.974 159.477 184.451C159.254 185.03 159.028 185.622 158.964 186.25C158.78 188.036 161.263 188.496 164.144 188.671Z" fill="#2C8CE1"/>
<path d="M150.771 124.235C148.267 122.478 140.738 121.116 132.427 120.104C130.129 119.824 128.242 118.155 127.68 115.91L108.348 108.235C108.348 108.235 99.196 121.783 99.1227 132.149C99.0884 136.982 101.315 137.462 101.317 137.463C101.317 137.463 135.784 137.718 137.295 137.874C139.768 138.129 143.031 144.288 143.845 149.896C144.661 155.505 159.034 178.316 159.034 178.316C159.034 178.316 162.032 179.277 163.417 179.195C164.908 179.108 165.598 178.609 165.598 178.609C165.598 178.609 157.269 128.797 150.771 124.235Z" fill="#1C6DB3"/>
<path d="M124.901 51.9425C122.245 50.5483 118.203 50.3593 117.545 50.2718C109.687 49.2167 104.957 60.6302 104.678 64.0885C104.165 70.4628 100.792 71.4352 96.0433 75.4275C86.5217 83.4323 89.3138 92.7344 94.5208 96.1903C97.645 98.2639 103.151 96.1903 103.151 96.1903C103.229 96.2447 118.211 87.8193 125.595 83.7548C136.667 82.1811 131.671 55.4953 124.901 51.9425Z" fill="#2C8CE1"/>
<path d="M123.262 79.8275C123.296 79.8452 119.77 81.4486 117.224 80.6073C114.829 79.8192 112.72 76.2156 112.753 76.2097C113.792 76.0596 114.849 75.0341 115.144 68.9611L115.604 69.0769L123.343 71.0323C123.343 71.0323 123.037 73.4828 122.911 75.7997C122.805 77.7457 122.828 79.5971 123.262 79.8275Z" fill="#FFB27D"/>
<path d="M123.345 71.0323C123.345 71.0323 123.345 71.5368 123.055 73.8159C118.678 72.7124 116.749 71.2615 115.387 69.6015L123.345 71.0323Z" fill="#ED975D"/>
<path d="M124.996 71.3407C124.996 71.3407 114.763 73.0066 113.823 66.6205C112.883 60.2344 110.93 56.1487 117.423 54.8148C123.918 53.482 125.549 55.7316 126.381 57.7863C127.213 59.8421 127.633 70.7428 124.996 71.3407Z" fill="#FFB27D"/>
<path d="M125.005 54.5477C125.005 54.5477 120.359 61.8802 116.21 63.6171C112.06 65.3539 110.023 64.4725 110.023 64.4725C110.023 64.4725 111.91 61.612 112.402 57.7709C112.547 56.639 113.285 55.6678 114.345 55.2437C117.322 54.0515 123.081 52.1717 125.005 54.5477Z" fill="#2C8CE1"/>
<path d="M120.924 55.2567C120.924 55.2567 123.647 56.652 124.769 57.9612C125.852 59.223 127.102 62.6494 127.012 64.1878C127.012 64.1878 128.356 56.8151 125.557 54.2807C122.589 51.5928 120.924 55.2567 120.924 55.2567Z" fill="#2C8CE1"/>
<path d="M131.449 95.4283C131.138 116.221 131.364 111.875 129.088 113.848C128.54 114.323 126.998 114.607 124.97 114.74C118.591 115.163 107.379 114.113 106.953 112.935C105.481 108.859 106.52 107.592 105.293 101.35C105.165 100.686 105.007 99.9677 104.821 99.1855C103.798 94.8989 102.802 93.4398 106.433 86.5539C109.726 80.3155 113.597 75.2479 113.906 75.4299C122.593 80.5849 122.891 76.264 122.891 76.264C122.891 76.264 131.601 85.2873 131.449 95.4283Z" fill="white"/>
<path d="M122.89 76.264C122.89 76.264 131.781 77.7705 132.831 81.6175C133.88 85.4645 140.058 108.08 140.058 108.08C140.058 108.08 135.514 108.896 133.415 106.798C131.315 104.7 126.109 87.3301 126.109 87.3301L122.89 76.264Z" fill="white"/>
<path d="M124.97 114.74C118.591 115.163 107.379 114.113 106.953 112.935C105.481 108.859 106.52 107.592 105.293 101.35L108.37 92.6907C108.37 92.6907 107.862 102.333 110.706 104.87C113.548 107.405 122.354 109.766 123.737 111.884C124.404 112.902 124.842 113.921 124.97 114.74Z" fill="#EBF3FF"/>
<path d="M117.662 110.685C117.662 110.685 123.956 109.285 124.97 109.843C125.985 110.4 128.467 112.434 128.777 113.142C129.088 113.849 126.517 112.605 125.68 112.381C125.139 112.235 123.713 112.73 123.008 112.966C120.038 113.956 118.218 113.446 118.218 113.446L117.662 110.685Z" fill="#FFB27D"/>
<path d="M113.904 75.4299C113.904 75.4299 104.999 75.9497 102.073 80.0283C97.9559 85.7681 89.7878 110.231 94.4688 113.494C99.7409 117.168 118.461 114.455 118.461 114.455C118.461 114.455 119.084 111.545 118.218 110.137C117.351 108.729 103.265 106.454 102.614 105.804C101.964 105.154 110.741 93.1325 110.741 91.183C110.741 89.2335 113.904 75.4299 113.904 75.4299Z" fill="white"/>
<path d="M125.275 111.594C125.275 111.594 126.593 113.294 127.026 113.497C127.458 113.7 127.737 113.65 127.737 113.65L126.848 112.051L125.275 111.594Z" fill="#FFB27D"/>
<path d="M124.97 109.843L128.803 111.704C128.803 111.704 128.64 111.971 128.169 111.949C127.697 111.928 126.505 111.492 126.505 111.492L124.97 109.843Z" fill="#FFB27D"/>
<path d="M139.092 114.253H121.288C121.288 113.47 121.924 112.834 122.707 112.834H139.092V114.253Z" fill="#ED7D2B"/>
<path d="M139.04 94.873H166.567L159.964 114.253H132.26L139.04 94.873Z" fill="#ED7D2B"/>
<path d="M166.973 94.8718L160.369 114.253H132.665L139.447 94.8718H166.973Z" fill="#F99746"/>
<path d="M152.132 104.384C151.96 105.125 151.221 105.725 150.48 105.725C149.739 105.725 149.277 105.125 149.448 104.384C149.62 103.643 150.359 103.043 151.1 103.043C151.841 103.043 152.303 103.643 152.132 104.384Z" fill="white"/>
<path d="M115.134 118.614H235.764C236.271 118.614 236.682 118.203 236.682 117.696V115.173C236.682 114.666 236.271 114.255 235.764 114.255H115.134C114.627 114.255 114.215 114.666 114.215 115.173V117.696C114.215 118.203 114.627 118.614 115.134 118.614Z" fill="#48C6C6"/>
<path d="M238.716 190.44L238.768 190.434C239.387 190.357 239.824 189.807 239.746 189.203L228.996 116.473L225.061 116.586L237.709 189.709C237.79 190.177 238.234 190.499 238.716 190.44Z" fill="#48C6C6"/>
<path d="M111.095 190.44L111.043 190.434C110.424 190.357 109.987 189.807 110.065 189.203L120.815 116.473L124.75 116.586L112.102 189.709C112.021 190.177 111.577 190.499 111.095 190.44Z" fill="#48C6C6"/>
<path d="M135.98 190.44L135.928 190.434C135.309 190.357 134.872 189.807 134.95 189.203L145.7 116.473L149.635 116.586L136.987 189.709C136.906 190.177 136.462 190.499 135.98 190.44Z" fill="#48C6C6"/>
<path d="M334.544 191H0.456283C0.2045 191 0 190.68 0 190.29V189.71C0 189.318 0.205682 189 0.456283 189H334.544C334.796 189 335 189.32 335 189.71V190.29C335 190.68 334.794 191 334.544 191Z" fill="#2C8CE1"/>
<path d="M199.398 190.381H220.73C221.756 189.13 221.378 184.512 221.223 183.004C221.191 182.7 221.168 182.523 221.168 182.523C221.168 182.523 213.884 176.699 212.883 181.158C212.852 181.297 212.816 181.434 212.776 181.569C211.516 185.74 205.86 187.635 202.596 188.163C200.473 188.509 199.689 189.612 199.398 190.381Z" fill="#1B3051"/>
<path d="M257.604 121.101C256.834 121.101 221.065 127.814 215.148 135.134C212.193 138.791 211.753 181.026 211.753 181.026C211.753 181.026 215.409 185.557 223.307 182.926C223.307 182.926 229.097 154.029 228.67 145.266C228.552 142.843 253.109 144.915 257.604 143.752C262.098 142.59 273.081 132.816 270.661 128.056C268.24 123.294 257.604 121.101 257.604 121.101Z" fill="#2C8CE1"/>
<path d="M215.301 110.76C215.301 110.76 208.085 110.857 206.38 111.588C204.674 112.319 201.211 113.997 202.138 114.255C203.065 114.512 207.485 114.148 208.44 114.295C209.395 114.441 210.572 114.255 211.157 114.255C211.743 114.255 214.471 114.255 214.471 114.255L215.301 110.76Z" fill="#FFB27D"/>
<path d="M206.865 93.4528C206.865 93.4528 204.405 91.6958 202.016 91.3544C200.654 91.1594 199.33 90.9172 198.529 90.6348C196.325 89.8586 191.914 85.8946 192.249 85.4302C193.319 83.9403 198.468 87.0938 199.366 86.7547C200.265 86.4156 197.639 84.55 198.552 83.8931C199.029 83.5505 200.145 85.2684 201.057 85.4409C202.291 85.6748 203.255 87.4164 203.628 87.5074C204.351 87.6846 207.519 90.0394 207.519 90.0394L206.865 93.4528Z" fill="#FFB27D"/>
<path d="M254.041 72.9345C254.041 72.9345 248.549 74.6359 243.137 89.5301C237.726 104.424 235.671 105.229 233.704 105.813C231.737 106.396 214.472 109.833 214.472 109.833V114.253H241.075C241.075 114.253 251.05 104.768 254.041 98.3832C257.031 91.9983 254.041 72.9345 254.041 72.9345Z" fill="#ED7D2B"/>
<path d="M189.971 190.381H211.302C212.328 189.13 211.949 184.512 211.795 183.004C211.763 182.7 211.74 182.523 211.74 182.523C211.74 182.523 204.456 176.699 203.455 181.158C203.424 181.297 203.388 181.434 203.347 181.569C202.087 185.74 196.432 187.635 193.167 188.163C191.046 188.509 190.261 189.612 189.971 190.381Z" fill="#1B3051"/>
<path d="M247.063 121.101C246.292 121.101 210.524 127.814 204.607 135.134C201.652 138.791 201.213 181.026 201.213 181.026C201.213 181.026 204.87 185.557 212.766 182.926C212.766 182.926 218.556 154.029 218.129 145.266C218.011 142.843 242.569 144.915 247.063 143.752C251.557 142.59 262.54 132.816 260.12 128.056C257.699 123.294 247.063 121.101 247.063 121.101Z" fill="#1C6DB3"/>
<path d="M249.302 77.6547C251.875 77.442 254.573 76.7567 256.905 76.0006C259.82 75.0553 262.169 73.673 260.656 71.011C259.261 68.557 257.002 63.0748 257.154 58.533L251.731 62.9023L248.046 65.869C248.046 65.869 248.062 67.6189 248.465 70.6849C248.538 71.2438 248.624 71.8475 248.726 72.4915C248.808 73.0125 248.569 73.5324 248.12 73.81C248.091 73.8277 248.064 73.8443 248.037 73.862C246.205 75.0116 247.146 77.8319 249.302 77.6547Z" fill="#FFB27D"/>
<path d="M248.045 65.1459C248.045 65.1459 247.857 65.7816 248.181 68.1269C251.466 67.5917 254.536 64.9723 254.536 64.9723C252.863 64.5138 252.256 62.7073 251.01 62.8763L248.045 65.1459Z" fill="#ED975D"/>
<path d="M245.008 65.6812C245.008 65.6812 257.642 67.7796 258.828 59.8941C260.014 52.0098 262.444 46.9707 254.427 45.2976C246.411 43.6246 244.387 46.3976 243.351 48.9332C242.314 51.4687 241.751 64.9321 245.008 65.6812Z" fill="#FFB27D"/>
<path d="M241.492 45.4442C240.949 47.3429 242.401 49.6551 244.838 50.4172C248.457 51.5467 247.656 55.9833 249.285 55.923C250.913 55.8628 251.57 53.3733 253.024 55.3618C254.264 57.0585 251.992 59.0694 252.148 60.0005C252.417 61.5979 254.92 64.8659 257.176 64.7017C259.431 64.5375 263.652 53.8223 262.808 50.507C261.964 47.1916 258.587 43.6955 255.391 43.2134C252.194 42.7314 247.756 44.1102 246.731 44.1102C245.706 44.1102 241.785 44.4186 241.492 45.4442Z" fill="#2B478B"/>
<path d="M270.829 83.8777C269.002 76.5311 263.955 68.8228 260.542 68.8288C254.726 68.8394 246.367 70.3742 242.992 78.6968C240.506 84.8265 237.19 120.087 240.938 122.594C249.504 128.326 269.362 140.028 272.889 128.095C276.122 117.16 273.998 96.6275 270.829 83.8777Z" fill="#F99746"/>
<path d="M256.704 76.5665C255.046 72.2528 249.694 70.7617 246.045 73.5997C244.071 75.1345 241.655 77.3203 238.735 80.4277C227.883 91.9794 225.677 91.9073 223.639 91.6687C221.601 91.43 204.381 87.7768 204.381 87.7768C204.381 87.7768 203.499 88.4266 202.98 89.4781C202.287 90.8818 202.636 91.8388 202.636 91.8388C201.961 91.4028 208.74 96.0734 212.114 97.9354C216.57 100.394 223.284 102.701 225.958 103.576C226.716 103.824 227.534 103.812 228.285 103.542C232.254 102.112 245.583 96.9004 256.435 87.8595C259.293 85.4752 258.242 80.5659 256.704 76.5665Z" fill="#F99746"/>
<path d="M261.127 68.8996L259.811 65.9352C259.811 65.9352 248.025 66.8958 246.044 73.5997C246.045 73.5997 255.18 69.0426 261.127 68.8996Z" fill="white"/>
<path d="M289.741 190.115L289.822 190.114C290.488 190.102 291.002 189.557 290.939 188.932L286.499 144.617L282.626 144.962L289.001 189.516C289.05 189.865 289.368 190.122 289.741 190.115Z" fill="#0E7DC2"/>
<path d="M266.89 190.115L266.972 190.114C267.637 190.102 268.151 189.557 268.089 188.932L263.65 144.617L259.776 144.962L266.151 189.516C266.2 189.865 266.518 190.122 266.89 190.115Z" fill="#0E7DC2"/>
<path d="M223.992 190.115L223.911 190.114C223.245 190.102 222.731 189.557 222.794 188.932L227.234 144.617L231.107 144.962L224.732 189.516C224.684 189.865 224.365 190.122 223.992 190.115Z" fill="#73A2E5"/>
<path d="M288.486 138.34L292.699 101.328C293.251 95.9942 291.466 90.7707 283.765 90.3666L270.217 89.5419C262.188 89.2111 258.563 95.8902 257.547 101.032L249.504 141.718L288.486 138.34Z" fill="#0E7DC2"/>
<path d="M286.222 145.266H226.094C224.886 145.266 223.898 144.278 223.898 143.071V140.367C223.898 139.16 224.886 138.172 226.094 138.172H288.418V143.071C288.418 144.278 287.43 145.266 286.222 145.266Z" fill="#73A2E5"/>
<path d="M286.712 145.266H251.21C250.271 145.266 249.504 144.499 249.504 143.561V139.877C249.504 138.939 250.271 138.172 251.21 138.172H288.418V143.561C288.418 144.498 287.651 145.266 286.712 145.266Z" fill="#0E7DC2"/>
</svg>
