<svg width="335" height="220" viewBox="0 0 335 220" fill="none" xmlns="http://www.w3.org/2000/svg">
<path d="M204.09 135.467H129.599C124.831 135.467 120.962 131.598 120.962 126.83V14.1921C120.962 9.42439 124.831 5.55527 129.599 5.55527H204.09C208.857 5.55527 212.727 9.42439 212.727 14.1921V126.825C212.727 131.598 208.857 135.467 204.09 135.467Z" fill="#D2E7F9"/>
<path d="M207.578 68.8303H128.399V66.235C128.399 63.7824 130.386 61.7897 132.844 61.7897H203.133C205.586 61.7897 207.578 63.7772 207.578 66.235V68.8303Z" fill="#0E7DC2"/>
<path d="M202.858 92.8907H133.114C130.508 92.8907 128.399 90.7765 128.399 88.1759V68.8303H207.578V88.1759C207.578 90.7817 205.464 92.8907 202.858 92.8907Z" fill="white"/>
<path d="M207.504 103.985H128.325V101.39C128.325 98.9376 130.312 96.9449 132.77 96.9449H203.059C205.512 96.9449 207.504 98.9323 207.504 101.39V103.985Z" fill="#0E7DC2"/>
<path d="M202.789 128.046H133.045C130.439 128.046 128.33 125.932 128.33 123.331V103.985H207.51V123.331C207.504 125.932 205.395 128.046 202.789 128.046Z" fill="white"/>
<path d="M203.424 107.722H132.907V109.097H203.424V107.722Z" fill="#D2E7F9"/>
<path d="M203.424 111.597H132.907V112.971H203.424V111.597Z" fill="#D2E7F9"/>
<path d="M203.424 115.477H132.907V116.851H203.424V115.477Z" fill="#D2E7F9"/>
<path d="M203.424 119.351H132.907V120.725H203.424V119.351Z" fill="#D2E7F9"/>
<path d="M163.157 55.5632H132.611C131.507 55.5632 130.608 54.6699 130.608 53.5599V18.9756C130.608 17.8709 131.501 16.9723 132.611 16.9723H163.157C164.262 16.9723 165.161 17.8656 165.161 18.9756V53.5599C165.161 54.6699 164.262 55.5632 163.157 55.5632Z" fill="white"/>
<path d="M160.203 39.8224C159.605 39.3942 152.501 36.8254 152.501 36.8254L147.887 38.6278L143.273 36.8254C143.273 36.8254 136.169 39.3942 135.571 39.8224C134.974 40.2505 136.676 55.5685 136.676 55.5685H147.739H148.04H159.103C159.098 55.5632 160.8 40.2452 160.203 39.8224Z" fill="#CE6B4C"/>
<path d="M150.921 31.5926L148.03 31.9308L145.138 31.5926C145.138 31.5926 145.323 35.1075 144.441 36.8994L148.03 38.686L151.619 36.8994C150.741 35.1128 150.921 31.5926 150.921 31.5926Z" fill="#F28F8F"/>
<path d="M154.32 26.9729C154.182 25.662 153.226 25.8735 152.914 25.9739V23.5795H148.114H143.315V25.9739C143.003 25.8682 142.046 25.662 141.909 26.9729C141.761 28.4053 142.818 29.0449 143.315 29.2669V29.3092C143.315 32.0419 145.45 35.1393 148.114 35.1393C150.673 35.1393 152.914 32.0419 152.914 29.3092V29.2669C153.411 29.0449 154.468 28.4053 154.32 26.9729Z" fill="#FFB2AE"/>
<path d="M155.583 22.3373C155.139 22.3585 154.336 22.184 154.336 22.184C154.954 22.0308 155.139 20.9155 155.139 20.9155C153.849 21.2696 148.114 19.2928 145.403 19.7843C142.691 20.2759 142.934 21.5868 142.934 21.5868C140.181 22.6333 142.094 26.3227 142.094 26.3227C142.48 25.6832 143.31 25.9792 143.31 25.9792L143.733 27.9666C143.733 27.9666 144.494 26.6663 144.192 25.403C144.192 25.403 144.192 25.403 144.192 25.3977C145.006 24.6155 145.091 23.5847 145.091 23.5847L151.846 23.6059C151.767 24.2296 152.057 24.848 152.359 25.292C152.301 25.3713 152.253 25.4929 152.211 25.662C151.909 26.92 152.671 28.2256 152.671 28.2256L153.294 25.9052C153.791 25.884 154.024 26.1642 154.024 26.1642C154.928 25.3502 154.806 23.5795 154.806 23.5795C155.557 23.3152 155.583 22.3373 155.583 22.3373Z" fill="#686DA4"/>
<path d="M145.011 34.801L148.035 38.686L145.862 40.7157L143.267 36.8254L145.011 34.801Z" fill="#E9AB72"/>
<path d="M151.058 34.801L148.035 38.686L150.202 40.7157L152.797 36.8254L151.058 34.801Z" fill="#E9AB72"/>
<path d="M135.566 39.8224C135.566 39.8224 132.929 41.535 132.929 46.1969L132.247 55.5685H136.671L135.566 39.8224Z" fill="#E9AB72"/>
<path d="M160.076 39.8224C160.076 39.8224 162.713 41.535 162.713 46.1969L163.395 55.5685H158.971L160.076 39.8224Z" fill="#E9AB72"/>
<path d="M172.064 29.843L173.095 31.9309L175.399 32.2691L173.734 33.8919L174.125 36.1911L172.064 35.1076L170.002 36.1911L170.394 33.8919L168.729 32.2691L171.033 31.9309L172.064 29.843Z" fill="white"/>
<path d="M179.902 29.843L180.933 31.9309L183.243 32.2691L181.573 33.8919L181.964 36.1911L179.902 35.1076L177.841 36.1911L178.237 33.8919L176.567 32.2691L178.872 31.9309L179.902 29.843Z" fill="white"/>
<path d="M187.746 29.843L188.777 31.9309L191.082 32.2691L189.411 33.8919L189.808 36.1911L187.746 35.1076L185.685 36.1911L186.076 33.8919L184.406 32.2691L186.716 31.9309L187.746 29.843Z" fill="white"/>
<path d="M195.585 29.843L196.616 31.9309L198.92 32.2691L197.255 33.8919L197.646 36.1911L195.585 35.1076L193.524 36.1911L193.915 33.8919L192.25 32.2691L194.554 31.9309L195.585 29.843Z" fill="white"/>
<path d="M203.424 29.843L204.454 31.9309L206.764 32.2691L205.094 33.8919L205.485 36.1911L203.424 35.1076L201.362 36.1911L201.759 33.8919L200.089 32.2691L202.393 31.9309L203.424 29.843Z" fill="white"/>
<path d="M204.137 56.3085H171.567C170.383 56.3085 169.416 55.3465 169.416 54.1572V39.9017C169.416 38.7177 170.378 37.7504 171.567 37.7504H204.137C205.321 37.7504 206.289 38.7124 206.289 39.9017V54.1572C206.289 55.3465 205.327 56.3085 204.137 56.3085ZM171.572 38.8128C170.97 38.8128 170.478 39.3044 170.478 39.907V54.1625C170.478 54.765 170.97 55.2566 171.572 55.2566H204.143C204.745 55.2566 205.237 54.765 205.237 54.1625V39.907C205.237 39.3044 204.745 38.8128 204.143 38.8128H171.572Z" fill="#E6E6E7"/>
<path d="M202.087 43.0361H173.475C173.248 43.0361 173.063 42.8511 173.063 42.6238V42.4758C173.063 42.2485 173.248 42.0635 173.475 42.0635H202.087C202.314 42.0635 202.499 42.2485 202.499 42.4758V42.6238C202.499 42.8511 202.314 43.0361 202.087 43.0361Z" fill="#E6E6E7"/>
<path d="M202.087 45.8798H173.475C173.248 45.8798 173.063 45.6948 173.063 45.4675V45.3195C173.063 45.0922 173.248 44.9072 173.475 44.9072H202.087C202.314 44.9072 202.499 45.0922 202.499 45.3195V45.4675C202.499 45.6948 202.314 45.8798 202.087 45.8798Z" fill="#E6E6E7"/>
<path d="M202.087 48.7235H173.475C173.248 48.7235 173.063 48.5385 173.063 48.3112V48.1632C173.063 47.9359 173.248 47.7509 173.475 47.7509H202.087C202.314 47.7509 202.499 47.9359 202.499 48.1632V48.3112C202.499 48.5385 202.314 48.7235 202.087 48.7235Z" fill="#E6E6E7"/>
<path d="M202.087 51.5619H173.475C173.248 51.5619 173.063 51.3769 173.063 51.1496V51.0016C173.063 50.7744 173.248 50.5894 173.475 50.5894H202.087C202.314 50.5894 202.499 50.7744 202.499 51.0016V51.1496C202.499 51.3822 202.314 51.5619 202.087 51.5619Z" fill="#E6E6E7"/>
<path d="M193.699 23.5047C194.472 20.2138 192.431 16.9196 189.14 16.1468C185.849 15.3741 182.555 17.4154 181.782 20.7062C181.009 23.9971 183.051 27.2913 186.341 28.0641C189.632 28.8368 192.927 26.7955 193.699 23.5047Z" fill="white"/>
<path d="M181.33 21.9938L183.37 20.0909L185.976 22.6122L191.964 15.8571L194.158 18.0823L186.383 26.9887L181.33 21.9938Z" fill="#E5A872"/>
<path d="M203.424 72.3505H132.907V73.7248H203.424V72.3505Z" fill="#D2E7F9"/>
<path d="M203.424 76.2249H132.907V77.5992H203.424V76.2249Z" fill="#D2E7F9"/>
<path d="M203.424 80.0994H132.907V81.4736H203.424V80.0994Z" fill="#D2E7F9"/>
<path d="M203.424 83.9791H132.907V85.3533H203.424V83.9791Z" fill="#D2E7F9"/>
<path d="M120.962 12.1518H212.483V6.86611C212.483 3.07627 209.412 0 205.617 0H127.828C124.038 0 120.962 3.07099 120.962 6.86611V12.1518Z" fill="#0E7DC2"/>
<path d="M106.135 125.239H56.9889C52.7128 125.239 49.2401 121.772 49.2401 117.49V42.7507C49.2401 38.4745 52.7075 35.0018 56.9889 35.0018H106.135C110.411 35.0018 113.884 38.4693 113.884 42.7507V117.49C113.884 121.772 110.417 125.239 106.135 125.239Z" fill="#D2E7F9"/>
<path d="M108.852 79.9461H54.325V78.1595C54.325 76.4681 55.694 75.0991 57.3854 75.0991H105.792C107.483 75.0991 108.852 76.4681 108.852 78.1595V79.9461Z" fill="#D2E7F9"/>
<path d="M105.601 96.5167H57.5704C55.7786 96.5167 54.3197 95.0632 54.3197 93.266V79.9461H108.847V93.266C108.852 95.0632 107.393 96.5167 105.601 96.5167Z" fill="white"/>
<path d="M108.799 104.155H54.2773V102.368C54.2773 100.677 55.6463 99.3076 57.3378 99.3076H105.744C107.436 99.3076 108.805 100.677 108.805 102.368V104.155H108.799Z" fill="#D2E7F9"/>
<path d="M105.554 120.725H57.5228C55.7309 120.725 54.2721 119.272 54.2721 117.474V104.155H108.799V117.474C108.799 119.272 107.346 120.725 105.554 120.725Z" fill="white"/>
<path d="M79.4796 72.3505H56.0111C55.1601 72.3505 54.473 71.6634 54.473 70.8124V44.2412C54.473 43.3902 55.1601 42.7031 56.0111 42.7031H79.4796C80.3306 42.7031 81.0177 43.3902 81.0177 44.2412V70.8124C81.0177 71.6581 80.3306 72.3505 79.4796 72.3505Z" fill="white"/>
<path d="M77.2067 60.2516C76.7468 59.9239 71.292 57.9523 71.292 57.9523L67.7453 59.3372L64.1986 57.9523C64.1986 57.9523 58.7385 59.9239 58.2839 60.2516C57.8241 60.5793 59.1349 72.3453 59.1349 72.3453H67.6343H67.8669H76.3663C76.3557 72.3505 77.6665 60.5793 77.2067 60.2516Z" fill="#0E7DC2"/>
<path d="M70.0764 53.9299L67.8564 54.1889L65.6364 53.9299C65.6364 53.9299 65.7791 56.6309 65.0972 58.0052L67.8564 59.3794L70.6155 58.0052C69.9389 56.6362 70.0764 53.9299 70.0764 53.9299Z" fill="#C3C6E2"/>
<path d="M72.6875 50.3832C72.5818 49.3736 71.8471 49.5375 71.6092 49.6168V47.7774H67.9198H64.2304V49.6168C63.9926 49.5375 63.2578 49.3736 63.1521 50.3832C63.0358 51.4826 63.8498 51.9795 64.2304 52.1486V52.1803C64.2304 54.2788 65.869 56.6573 67.9198 56.6573C69.8861 56.6573 71.6092 54.2788 71.6092 52.1803V52.1486C71.9898 51.9742 72.8038 51.4826 72.6875 50.3832Z" fill="#DEDFF3"/>
<path d="M65.5359 56.393L67.8617 59.3794L66.1914 60.9387L64.1987 57.9523L65.5359 56.393Z" fill="#D2E7F9"/>
<path d="M70.1821 56.393L67.8616 59.3794L69.5266 60.9387L71.5193 57.9523L70.1821 56.393Z" fill="#D2E7F9"/>
<path d="M58.2787 60.2516C58.2787 60.2516 56.2542 61.5677 56.2542 65.1514L55.731 72.3505H59.1297L58.2787 60.2516Z" fill="#D2E7F9"/>
<path d="M77.1116 60.2516C77.1116 60.2516 79.136 61.5677 79.136 65.1514L79.6593 72.3505H76.2606L77.1116 60.2516Z" fill="#D2E7F9"/>
<path d="M64.1141 49.6855L64.5211 50.8589C64.5211 50.8589 65.3404 49.2098 64.9968 47.8196C64.9968 47.8196 66.6407 47.7774 67.8564 47.8196C69.0721 47.8619 70.8216 47.8196 70.8216 47.8196C70.8216 47.8196 70.5521 49.8969 71.3555 50.4995C71.3555 50.4995 72.0691 49.2256 72.0955 47.8196C72.1166 46.4084 71.4031 45.4939 70.2191 45.1134C69.0351 44.7328 65.0708 44.4897 64.1141 46.1388C63.1574 47.7985 64.1141 49.6855 64.1141 49.6855Z" fill="#0E7DC2"/>
<path d="M84.3953 53.1001L85.1036 54.5378L86.6946 54.7703L85.5423 55.8856L85.8171 57.4713L84.3953 56.7208L82.9734 57.4713L83.2483 55.8856L82.096 54.7703L83.687 54.5378L84.3953 53.1001Z" fill="white"/>
<path d="M89.7919 53.1001L90.5055 54.5378L92.0912 54.7703L90.9442 55.8856L91.2138 57.4713L89.7919 56.7208L88.3753 57.4713L88.6449 55.8856L87.4979 54.7703L89.0836 54.5378L89.7919 53.1001Z" fill="white"/>
<path d="M106.484 71.489H84.0571C83.1479 71.489 82.4132 70.749 82.4132 69.8451V60.0296C82.4132 59.1205 83.1532 58.3857 84.0571 58.3857H106.484C107.393 58.3857 108.128 59.1257 108.128 60.0296V69.8451C108.128 70.749 107.388 71.489 106.484 71.489ZM84.0571 59.4376C83.7346 59.4376 83.4703 59.7019 83.4703 60.0243V69.8398C83.4703 70.1623 83.7346 70.4265 84.0571 70.4265H106.484C106.807 70.4265 107.071 70.1623 107.071 69.8398V60.0243C107.071 59.7019 106.807 59.4376 106.484 59.4376H84.0571Z" fill="white"/>
<path d="M105.073 62.1862H85.3679C85.2093 62.1862 85.0825 62.0593 85.0825 61.9007V61.8003C85.0825 61.6417 85.2093 61.5149 85.3679 61.5149H105.073C105.232 61.5149 105.358 61.6417 105.358 61.8003V61.9007C105.353 62.0593 105.226 62.1862 105.073 62.1862Z" fill="white"/>
<path d="M105.073 64.1419H85.3679C85.2093 64.1419 85.0825 64.015 85.0825 63.8564V63.756C85.0825 63.5974 85.2093 63.4706 85.3679 63.4706H105.073C105.232 63.4706 105.358 63.5974 105.358 63.756V63.8564C105.353 64.015 105.226 64.1419 105.073 64.1419Z" fill="white"/>
<path d="M105.073 66.1029H85.3679C85.2093 66.1029 85.0825 65.976 85.0825 65.8174V65.717C85.0825 65.5584 85.2093 65.4316 85.3679 65.4316H105.073C105.232 65.4316 105.358 65.5584 105.358 65.717V65.8174C105.353 65.976 105.226 66.1029 105.073 66.1029Z" fill="white"/>
<path d="M105.073 68.0586H85.3679C85.2093 68.0586 85.0825 67.9317 85.0825 67.7731V67.6727C85.0825 67.5141 85.2093 67.3873 85.3679 67.3873H105.073C105.232 67.3873 105.358 67.5141 105.358 67.6727V67.7731C105.353 67.9317 105.226 68.0586 105.073 68.0586Z" fill="white"/>
<path d="M100.992 46.9472C101.425 44.2878 99.6196 41.7812 96.9602 41.3485C94.3008 40.9157 91.7942 42.7208 91.3615 45.3802C90.9287 48.0396 92.7338 50.5463 95.3932 50.979C98.0526 51.4117 100.559 49.6066 100.992 46.9472Z" fill="#0E7DC2"/>
<path d="M101.79 42.8934L98.8675 40.2664L96.1824 43.2422L93.4972 40.2664L90.569 42.8934L93.5131 46.2022L90.569 49.4582L93.5818 52.1222L96.1824 49.2045L98.7776 52.1222L101.79 49.4582L98.8516 46.2022L101.79 42.8934Z" fill="white"/>
<path d="M277.899 125.239H228.753C224.477 125.239 221.004 121.772 221.004 117.49V42.7507C221.004 38.4745 224.471 35.0018 228.753 35.0018H277.899C282.175 35.0018 285.648 38.4693 285.648 42.7507V117.49C285.648 121.772 282.175 125.239 277.899 125.239Z" fill="#D2E7F9"/>
<path d="M280.611 79.9461H226.083V78.1595C226.083 76.4681 227.452 75.0991 229.144 75.0991H277.55C279.242 75.0991 280.611 76.4681 280.611 78.1595V79.9461Z" fill="#D2E7F9"/>
<path d="M277.365 96.5167H229.334C227.542 96.5167 226.083 95.0632 226.083 93.266V79.9461H280.611V93.266C280.611 95.0632 279.157 96.5167 277.365 96.5167Z" fill="white"/>
<path d="M280.563 104.155H226.036V102.368C226.036 100.677 227.405 99.3076 229.096 99.3076H277.503C279.194 99.3076 280.563 100.677 280.563 102.368V104.155Z" fill="#D2E7F9"/>
<path d="M277.318 120.725H229.287C227.495 120.725 226.036 119.272 226.036 117.474V104.155H280.563V117.474C280.563 119.272 279.11 120.725 277.318 120.725Z" fill="white"/>
<path d="M251.354 72.3505H227.886C227.035 72.3505 226.348 71.6634 226.348 70.8124V44.2412C226.348 43.3902 227.035 42.7031 227.886 42.7031H251.354C252.205 42.7031 252.892 43.3902 252.892 44.2412V70.8124C252.892 71.6581 252.205 72.3505 251.354 72.3505Z" fill="white"/>
<path d="M244.335 48.5913C243.479 45.9432 240.09 45.6684 239.683 45.6419C239.683 45.6419 239.668 45.6419 239.662 45.6419C239.657 45.6419 239.641 45.6419 239.641 45.6419C239.234 45.6684 235.841 45.9432 234.99 48.5913C234.081 51.4086 234.398 61.5149 234.398 61.5149C234.398 61.5149 238.505 61.3087 238.468 56.6045C238.441 52.7142 239.123 50.0872 239.662 49.2943C240.196 50.0925 240.825 52.8093 240.799 56.6996C240.767 61.4092 244.932 61.5202 244.932 61.5202C244.932 61.5202 245.244 51.4086 244.335 48.5913Z" fill="#686DA4"/>
<path d="M248.024 59.8234C247.564 59.4957 243.056 57.9523 243.056 57.9523L239.509 59.3372L235.962 57.9523C235.962 57.9523 231.755 59.3742 231.295 59.7019C230.835 60.0296 233.071 72.3505 233.071 72.3505H239.393H239.625H246.639C246.634 72.3505 248.479 60.1512 248.024 59.8234Z" fill="#D2E7F9"/>
<path d="M240.878 55.0452L239.609 54.7016L238.314 55.1615C238.314 55.1615 238.299 56.948 237.094 58.1796L239.604 59.4323L242.115 58.1796C241.058 57.0643 240.878 55.0452 240.878 55.0452Z" fill="#CECED8"/>
<path d="M244.007 51.2289C243.912 50.3092 243.241 50.4572 243.024 50.5312V48.8557H239.662H236.301V50.5312C236.084 50.4572 235.413 50.3092 235.318 51.2289C235.212 52.2279 235.957 52.6825 236.301 52.8358V52.8675C236.301 54.7809 238.42 56.948 239.662 56.948C241.105 56.948 243.024 54.7809 243.024 52.8675V52.8358C243.373 52.6772 244.113 52.2279 244.007 51.2289Z" fill="#E6E6E7"/>
<path d="M231.364 59.7177C231.364 59.7177 229.339 61.0339 229.339 64.6176L228.816 72.3505H233.071L231.364 59.7177Z" fill="#0E7DC2"/>
<path d="M247.95 59.7177C247.95 59.7177 249.975 61.0339 249.975 64.6176L250.498 72.3505H246.634L247.95 59.7177Z" fill="#0E7DC2"/>
<path d="M237.506 56.6045L235.962 57.9523C235.962 57.9523 234.953 60.7062 236.613 61.4092C238.272 62.1121 239.625 59.3794 239.625 59.3794L237.506 56.6045Z" fill="#0E7DC2"/>
<path d="M241.703 56.4987L243.262 57.9523C243.262 57.9523 244.271 60.7062 242.612 61.4092C240.952 62.1121 239.599 59.3794 239.599 59.3794L241.703 56.4987Z" fill="#0E7DC2"/>
<path d="M242.453 49.1411C242.453 49.1411 241.645 49.9075 239.752 50.1718C237.86 50.4361 236.729 50.3885 236.729 50.3885C236.729 50.3885 236.84 52.4711 236.005 53.2428C235.17 54.0145 234.583 50.7955 235.318 49.3895C236.052 47.9782 241.338 47.3651 241.47 47.3651C241.602 47.3651 242.332 47.5871 242.332 47.5871C242.332 47.5871 243.743 48.1209 244.139 50.3674C244.536 52.6085 243.257 53.5863 243.257 53.5863C243.257 53.5863 242.274 51.3875 242.453 49.1411Z" fill="#686DA4"/>
<path d="M242.247 51.4192H240.529C240.239 51.4192 240.001 51.6571 240.001 51.9478V52.0271H239.509V52.0059C239.509 51.7152 239.271 51.4773 238.981 51.4773H237.263C236.972 51.4773 236.734 51.7152 236.734 52.0059V52.4129C236.734 52.7036 236.972 52.9415 237.263 52.9415H238.981C239.271 52.9415 239.509 52.7036 239.509 52.4129V52.3178H240.001V52.3601C240.001 52.6508 240.239 52.8886 240.529 52.8886H242.247C242.538 52.8886 242.776 52.6508 242.776 52.3601V51.9531C242.776 51.6571 242.538 51.4192 242.247 51.4192ZM239.24 52.4182C239.24 52.5662 239.118 52.6825 238.975 52.6825H237.257C237.109 52.6825 236.993 52.5609 236.993 52.4182V52.0112C236.993 51.8632 237.115 51.7469 237.257 51.7469H238.975C239.123 51.7469 239.24 51.8685 239.24 52.0112V52.4182ZM242.511 52.3601C242.511 52.5081 242.39 52.6243 242.247 52.6243H240.529C240.381 52.6243 240.265 52.5028 240.265 52.3601V51.9531C240.265 51.8051 240.387 51.6888 240.529 51.6888H242.247C242.395 51.6888 242.511 51.8103 242.511 51.9531V52.3601Z" fill="#0E7DC2"/>
<path d="M256.159 53.1001L256.867 54.5378L258.453 54.7703L257.306 55.8856L257.576 57.4713L256.159 56.7208L254.737 57.4713L255.007 55.8856L253.86 54.7703L255.446 54.5378L256.159 53.1001Z" fill="white"/>
<path d="M261.556 53.1001L262.264 54.5378L263.855 54.7703L262.703 55.8856L262.978 57.4713L261.556 56.7208L260.134 57.4713L260.409 55.8856L259.256 54.7703L260.847 54.5378L261.556 53.1001Z" fill="white"/>
<path d="M266.958 53.1001L267.666 54.5378L269.252 54.7703L268.105 55.8856L268.374 57.4713L266.958 56.7208L265.536 57.4713L265.805 55.8856L264.658 54.7703L266.244 54.5378L266.958 53.1001Z" fill="white"/>
<path d="M278.248 71.489H255.821C254.912 71.489 254.177 70.749 254.177 69.8451V60.0296C254.177 59.1205 254.917 58.3857 255.821 58.3857H278.248C279.152 58.3857 279.892 59.1257 279.892 60.0296V69.8451C279.892 70.749 279.152 71.489 278.248 71.489ZM255.816 59.4376C255.493 59.4376 255.229 59.7019 255.229 60.0243V69.8398C255.229 70.1623 255.493 70.4265 255.816 70.4265H278.243C278.565 70.4265 278.829 70.1623 278.829 69.8398V60.0243C278.829 59.7019 278.565 59.4376 278.243 59.4376H255.816Z" fill="white"/>
<path d="M276.831 62.1862H257.126C256.968 62.1862 256.841 62.0593 256.841 61.9007V61.8003C256.841 61.6417 256.968 61.5149 257.126 61.5149H276.831C276.99 61.5149 277.117 61.6417 277.117 61.8003V61.9007C277.117 62.0593 276.99 62.1862 276.831 62.1862Z" fill="white"/>
<path d="M276.831 64.1419H257.126C256.968 64.1419 256.841 64.015 256.841 63.8564V63.756C256.841 63.5974 256.968 63.4706 257.126 63.4706H276.831C276.99 63.4706 277.117 63.5974 277.117 63.756V63.8564C277.117 64.015 276.99 64.1419 276.831 64.1419Z" fill="white"/>
<path d="M276.831 66.1029H257.126C256.968 66.1029 256.841 65.976 256.841 65.8174V65.717C256.841 65.5584 256.968 65.4316 257.126 65.4316H276.831C276.99 65.4316 277.117 65.5584 277.117 65.717V65.8174C277.117 65.976 276.99 66.1029 276.831 66.1029Z" fill="white"/>
<path d="M276.831 68.0586H257.126C256.968 68.0586 256.841 67.9317 256.841 67.7731V67.6727C256.841 67.5141 256.968 67.3873 257.126 67.3873H276.831C276.99 67.3873 277.117 67.5141 277.117 67.6727V67.7731C277.117 67.9317 276.99 68.0586 276.831 68.0586Z" fill="white"/>
<path d="M271.782 47.3012C272.404 44.6796 270.783 42.0504 268.161 41.4288C265.539 40.8072 262.91 42.4285 262.288 45.0502C261.667 47.6719 263.288 50.3011 265.91 50.9227C268.532 51.5443 271.161 49.9229 271.782 47.3012Z" fill="#0E7DC2"/>
<path d="M272.64 42.8934L269.717 40.2664L267.032 43.2422L264.347 40.2664L261.418 42.8934L264.362 46.2022L261.418 49.4582L264.431 52.1222L267.032 49.2045L269.627 52.1222L272.64 49.4582L269.701 46.2022L272.64 42.8934Z" fill="white"/>
<path d="M128.404 218.854C128.356 218.854 128.309 218.849 128.261 218.843C127.833 218.764 127.548 218.352 127.622 217.924L136.459 169.401H143.754L153.585 217.58C153.675 218.008 153.395 218.426 152.966 218.516C152.538 218.606 152.121 218.325 152.031 217.897L142.464 170.982H137.786L129.181 218.204C129.117 218.584 128.779 218.854 128.404 218.854Z" fill="#26345B"/>
<path d="M147.57 219.779C147.522 219.779 147.475 219.774 147.427 219.768C146.999 219.689 146.713 219.277 146.787 218.849L155.625 170.326H162.888L174.897 218.315C175.003 218.738 174.744 219.171 174.321 219.277C173.893 219.383 173.464 219.124 173.359 218.701L161.651 171.912H156.947L148.341 219.134C148.278 219.515 147.945 219.779 147.57 219.779Z" fill="#26345B"/>
<path d="M140.572 218.172C138.5 218.262 135.46 218.479 134.007 218.436C132.553 218.394 131.322 218.394 131.232 217.776C131.179 217.4 131.607 215.651 131.951 214.324C132.183 213.447 132.379 212.754 132.379 212.754L135.064 213.679C135.064 213.679 135.851 214.409 137.353 215.133C137.474 215.191 137.612 215.26 137.76 215.339C139.435 216.206 142.469 218.088 140.572 218.172Z" fill="#EF8A5E"/>
<path d="M135.323 190.206C135.323 190.206 132.426 193.99 132.601 199.894C132.775 205.798 131.892 214.34 131.892 214.34H135.323C135.323 214.34 140.249 190.607 140.387 189.497C140.524 188.387 135.323 190.206 135.323 190.206Z" fill="#EF8A5E"/>
<path d="M142.728 181.569C142.728 181.569 144.684 181.722 145.889 185.084C147.089 188.44 139.298 214.721 139.298 214.721L136.607 212.183C136.607 212.183 136.116 201.961 137.971 196.02C139.826 190.073 139.953 190.163 139.953 190.163L142.728 181.569Z" fill="#FFA16F"/>
<path d="M145.434 218.743C145.107 219.319 143.458 219.626 141.28 218.743C139.107 217.866 135.127 217.115 135.328 216.322C135.476 215.735 136.243 213.003 136.628 211.634C136.761 211.153 136.85 210.841 136.85 210.841C136.85 210.841 138.367 209.519 139.292 212.289C139.715 213.558 141.105 214.9 142.453 216.026C144.06 217.374 145.614 218.431 145.434 218.743Z" fill="#FFA16F"/>
<path d="M156.275 168.444H138.568V169.782H156.275V168.444Z" fill="#686DA4"/>
<path d="M160.261 168.444H155.921V169.782H160.261V168.444Z" fill="#686DA4"/>
<path d="M122.51 169.412C122.51 169.412 131.718 170.458 137.971 169.782L137.855 167.567L122.701 163.973L122.51 169.412Z" fill="#EF8A5E"/>
<path d="M99.6339 219.541C99.5493 219.541 99.4647 219.531 99.3854 219.499C98.9679 219.361 98.7459 218.912 98.8833 218.495L107.769 191.812H114.894L123.869 218.495C124.006 218.912 123.784 219.361 123.372 219.499C122.954 219.636 122.505 219.414 122.368 219.002L113.757 193.398H108.916L100.39 218.997C100.273 219.33 99.9669 219.541 99.6339 219.541Z" fill="#26345B"/>
<path d="M168.189 169.782H126.2V172.15H168.189V169.782Z" fill="#C5C6F4"/>
<path d="M119.011 137.396C119.011 137.396 119.223 135.99 120.174 135.626C121.125 135.261 121.221 135.626 121.221 135.626C121.221 135.626 121.495 136.085 121.495 137.772C121.495 139.458 121.649 141.144 121.495 143.195C121.342 145.245 120.888 146.535 120.29 146.688C119.688 146.842 119.016 146.688 119.016 146.688L118.097 149.173L116.072 148.528L119.011 137.396Z" fill="#FFA16F"/>
<path d="M125.634 148.972C125.634 148.972 127.595 154.347 128.362 159.903C129.123 165.458 131.089 169.385 132.231 169.755C133.378 170.125 135.027 167.054 132.823 160.891C131.686 157.725 128.705 148.042 128.705 148.042L125.634 148.972Z" fill="#FFA16F"/>
<path d="M106.833 156.33C107.409 160.193 110.02 171.13 110.549 173.508V178.794H124.159L123.298 169.94L122.896 152.302L118.541 150.711L112.394 148.729C112.404 148.734 105.929 150.251 106.833 156.33Z" fill="#686DA4"/>
<path d="M111.442 147.243C111.442 147.243 116.828 148.369 117.817 149.03C118.805 149.691 118.81 150.98 118.81 150.98L110.618 149.294L111.442 147.243Z" fill="#686DA4"/>
<path d="M119.561 154.284C119.561 154.284 118.203 156.953 119.841 159.897C121.48 162.842 126.432 168.978 129.82 170.072C132.553 170.955 133.742 168.989 133.742 168.989C133.563 166.901 131.142 166.727 123.071 152.497C122.32 151.171 120 152.83 119.561 154.284Z" fill="#686DA4"/>
<path d="M110.554 177.599C110.554 177.599 107.843 184.745 111.944 190.163C116.046 195.581 139.958 190.163 139.958 190.163L142.733 181.574L124.054 177.599H110.554Z" fill="#CE6B4C"/>
<path d="M116.353 132.37C116.353 132.37 113.371 131.307 110.961 133.353C108.551 135.398 109.777 140.504 107.652 143.242C105.527 145.98 107.821 147.83 107.821 147.83C107.821 147.83 107.98 150.764 111.41 150.986C114.841 151.213 117.093 149.046 117.621 146.636C117.621 146.636 118.763 146.308 118.726 143.734C118.684 141.16 118.662 137.687 119.381 136.704C119.778 136.159 121.321 135.906 121.321 135.906C121.321 135.906 120.888 131.593 116.353 132.37Z" fill="#26345B"/>
<path d="M126.538 145.843C125.666 145.113 125.275 144.727 124.963 144.558C124.646 144.389 124.064 143.998 123.631 144.098C123.308 144.172 123.197 143.924 122.938 143.813C122.938 143.813 122.611 143.443 122.008 143.639C122.008 143.639 121.004 144.611 120.866 145.388C120.724 146.165 121.749 145.33 122.098 144.764C122.109 144.775 122.119 144.791 122.124 144.801C121.876 145.119 121.622 145.515 121.559 145.869C121.437 146.546 122.246 145.927 122.632 145.409C123.034 145.885 123.451 146.414 123.361 146.625C123.208 146.99 122.812 147.233 121.961 146.963C121.11 146.694 120.407 146.916 121.231 147.365C122.056 147.814 122.954 148.396 123.948 148.565C124.942 148.734 125.856 149.178 125.856 149.178C125.856 149.178 128.811 148.295 128.705 148.047C128.594 147.788 127.41 146.572 126.538 145.843Z" fill="#FFA16F"/>
<path d="M119.455 193.361H106.104L101.912 173.186C101.822 172.758 102.097 172.34 102.525 172.25C102.953 172.16 103.376 172.435 103.461 172.863L107.388 191.775H117.468L113.255 173.202C113.16 172.773 113.424 172.351 113.852 172.255C114.275 172.16 114.703 172.425 114.799 172.853L119.455 193.361Z" fill="#26345B"/>
<path d="M97.6677 172.187C100.046 176.019 105.929 172.541 108.239 173.022C110.554 173.508 116.183 175.49 118.028 172.319C119.868 169.147 115.718 162.635 108.768 161.615C98.5927 160.119 95.2891 168.355 97.6677 172.187Z" fill="#C5C6F4"/>
<path d="M146.032 155.405L142.992 168.444H160.261L162.634 156.113L161.667 155.405H146.032Z" fill="#686DA4"/>
<path d="M146.735 156.266L144.213 167.667H158.532L160.504 156.266H146.735Z" fill="#C5C6F4"/>
<path d="M137.485 167.715C137.485 167.715 141.227 166.193 142.089 165.976C142.95 165.759 143.695 166.15 144.314 166.526C144.932 166.901 145.218 167.319 145.678 167.625C146.137 167.932 145.767 168.244 145.191 168.133C144.62 168.022 144.266 167.583 144.266 167.583L143.341 167.033C143.341 167.033 142.459 167.583 142.131 167.889C141.803 168.196 142.437 168.175 143.431 168.529C144.425 168.883 144.864 168.571 145.149 169.015C145.434 169.454 144.842 169.565 143.473 169.565C142.11 169.565 142.11 169.565 142.11 169.565C142.11 169.565 140.281 170.083 137.971 169.782L137.485 167.715Z" fill="#EF8A5E"/>
<path d="M159.071 168.444L161.667 155.405L162.634 156.113L160.261 168.444H159.071Z" fill="#686DA4"/>
<path d="M135.455 195.053H106.394C105.443 195.053 104.671 194.281 104.671 193.329V193.16C104.671 192.209 105.443 191.437 106.394 191.437H135.455C136.406 191.437 137.178 192.209 137.178 193.16V193.329C137.178 194.281 136.406 195.053 135.455 195.053Z" fill="#C5C6F4"/>
<path d="M145.434 218.743C145.107 219.319 143.458 219.626 141.28 218.743C139.107 217.866 135.127 217.115 135.328 216.322C135.476 215.735 136.243 213.003 136.628 211.634C136.85 211.687 137.152 211.856 137.506 212.289C138.299 213.251 138.827 214.974 140.249 215.598C141.179 216.005 141.999 216.047 142.453 216.026C144.06 217.374 145.614 218.431 145.434 218.743Z" fill="#0E7DC2"/>
<path d="M140.572 218.172C138.5 218.262 135.46 218.479 134.007 218.436C132.553 218.394 131.322 218.394 131.232 217.776C131.179 217.4 131.607 215.651 131.951 214.324C132.188 214.277 133.15 214.15 134.445 214.911C135.439 215.492 136.93 215.482 137.76 215.339C139.435 216.206 142.469 218.088 140.572 218.172Z" fill="#0E7DC2"/>
<path d="M99.6022 129.24H85.1564C83.1848 129.24 81.5886 130.837 81.5886 132.808V138.744C81.5886 140.716 83.1848 142.312 85.1564 142.312H95.3472L99.8295 147.518V142.301C101.695 142.185 103.175 140.642 103.175 138.744V132.808C103.175 130.842 101.574 129.24 99.6022 129.24Z" fill="#E5A872"/>
<path d="M87.165 136.773C87.9502 136.773 88.5868 136.136 88.5868 135.351C88.5868 134.565 87.9502 133.929 87.165 133.929C86.3797 133.929 85.7431 134.565 85.7431 135.351C85.7431 136.136 86.3797 136.773 87.165 136.773Z" fill="white"/>
<path d="M92.8788 136.773C93.664 136.773 94.3006 136.136 94.3006 135.351C94.3006 134.565 93.664 133.929 92.8788 133.929C92.0935 133.929 91.4569 134.565 91.4569 135.351C91.4569 136.136 92.0935 136.773 92.8788 136.773Z" fill="white"/>
<path d="M97.8315 136.773C98.6167 136.773 99.2533 136.136 99.2533 135.351C99.2533 134.565 98.6167 133.929 97.8315 133.929C97.0462 133.929 96.4096 134.565 96.4096 135.351C96.4096 136.136 97.0462 136.773 97.8315 136.773Z" fill="white"/>
<path d="M197.239 133.273C197.239 133.273 197.107 131.751 199.158 130.562C201.209 129.373 202.197 129.108 205.237 128.511C208.276 127.914 212.505 128.442 212.505 128.442L217.922 131.746C217.922 131.746 217.722 140.404 216.268 146.086C214.814 151.768 216.363 159.781 216.363 159.781L198.825 161.346L197.239 133.273Z" fill="#CE6B4C"/>
<path d="M205.718 209.673C205.718 209.673 205.628 215.223 205.718 217.073C205.808 218.923 206.421 219.187 202.108 219.187C197.789 219.187 194.353 219.716 192.947 218.658C191.536 217.601 198.497 215.313 199.909 213.727C201.32 212.141 200.702 210.645 200.702 210.645L205.718 209.673Z" fill="#232733"/>
<path d="M214.524 210.64C214.524 210.64 214.878 213.589 214.524 214.493C214.17 215.397 212.145 216.211 211.178 216.65C210.211 217.089 209.502 217.776 210.031 218.304C210.559 218.833 219.593 219.007 220.185 218.658C220.777 218.304 218.927 210.64 218.927 210.64H214.524Z" fill="#232733"/>
<path d="M217.917 131.751C217.917 131.751 222.939 145.362 223.599 150.912C224.26 156.462 215.935 163.513 215.935 163.513L213.35 156.996L217.256 150.917L214.746 145.103L217.917 131.751Z" fill="#CE6B4C"/>
<path d="M205.459 112.612C205.459 112.612 208.334 112.532 210.279 113.7C212.224 114.869 212.647 116.38 212.647 116.38C212.647 116.38 213.229 117.078 213.345 118.558C213.461 120.033 210.316 124.7 210.316 124.7C210.316 124.7 206.685 124.753 205.316 123.928C203.947 123.104 201.928 116.914 201.928 116.914C201.928 116.914 200.802 116.074 200.527 114.832L201.627 114.636C201.627 114.636 200.141 113.938 200.527 112.807L205.459 112.612Z" fill="#26345B"/>
<path d="M210.316 124.695C210.316 124.695 206.801 124.478 205.316 123.923C205.316 123.923 206.236 123.294 206.468 122.205C206.701 121.116 206.082 119.293 205.263 119.33C204.449 119.367 204.386 120.419 204.386 120.419L203.873 118.473C203.873 118.473 203.683 117.231 202.848 116.909C202.007 116.586 201.928 116.909 201.928 116.909C201.928 116.909 201.685 117.316 201.685 118.801C201.685 120.286 201.547 121.777 201.685 123.585C201.822 125.398 202.219 126.529 202.747 126.666C203.276 126.804 204.439 126.888 204.439 126.888L204.682 128.86L206.468 128.294C206.468 128.294 209.19 128.115 210.353 128.115L210.316 124.695Z" fill="#FFA16F"/>
<path d="M198.55 131.355C198.55 131.355 200.665 134.595 199.148 139.352C198.365 141.804 195.157 144.5 192.234 146.54C189.359 148.544 185.447 148.121 183.069 145.547L175.822 137.703L178.93 134.399L186.991 140.578C186.991 140.573 197.562 130.958 198.55 131.355Z" fill="#CE6B4C"/>
<path d="M198.825 160.558V163.508C198.825 163.508 199.422 188.704 199.555 192.801C199.687 196.897 199.28 213.352 199.28 213.352H205.887C205.887 213.352 208.276 199.804 207.578 195.179C207.177 192.494 206.944 191.516 206.944 188.874C206.944 186.231 208.746 170.696 208.746 170.696C208.746 170.696 212.103 191.744 212.103 194.651C212.103 197.558 213.979 214.493 213.979 214.493H220.19C220.19 214.493 220.428 195.576 219.238 191.612C218.049 187.647 217.362 163.449 216.236 159.216L198.825 160.558Z" fill="#0E7DC2"/>
<path d="M178.613 134.732C178.613 134.732 176.282 131.852 175.822 131.122C175.362 130.393 172.756 128.115 172.096 128.051C171.435 127.988 172.656 129.901 173.449 130.498C173.449 130.498 172.191 130.964 172.36 131.788C172.36 131.788 171.334 132.121 171.498 132.946C171.498 132.946 170.869 133.818 171.202 134.738C171.535 135.657 172.196 136.149 172.524 136.218C172.851 136.286 173.216 136.218 173.216 136.218C173.216 136.218 173.988 136.979 174.855 137.01L175.817 137.703L178.613 134.732Z" fill="#FFA16F"/>
<path d="M203.408 128.495C203.408 128.495 205.115 127.332 207.837 126.92C210.559 126.508 211.569 126.92 211.569 126.92L211.976 128.495C211.976 128.495 200.902 130.419 203.408 128.495Z" fill="#CE6B4C"/>
<path d="M220.555 106.824H235C236.972 106.824 238.568 108.42 238.568 110.392V116.327C238.568 118.299 236.972 119.895 235 119.895H224.815L220.333 125.102V119.885C218.467 119.768 216.987 118.225 216.987 116.327V110.392C216.987 108.42 218.583 106.824 220.555 106.824Z" fill="#E5A872"/>
<path d="M222.442 114.393C223.227 114.393 223.863 113.756 223.863 112.971C223.863 112.186 223.227 111.549 222.442 111.549C221.656 111.549 221.02 112.186 221.02 112.971C221.02 113.756 221.656 114.393 222.442 114.393Z" fill="white"/>
<path d="M228.155 114.393C228.941 114.393 229.577 113.756 229.577 112.971C229.577 112.186 228.941 111.549 228.155 111.549C227.37 111.549 226.734 112.186 226.734 112.971C226.734 113.756 227.37 114.393 228.155 114.393Z" fill="white"/>
<path d="M233.113 114.393C233.899 114.393 234.535 113.756 234.535 112.971C234.535 112.186 233.899 111.549 233.113 111.549C232.328 111.549 231.692 112.186 231.692 112.971C231.692 113.756 232.328 114.393 233.113 114.393Z" fill="white"/>
<path d="M333.327 220H1.67318C0.749294 220 0 219.552 0 219C0 218.448 0.749294 218 1.67318 218H333.327C334.251 218 335 218.448 335 219C335 219.552 334.251 220 333.327 220Z" fill="#0E7DC2"/>
<path d="M257.681 214.039H249.911V192.436H248.225V214.039H240.128C239.662 214.039 239.218 214.24 238.907 214.588L236.692 217.089C236.264 217.57 236.401 218.325 236.972 218.632C237.384 218.849 237.892 218.754 238.193 218.405L240.582 215.63H248.22V217.823C248.22 218.288 248.595 218.669 249.066 218.669C249.531 218.669 249.911 218.294 249.911 217.823V215.63H256.492L258.865 218.389C259.177 218.748 259.695 218.838 260.107 218.606C260.662 218.294 260.784 217.554 260.366 217.078L257.681 214.039Z" fill="#232733"/>
<path d="M243.748 153.475L242.279 192.436H263.686L267 154.332C267.349 150.309 264.177 146.847 260.139 146.847H250.636C246.93 146.847 243.891 149.775 243.748 153.475Z" fill="#0E7DC2"/>
<path d="M261.91 193.953H229.519C228.541 193.953 227.743 193.271 227.743 192.431C227.743 191.59 228.536 190.909 229.519 190.909H261.915C262.893 190.909 263.691 191.59 263.691 192.431C263.686 193.277 262.893 193.953 261.91 193.953Z" fill="#0E7DC2"/>
<path d="M230.301 191.035H228.827L230.222 181.162C230.307 180.575 230.804 180.142 231.396 180.142H242.712V181.727H231.729L230.301 191.035Z" fill="#232733"/>
<path d="M252.253 190.914H250.667L252.147 181.135C252.232 180.564 252.723 180.142 253.305 180.142H264.648V181.727H253.664L252.253 190.914Z" fill="#232733"/>
<path d="M269.32 218.563C269.32 218.563 255.313 206.015 258.749 203.108C262.185 200.201 270.51 215.397 270.51 215.397C270.51 215.397 263.94 199.54 267.026 196.237C270.113 192.933 272.888 206.808 272.888 206.808C272.888 206.808 273.153 186.987 277.91 186.194C282.667 185.401 277.91 208.394 277.91 208.394C277.91 208.394 282.006 202.712 285.31 203.901C288.613 205.09 279.892 213.944 279.892 213.944C279.892 213.944 284.517 209.451 287.027 210.64C289.538 211.829 281.345 218.743 281.345 218.743L269.32 218.563Z" fill="#0E7DC2"/>
<path d="M92.8787 172.15H54.2773V218.563H92.8787V172.15Z" fill="#0E7DC2"/>
<path d="M87.8891 175.934H58.0249V187.917H87.8891V175.934Z" fill="#0E7DC2"/>
<path d="M87.8891 191.812H58.0249V216.364H87.8891V191.812Z" fill="#0E7DC2"/>
<path d="M72.825 183.419C73.7007 183.419 74.4107 182.709 74.4107 181.833C74.4107 180.957 73.7007 180.247 72.825 180.247C71.9492 180.247 71.2393 180.957 71.2393 181.833C71.2393 182.709 71.9492 183.419 72.825 183.419Z" fill="#0E7DC2"/>
<path d="M74.0142 190.819H72.2964V217.511H74.0142V190.819Z" fill="#0E7DC2"/>
<path d="M63.6172 155.849H58.8601V172.155H63.6172V155.849Z" fill="#0E7DC2"/>
<path d="M61.1646 160.363C61.804 160.363 62.3222 159.844 62.3222 159.205C62.3222 158.566 61.804 158.047 61.1646 158.047C60.5253 158.047 60.0071 158.566 60.0071 159.205C60.0071 159.844 60.5253 160.363 61.1646 160.363Z" fill="#0E7DC2"/>
<path d="M63.6172 161.155H58.8601V163.666H63.6172V161.155Z" fill="#0E7DC2"/>
<path d="M73.1315 155.849H68.3744V172.155H73.1315V155.849Z" fill="#0E7DC2"/>
<path d="M70.6789 160.363C71.3182 160.363 71.8364 159.844 71.8364 159.205C71.8364 158.566 71.3182 158.047 70.6789 158.047C70.0396 158.047 69.5213 158.566 69.5213 159.205C69.5213 159.844 70.0396 160.363 70.6789 160.363Z" fill="#0E7DC2"/>
<path d="M73.1315 161.155H68.3744V163.666H73.1315V161.155Z" fill="#0E7DC2"/>
<path d="M68.3744 155.849H63.6172V172.155H68.3744V155.849Z" fill="#0E7DC2"/>
<path d="M77.5821 155.849H72.825V172.155H77.5821V155.849Z" fill="#0E7DC2"/>
</svg>
