<svg width="24" height="24" viewBox="0 0 24 24" fill="none" xmlns="http://www.w3.org/2000/svg">
<path d="M14.1211 15.4001L18.7071 10.8111C18.8792 10.6207 18.9716 10.3714 18.965 10.1148C18.9584 9.85817 18.8534 9.61391 18.6717 9.43259C18.49 9.25127 18.2455 9.14677 17.9889 9.14073C17.7323 9.13468 17.4831 9.22756 17.2931 9.40012L12.7071 13.9861C12.5196 14.1736 12.2652 14.2789 12.0001 14.2789C11.7349 14.2789 11.4806 14.1736 11.2931 13.9861L6.70709 9.40012C6.51945 9.21262 6.265 9.10733 5.99973 9.10742C5.73446 9.10752 5.48009 9.21298 5.29258 9.40062C5.10508 9.58827 4.99979 9.84271 4.99988 10.108C4.99998 10.3732 5.10544 10.6276 5.29308 10.8151L9.87908 15.4001C10.4417 15.9625 11.2046 16.2785 12.0001 16.2785C12.7956 16.2785 13.5585 15.9625 14.1211 15.4001Z" fill="#747474"/>
</svg>
